<svg width="26" height="22" viewBox="0 0 26 22" fill="none" xmlns="http://www.w3.org/2000/svg">
<mask id="path-1-outside-1_325_917" maskUnits="userSpaceOnUse" x="-0.0272217" y="-0.621704" width="26" height="23" fill="black">
<rect fill="white" x="-0.0272217" y="-0.621704" width="26" height="23"/>
<path d="M2.12323 0.402022C2.1565 0.401897 2.18976 0.401773 2.22403 0.401645C2.33633 0.401284 2.44864 0.401258 2.56094 0.40123C2.64194 0.401042 2.72293 0.400834 2.80393 0.400608C3.02717 0.400046 3.25042 0.399782 3.47366 0.399568C3.71418 0.399289 3.9547 0.398745 4.19522 0.398242C4.77644 0.397091 5.35766 0.396406 5.93888 0.395801C6.103 0.395627 6.26713 0.395441 6.43125 0.39525C7.45011 0.394068 8.46897 0.393034 9.48783 0.392451C9.7239 0.392313 9.95997 0.392175 10.196 0.392033C10.2547 0.391998 10.3134 0.391963 10.3738 0.391927C11.3244 0.391334 12.275 0.389777 13.2255 0.387824C14.2011 0.385836 15.1767 0.384731 16.1523 0.384486C16.7002 0.384326 17.2481 0.383774 17.796 0.382231C18.2626 0.380919 18.7292 0.380403 19.1958 0.380928C19.4338 0.381171 19.6719 0.381034 19.91 0.379874C20.128 0.378821 20.3461 0.378854 20.5641 0.379743C20.6429 0.379875 20.7217 0.379612 20.8004 0.378908C21.2231 0.375366 21.6018 0.378426 21.956 0.642819C22.2676 0.955395 22.3417 1.31186 22.3416 1.74478C22.3412 1.77951 22.3407 1.81425 22.3402 1.85003C22.34 1.90532 22.34 1.90532 22.3398 1.96173C22.3393 2.07776 22.3381 2.19378 22.3369 2.30981C22.3364 2.38919 22.336 2.46856 22.3356 2.54794C22.3346 2.74103 22.333 2.93411 22.331 3.12719C22.4125 3.12535 22.4125 3.12535 22.4957 3.12347C22.6992 3.1192 22.9028 3.11653 23.1064 3.11432C23.1941 3.11315 23.2818 3.11155 23.3696 3.10951C24.3408 3.0875 24.3408 3.0875 24.6748 3.36157C24.9001 3.60626 25.0086 3.79786 25.0092 4.13511C25.0094 4.18906 25.0096 4.24301 25.0098 4.2986C25.0098 4.38792 25.0098 4.38792 25.0098 4.47904C25.01 4.54272 25.0101 4.60641 25.0103 4.6701C25.0108 4.8455 25.011 5.02091 25.0111 5.19632C25.0113 5.38537 25.0117 5.57441 25.0121 5.76345C25.0131 6.2203 25.0135 6.67714 25.0139 7.13399C25.0142 7.34918 25.0144 7.56438 25.0146 7.77957C25.0154 8.49509 25.0161 9.21061 25.0165 9.92613C25.0166 10.1119 25.0166 10.2976 25.0167 10.4833C25.0168 10.5295 25.0168 10.5756 25.0168 10.6232C25.0172 11.3704 25.0184 12.1176 25.0199 12.8649C25.0215 13.6322 25.0223 14.3996 25.0224 15.167C25.0225 15.5977 25.023 16.0285 25.0242 16.4593C25.0252 16.8263 25.0255 17.1932 25.0251 17.5603C25.0249 17.7474 25.025 17.9344 25.0259 18.1215C25.0267 18.2932 25.0267 18.4648 25.0259 18.6365C25.0258 18.7272 25.0265 18.818 25.0273 18.9087C25.022 19.6371 24.771 20.2786 24.2705 20.8108C23.5821 21.4575 22.8505 21.6251 21.9381 21.6198C21.8576 21.62 21.777 21.6203 21.6965 21.6206C21.4769 21.6214 21.2573 21.621 21.0378 21.6205C20.8003 21.62 20.5628 21.6207 20.3253 21.6212C19.8608 21.622 19.3962 21.6219 18.9317 21.6213C18.554 21.6209 18.1763 21.6208 17.7986 21.621C17.7448 21.6211 17.691 21.6211 17.6355 21.6211C17.5261 21.6212 17.4167 21.6212 17.3073 21.6213C16.2826 21.6218 15.2578 21.6212 14.2331 21.6202C13.3546 21.6194 12.4761 21.6195 11.5977 21.6204C10.5765 21.6214 9.55528 21.6218 8.5341 21.6212C8.42512 21.6212 8.31614 21.6211 8.20716 21.621C8.15354 21.621 8.09993 21.621 8.04469 21.6209C7.66764 21.6208 7.29059 21.6211 6.91355 21.6215C6.45378 21.622 5.99403 21.6219 5.53427 21.6209C5.29988 21.6204 5.0655 21.6202 4.83112 21.6208C4.61622 21.6214 4.40134 21.6211 4.18645 21.6201C4.10905 21.6199 4.03165 21.62 3.95424 21.6204C3.08874 21.6251 2.41204 21.4201 1.76791 20.8154C1.14596 20.1861 0.988541 19.5193 0.990047 18.6604C0.989838 18.5854 0.989589 18.5104 0.989303 18.4354C0.98864 18.2298 0.988561 18.0242 0.988581 17.8185C0.988504 17.5966 0.987891 17.3746 0.987353 17.1527C0.986284 16.6677 0.985911 16.1827 0.985674 15.6976C0.985521 15.3947 0.985215 15.0918 0.984877 14.7889C0.98396 13.95 0.983191 13.1111 0.983055 12.2722C0.983046 12.2186 0.983037 12.1649 0.983028 12.1097C0.983011 12.0009 0.982994 11.8921 0.982977 11.7833C0.982968 11.7294 0.98296 11.6754 0.982951 11.6197C0.982943 11.5657 0.982934 11.5116 0.982925 11.4559C0.982759 10.5797 0.981492 9.70338 0.97974 8.8271C0.977955 7.92713 0.977047 7.02717 0.977033 6.12721C0.977006 5.62203 0.976608 5.11685 0.975252 4.61167C0.974103 4.18161 0.973761 3.75155 0.974467 3.32149C0.974803 3.10213 0.974762 2.88278 0.973698 2.66341C0.972732 2.46245 0.972855 2.26152 0.973832 2.06055C0.973996 1.988 0.973767 1.91545 0.973096 1.84291C0.969528 1.43005 0.99224 1.08467 1.23727 0.736569C1.3475 0.630917 1.3475 0.630917 1.45407 0.569577C1.50718 0.537582 1.50718 0.537582 1.56137 0.504941C1.75478 0.406787 1.90867 0.402416 2.12323 0.402022ZM2.1279 1.53344C2.12306 4.4377 2.11823 7.34196 2.11325 10.3342C2.11112 11.2517 2.10898 12.1692 2.10678 13.1145C2.106 13.9359 2.106 13.9359 2.10553 14.7574C2.10531 15.1237 2.10445 15.4899 2.10315 15.8562C2.10166 16.2787 2.10098 16.7012 2.10131 17.1237C2.10145 17.3398 2.10123 17.5559 2.09996 17.772C2.09881 17.9676 2.09876 18.1632 2.09956 18.3588C2.09966 18.4293 2.09937 18.4998 2.09863 18.5703C2.09372 19.0682 2.16251 19.5156 2.46774 19.926C2.98322 20.4181 3.47734 20.4919 4.16445 20.4894C4.24365 20.4897 4.32284 20.49 4.40204 20.4903C4.61923 20.4911 4.83642 20.491 5.05361 20.4907C5.28803 20.4906 5.52244 20.4913 5.75685 20.4918C6.21595 20.4928 6.67505 20.493 7.13415 20.4929C7.50737 20.4929 7.8806 20.4931 8.25382 20.4934C8.36135 20.4935 8.46888 20.4936 8.57641 20.4937C8.62993 20.4938 8.68345 20.4938 8.73859 20.4939C9.75077 20.4947 10.7629 20.4947 11.7751 20.4944C12.7008 20.4941 13.6264 20.4951 14.552 20.4966C15.5027 20.4982 16.4534 20.4989 17.4041 20.4987C17.9378 20.4986 18.4714 20.4989 19.005 20.5C19.4594 20.501 19.9137 20.5012 20.3681 20.5003C20.5998 20.4999 20.8315 20.4998 21.0632 20.5008C21.2756 20.5017 21.4879 20.5014 21.7003 20.5004C21.7768 20.5002 21.8534 20.5004 21.93 20.501C22.4445 20.505 22.9055 20.4481 23.333 20.1311C23.7767 19.6662 23.8993 19.2217 23.8948 18.5925C23.8949 18.5312 23.895 18.4698 23.8952 18.4065C23.8955 18.2369 23.8949 18.0673 23.8942 17.8976C23.8936 17.7144 23.8938 17.5312 23.8939 17.348C23.894 17.0308 23.8936 16.7136 23.8928 16.3964C23.8916 15.9378 23.8913 15.4792 23.8911 15.0206C23.8908 14.2765 23.8898 13.5325 23.8885 12.7884C23.8872 12.0657 23.8862 11.343 23.8856 10.6203C23.8856 10.5757 23.8855 10.5311 23.8855 10.4852C23.8853 10.2616 23.8851 10.038 23.885 9.81446C23.8835 7.96037 23.881 6.10628 23.8779 4.25219C23.3674 4.25219 22.857 4.25219 22.331 4.25219C22.3278 6.02336 22.3253 7.79453 22.3238 9.56571C22.3237 9.77465 22.3235 9.98359 22.3233 10.1925C22.3233 10.2341 22.3232 10.2757 22.3232 10.3186C22.3226 10.9928 22.3215 11.667 22.3202 12.3412C22.3189 13.0326 22.3181 13.724 22.3178 14.4154C22.3176 14.8423 22.317 15.2692 22.3158 15.696C22.3151 15.9885 22.3149 16.2809 22.3151 16.5734C22.3152 16.7423 22.315 16.9112 22.3143 17.0801C22.3135 17.2629 22.3137 17.4458 22.3141 17.6286C22.3137 17.6824 22.3133 17.7361 22.3129 17.7915C22.3132 17.8403 22.3134 17.8891 22.3137 17.9393C22.3137 17.9816 22.3136 18.0238 22.3136 18.0673C22.3347 18.1964 22.3682 18.2369 22.4716 18.3147C22.5964 18.3515 22.5964 18.3515 22.7324 18.3762C22.9765 18.4391 22.9765 18.4391 23.0693 18.5784C23.0879 18.829 23.0669 19.0603 22.9873 19.2991C22.7221 19.425 22.4452 19.4362 22.1644 19.3606C21.8056 19.2297 21.5132 19.0357 21.3357 18.687C21.1786 18.2892 21.1923 17.8615 21.193 17.4409C21.1927 17.3722 21.1925 17.3035 21.1921 17.2348C21.1914 17.0467 21.1912 16.8587 21.1912 16.6706C21.191 16.4645 21.1903 16.2583 21.1896 16.0521C21.1885 15.6523 21.1878 15.2524 21.1872 14.8526C21.1866 14.3899 21.1853 13.9272 21.1841 13.4645C21.1811 12.2433 21.179 11.0222 21.1767 9.80102C21.1709 7.07272 21.1651 4.34442 21.1591 1.53344C14.8788 1.53344 8.59852 1.53344 2.1279 1.53344Z"/>
</mask>
<path d="M2.12323 0.402022C2.1565 0.401897 2.18976 0.401773 2.22403 0.401645C2.33633 0.401284 2.44864 0.401258 2.56094 0.40123C2.64194 0.401042 2.72293 0.400834 2.80393 0.400608C3.02717 0.400046 3.25042 0.399782 3.47366 0.399568C3.71418 0.399289 3.9547 0.398745 4.19522 0.398242C4.77644 0.397091 5.35766 0.396406 5.93888 0.395801C6.103 0.395627 6.26713 0.395441 6.43125 0.39525C7.45011 0.394068 8.46897 0.393034 9.48783 0.392451C9.7239 0.392313 9.95997 0.392175 10.196 0.392033C10.2547 0.391998 10.3134 0.391963 10.3738 0.391927C11.3244 0.391334 12.275 0.389777 13.2255 0.387824C14.2011 0.385836 15.1767 0.384731 16.1523 0.384486C16.7002 0.384326 17.2481 0.383774 17.796 0.382231C18.2626 0.380919 18.7292 0.380403 19.1958 0.380928C19.4338 0.381171 19.6719 0.381034 19.91 0.379874C20.128 0.378821 20.3461 0.378854 20.5641 0.379743C20.6429 0.379875 20.7217 0.379612 20.8004 0.378908C21.2231 0.375366 21.6018 0.378426 21.956 0.642819C22.2676 0.955395 22.3417 1.31186 22.3416 1.74478C22.3412 1.77951 22.3407 1.81425 22.3402 1.85003C22.34 1.90532 22.34 1.90532 22.3398 1.96173C22.3393 2.07776 22.3381 2.19378 22.3369 2.30981C22.3364 2.38919 22.336 2.46856 22.3356 2.54794C22.3346 2.74103 22.333 2.93411 22.331 3.12719C22.4125 3.12535 22.4125 3.12535 22.4957 3.12347C22.6992 3.1192 22.9028 3.11653 23.1064 3.11432C23.1941 3.11315 23.2818 3.11155 23.3696 3.10951C24.3408 3.0875 24.3408 3.0875 24.6748 3.36157C24.9001 3.60626 25.0086 3.79786 25.0092 4.13511C25.0094 4.18906 25.0096 4.24301 25.0098 4.2986C25.0098 4.38792 25.0098 4.38792 25.0098 4.47904C25.01 4.54272 25.0101 4.60641 25.0103 4.6701C25.0108 4.8455 25.011 5.02091 25.0111 5.19632C25.0113 5.38537 25.0117 5.57441 25.0121 5.76345C25.0131 6.2203 25.0135 6.67714 25.0139 7.13399C25.0142 7.34918 25.0144 7.56438 25.0146 7.77957C25.0154 8.49509 25.0161 9.21061 25.0165 9.92613C25.0166 10.1119 25.0166 10.2976 25.0167 10.4833C25.0168 10.5295 25.0168 10.5756 25.0168 10.6232C25.0172 11.3704 25.0184 12.1176 25.0199 12.8649C25.0215 13.6322 25.0223 14.3996 25.0224 15.167C25.0225 15.5977 25.023 16.0285 25.0242 16.4593C25.0252 16.8263 25.0255 17.1932 25.0251 17.5603C25.0249 17.7474 25.025 17.9344 25.0259 18.1215C25.0267 18.2932 25.0267 18.4648 25.0259 18.6365C25.0258 18.7272 25.0265 18.818 25.0273 18.9087C25.022 19.6371 24.771 20.2786 24.2705 20.8108C23.5821 21.4575 22.8505 21.6251 21.9381 21.6198C21.8576 21.62 21.777 21.6203 21.6965 21.6206C21.4769 21.6214 21.2573 21.621 21.0378 21.6205C20.8003 21.62 20.5628 21.6207 20.3253 21.6212C19.8608 21.622 19.3962 21.6219 18.9317 21.6213C18.554 21.6209 18.1763 21.6208 17.7986 21.621C17.7448 21.6211 17.691 21.6211 17.6355 21.6211C17.5261 21.6212 17.4167 21.6212 17.3073 21.6213C16.2826 21.6218 15.2578 21.6212 14.2331 21.6202C13.3546 21.6194 12.4761 21.6195 11.5977 21.6204C10.5765 21.6214 9.55528 21.6218 8.5341 21.6212C8.42512 21.6212 8.31614 21.6211 8.20716 21.621C8.15354 21.621 8.09993 21.621 8.04469 21.6209C7.66764 21.6208 7.29059 21.6211 6.91355 21.6215C6.45378 21.622 5.99403 21.6219 5.53427 21.6209C5.29988 21.6204 5.0655 21.6202 4.83112 21.6208C4.61622 21.6214 4.40134 21.6211 4.18645 21.6201C4.10905 21.6199 4.03165 21.62 3.95424 21.6204C3.08874 21.6251 2.41204 21.4201 1.76791 20.8154C1.14596 20.1861 0.988541 19.5193 0.990047 18.6604C0.989838 18.5854 0.989589 18.5104 0.989303 18.4354C0.98864 18.2298 0.988561 18.0242 0.988581 17.8185C0.988504 17.5966 0.987891 17.3746 0.987353 17.1527C0.986284 16.6677 0.985911 16.1827 0.985674 15.6976C0.985521 15.3947 0.985215 15.0918 0.984877 14.7889C0.98396 13.95 0.983191 13.1111 0.983055 12.2722C0.983046 12.2186 0.983037 12.1649 0.983028 12.1097C0.983011 12.0009 0.982994 11.8921 0.982977 11.7833C0.982968 11.7294 0.98296 11.6754 0.982951 11.6197C0.982943 11.5657 0.982934 11.5116 0.982925 11.4559C0.982759 10.5797 0.981492 9.70338 0.97974 8.8271C0.977955 7.92713 0.977047 7.02717 0.977033 6.12721C0.977006 5.62203 0.976608 5.11685 0.975252 4.61167C0.974103 4.18161 0.973761 3.75155 0.974467 3.32149C0.974803 3.10213 0.974762 2.88278 0.973698 2.66341C0.972732 2.46245 0.972855 2.26152 0.973832 2.06055C0.973996 1.988 0.973767 1.91545 0.973096 1.84291C0.969528 1.43005 0.99224 1.08467 1.23727 0.736569C1.3475 0.630917 1.3475 0.630917 1.45407 0.569577C1.50718 0.537582 1.50718 0.537582 1.56137 0.504941C1.75478 0.406787 1.90867 0.402416 2.12323 0.402022ZM2.1279 1.53344C2.12306 4.4377 2.11823 7.34196 2.11325 10.3342C2.11112 11.2517 2.10898 12.1692 2.10678 13.1145C2.106 13.9359 2.106 13.9359 2.10553 14.7574C2.10531 15.1237 2.10445 15.4899 2.10315 15.8562C2.10166 16.2787 2.10098 16.7012 2.10131 17.1237C2.10145 17.3398 2.10123 17.5559 2.09996 17.772C2.09881 17.9676 2.09876 18.1632 2.09956 18.3588C2.09966 18.4293 2.09937 18.4998 2.09863 18.5703C2.09372 19.0682 2.16251 19.5156 2.46774 19.926C2.98322 20.4181 3.47734 20.4919 4.16445 20.4894C4.24365 20.4897 4.32284 20.49 4.40204 20.4903C4.61923 20.4911 4.83642 20.491 5.05361 20.4907C5.28803 20.4906 5.52244 20.4913 5.75685 20.4918C6.21595 20.4928 6.67505 20.493 7.13415 20.4929C7.50737 20.4929 7.8806 20.4931 8.25382 20.4934C8.36135 20.4935 8.46888 20.4936 8.57641 20.4937C8.62993 20.4938 8.68345 20.4938 8.73859 20.4939C9.75077 20.4947 10.7629 20.4947 11.7751 20.4944C12.7008 20.4941 13.6264 20.4951 14.552 20.4966C15.5027 20.4982 16.4534 20.4989 17.4041 20.4987C17.9378 20.4986 18.4714 20.4989 19.005 20.5C19.4594 20.501 19.9137 20.5012 20.3681 20.5003C20.5998 20.4999 20.8315 20.4998 21.0632 20.5008C21.2756 20.5017 21.4879 20.5014 21.7003 20.5004C21.7768 20.5002 21.8534 20.5004 21.93 20.501C22.4445 20.505 22.9055 20.4481 23.333 20.1311C23.7767 19.6662 23.8993 19.2217 23.8948 18.5925C23.8949 18.5312 23.895 18.4698 23.8952 18.4065C23.8955 18.2369 23.8949 18.0673 23.8942 17.8976C23.8936 17.7144 23.8938 17.5312 23.8939 17.348C23.894 17.0308 23.8936 16.7136 23.8928 16.3964C23.8916 15.9378 23.8913 15.4792 23.8911 15.0206C23.8908 14.2765 23.8898 13.5325 23.8885 12.7884C23.8872 12.0657 23.8862 11.343 23.8856 10.6203C23.8856 10.5757 23.8855 10.5311 23.8855 10.4852C23.8853 10.2616 23.8851 10.038 23.885 9.81446C23.8835 7.96037 23.881 6.10628 23.8779 4.25219C23.3674 4.25219 22.857 4.25219 22.331 4.25219C22.3278 6.02336 22.3253 7.79453 22.3238 9.56571C22.3237 9.77465 22.3235 9.98359 22.3233 10.1925C22.3233 10.2341 22.3232 10.2757 22.3232 10.3186C22.3226 10.9928 22.3215 11.667 22.3202 12.3412C22.3189 13.0326 22.3181 13.724 22.3178 14.4154C22.3176 14.8423 22.317 15.2692 22.3158 15.696C22.3151 15.9885 22.3149 16.2809 22.3151 16.5734C22.3152 16.7423 22.315 16.9112 22.3143 17.0801C22.3135 17.2629 22.3137 17.4458 22.3141 17.6286C22.3137 17.6824 22.3133 17.7361 22.3129 17.7915C22.3132 17.8403 22.3134 17.8891 22.3137 17.9393C22.3137 17.9816 22.3136 18.0238 22.3136 18.0673C22.3347 18.1964 22.3682 18.2369 22.4716 18.3147C22.5964 18.3515 22.5964 18.3515 22.7324 18.3762C22.9765 18.4391 22.9765 18.4391 23.0693 18.5784C23.0879 18.829 23.0669 19.0603 22.9873 19.2991C22.7221 19.425 22.4452 19.4362 22.1644 19.3606C21.8056 19.2297 21.5132 19.0357 21.3357 18.687C21.1786 18.2892 21.1923 17.8615 21.193 17.4409C21.1927 17.3722 21.1925 17.3035 21.1921 17.2348C21.1914 17.0467 21.1912 16.8587 21.1912 16.6706C21.191 16.4645 21.1903 16.2583 21.1896 16.0521C21.1885 15.6523 21.1878 15.2524 21.1872 14.8526C21.1866 14.3899 21.1853 13.9272 21.1841 13.4645C21.1811 12.2433 21.179 11.0222 21.1767 9.80102C21.1709 7.07272 21.1651 4.34442 21.1591 1.53344C14.8788 1.53344 8.59852 1.53344 2.1279 1.53344Z" fill="#424242"/>
<path d="M2.12323 0.402022C2.1565 0.401897 2.18976 0.401773 2.22403 0.401645C2.33633 0.401284 2.44864 0.401258 2.56094 0.40123C2.64194 0.401042 2.72293 0.400834 2.80393 0.400608C3.02717 0.400046 3.25042 0.399782 3.47366 0.399568C3.71418 0.399289 3.9547 0.398745 4.19522 0.398242C4.77644 0.397091 5.35766 0.396406 5.93888 0.395801C6.103 0.395627 6.26713 0.395441 6.43125 0.39525C7.45011 0.394068 8.46897 0.393034 9.48783 0.392451C9.7239 0.392313 9.95997 0.392175 10.196 0.392033C10.2547 0.391998 10.3134 0.391963 10.3738 0.391927C11.3244 0.391334 12.275 0.389777 13.2255 0.387824C14.2011 0.385836 15.1767 0.384731 16.1523 0.384486C16.7002 0.384326 17.2481 0.383774 17.796 0.382231C18.2626 0.380919 18.7292 0.380403 19.1958 0.380928C19.4338 0.381171 19.6719 0.381034 19.91 0.379874C20.128 0.378821 20.3461 0.378854 20.5641 0.379743C20.6429 0.379875 20.7217 0.379612 20.8004 0.378908C21.2231 0.375366 21.6018 0.378426 21.956 0.642819C22.2676 0.955395 22.3417 1.31186 22.3416 1.74478C22.3412 1.77951 22.3407 1.81425 22.3402 1.85003C22.34 1.90532 22.34 1.90532 22.3398 1.96173C22.3393 2.07776 22.3381 2.19378 22.3369 2.30981C22.3364 2.38919 22.336 2.46856 22.3356 2.54794C22.3346 2.74103 22.333 2.93411 22.331 3.12719C22.4125 3.12535 22.4125 3.12535 22.4957 3.12347C22.6992 3.1192 22.9028 3.11653 23.1064 3.11432C23.1941 3.11315 23.2818 3.11155 23.3696 3.10951C24.3408 3.0875 24.3408 3.0875 24.6748 3.36157C24.9001 3.60626 25.0086 3.79786 25.0092 4.13511C25.0094 4.18906 25.0096 4.24301 25.0098 4.2986C25.0098 4.38792 25.0098 4.38792 25.0098 4.47904C25.01 4.54272 25.0101 4.60641 25.0103 4.6701C25.0108 4.8455 25.011 5.02091 25.0111 5.19632C25.0113 5.38537 25.0117 5.57441 25.0121 5.76345C25.0131 6.2203 25.0135 6.67714 25.0139 7.13399C25.0142 7.34918 25.0144 7.56438 25.0146 7.77957C25.0154 8.49509 25.0161 9.21061 25.0165 9.92613C25.0166 10.1119 25.0166 10.2976 25.0167 10.4833C25.0168 10.5295 25.0168 10.5756 25.0168 10.6232C25.0172 11.3704 25.0184 12.1176 25.0199 12.8649C25.0215 13.6322 25.0223 14.3996 25.0224 15.167C25.0225 15.5977 25.023 16.0285 25.0242 16.4593C25.0252 16.8263 25.0255 17.1932 25.0251 17.5603C25.0249 17.7474 25.025 17.9344 25.0259 18.1215C25.0267 18.2932 25.0267 18.4648 25.0259 18.6365C25.0258 18.7272 25.0265 18.818 25.0273 18.9087C25.022 19.6371 24.771 20.2786 24.2705 20.8108C23.5821 21.4575 22.8505 21.6251 21.9381 21.6198C21.8576 21.62 21.777 21.6203 21.6965 21.6206C21.4769 21.6214 21.2573 21.621 21.0378 21.6205C20.8003 21.62 20.5628 21.6207 20.3253 21.6212C19.8608 21.622 19.3962 21.6219 18.9317 21.6213C18.554 21.6209 18.1763 21.6208 17.7986 21.621C17.7448 21.6211 17.691 21.6211 17.6355 21.6211C17.5261 21.6212 17.4167 21.6212 17.3073 21.6213C16.2826 21.6218 15.2578 21.6212 14.2331 21.6202C13.3546 21.6194 12.4761 21.6195 11.5977 21.6204C10.5765 21.6214 9.55528 21.6218 8.5341 21.6212C8.42512 21.6212 8.31614 21.6211 8.20716 21.621C8.15354 21.621 8.09993 21.621 8.04469 21.6209C7.66764 21.6208 7.29059 21.6211 6.91355 21.6215C6.45378 21.622 5.99403 21.6219 5.53427 21.6209C5.29988 21.6204 5.0655 21.6202 4.83112 21.6208C4.61622 21.6214 4.40134 21.6211 4.18645 21.6201C4.10905 21.6199 4.03165 21.62 3.95424 21.6204C3.08874 21.6251 2.41204 21.4201 1.76791 20.8154C1.14596 20.1861 0.988541 19.5193 0.990047 18.6604C0.989838 18.5854 0.989589 18.5104 0.989303 18.4354C0.98864 18.2298 0.988561 18.0242 0.988581 17.8185C0.988504 17.5966 0.987891 17.3746 0.987353 17.1527C0.986284 16.6677 0.985911 16.1827 0.985674 15.6976C0.985521 15.3947 0.985215 15.0918 0.984877 14.7889C0.98396 13.95 0.983191 13.1111 0.983055 12.2722C0.983046 12.2186 0.983037 12.1649 0.983028 12.1097C0.983011 12.0009 0.982994 11.8921 0.982977 11.7833C0.982968 11.7294 0.98296 11.6754 0.982951 11.6197C0.982943 11.5657 0.982934 11.5116 0.982925 11.4559C0.982759 10.5797 0.981492 9.70338 0.97974 8.8271C0.977955 7.92713 0.977047 7.02717 0.977033 6.12721C0.977006 5.62203 0.976608 5.11685 0.975252 4.61167C0.974103 4.18161 0.973761 3.75155 0.974467 3.32149C0.974803 3.10213 0.974762 2.88278 0.973698 2.66341C0.972732 2.46245 0.972855 2.26152 0.973832 2.06055C0.973996 1.988 0.973767 1.91545 0.973096 1.84291C0.969528 1.43005 0.99224 1.08467 1.23727 0.736569C1.3475 0.630917 1.3475 0.630917 1.45407 0.569577C1.50718 0.537582 1.50718 0.537582 1.56137 0.504941C1.75478 0.406787 1.90867 0.402416 2.12323 0.402022ZM2.1279 1.53344C2.12306 4.4377 2.11823 7.34196 2.11325 10.3342C2.11112 11.2517 2.10898 12.1692 2.10678 13.1145C2.106 13.9359 2.106 13.9359 2.10553 14.7574C2.10531 15.1237 2.10445 15.4899 2.10315 15.8562C2.10166 16.2787 2.10098 16.7012 2.10131 17.1237C2.10145 17.3398 2.10123 17.5559 2.09996 17.772C2.09881 17.9676 2.09876 18.1632 2.09956 18.3588C2.09966 18.4293 2.09937 18.4998 2.09863 18.5703C2.09372 19.0682 2.16251 19.5156 2.46774 19.926C2.98322 20.4181 3.47734 20.4919 4.16445 20.4894C4.24365 20.4897 4.32284 20.49 4.40204 20.4903C4.61923 20.4911 4.83642 20.491 5.05361 20.4907C5.28803 20.4906 5.52244 20.4913 5.75685 20.4918C6.21595 20.4928 6.67505 20.493 7.13415 20.4929C7.50737 20.4929 7.8806 20.4931 8.25382 20.4934C8.36135 20.4935 8.46888 20.4936 8.57641 20.4937C8.62993 20.4938 8.68345 20.4938 8.73859 20.4939C9.75077 20.4947 10.7629 20.4947 11.7751 20.4944C12.7008 20.4941 13.6264 20.4951 14.552 20.4966C15.5027 20.4982 16.4534 20.4989 17.4041 20.4987C17.9378 20.4986 18.4714 20.4989 19.005 20.5C19.4594 20.501 19.9137 20.5012 20.3681 20.5003C20.5998 20.4999 20.8315 20.4998 21.0632 20.5008C21.2756 20.5017 21.4879 20.5014 21.7003 20.5004C21.7768 20.5002 21.8534 20.5004 21.93 20.501C22.4445 20.505 22.9055 20.4481 23.333 20.1311C23.7767 19.6662 23.8993 19.2217 23.8948 18.5925C23.8949 18.5312 23.895 18.4698 23.8952 18.4065C23.8955 18.2369 23.8949 18.0673 23.8942 17.8976C23.8936 17.7144 23.8938 17.5312 23.8939 17.348C23.894 17.0308 23.8936 16.7136 23.8928 16.3964C23.8916 15.9378 23.8913 15.4792 23.8911 15.0206C23.8908 14.2765 23.8898 13.5325 23.8885 12.7884C23.8872 12.0657 23.8862 11.343 23.8856 10.6203C23.8856 10.5757 23.8855 10.5311 23.8855 10.4852C23.8853 10.2616 23.8851 10.038 23.885 9.81446C23.8835 7.96037 23.881 6.10628 23.8779 4.25219C23.3674 4.25219 22.857 4.25219 22.331 4.25219C22.3278 6.02336 22.3253 7.79453 22.3238 9.56571C22.3237 9.77465 22.3235 9.98359 22.3233 10.1925C22.3233 10.2341 22.3232 10.2757 22.3232 10.3186C22.3226 10.9928 22.3215 11.667 22.3202 12.3412C22.3189 13.0326 22.3181 13.724 22.3178 14.4154C22.3176 14.8423 22.317 15.2692 22.3158 15.696C22.3151 15.9885 22.3149 16.2809 22.3151 16.5734C22.3152 16.7423 22.315 16.9112 22.3143 17.0801C22.3135 17.2629 22.3137 17.4458 22.3141 17.6286C22.3137 17.6824 22.3133 17.7361 22.3129 17.7915C22.3132 17.8403 22.3134 17.8891 22.3137 17.9393C22.3137 17.9816 22.3136 18.0238 22.3136 18.0673C22.3347 18.1964 22.3682 18.2369 22.4716 18.3147C22.5964 18.3515 22.5964 18.3515 22.7324 18.3762C22.9765 18.4391 22.9765 18.4391 23.0693 18.5784C23.0879 18.829 23.0669 19.0603 22.9873 19.2991C22.7221 19.425 22.4452 19.4362 22.1644 19.3606C21.8056 19.2297 21.5132 19.0357 21.3357 18.687C21.1786 18.2892 21.1923 17.8615 21.193 17.4409C21.1927 17.3722 21.1925 17.3035 21.1921 17.2348C21.1914 17.0467 21.1912 16.8587 21.1912 16.6706C21.191 16.4645 21.1903 16.2583 21.1896 16.0521C21.1885 15.6523 21.1878 15.2524 21.1872 14.8526C21.1866 14.3899 21.1853 13.9272 21.1841 13.4645C21.1811 12.2433 21.179 11.0222 21.1767 9.80102C21.1709 7.07272 21.1651 4.34442 21.1591 1.53344C14.8788 1.53344 8.59852 1.53344 2.1279 1.53344Z" stroke="#424242" stroke-width="0.5" mask="url(#path-1-outside-1_325_917)"/>
<path d="M4.21908 7.34017C4.21829 7.51757 4.21775 7.69494 4.2181 7.87234C4.21857 8.03143 4.21854 8.19051 4.21832 8.3496C4.21795 8.61629 4.21804 8.88298 4.21868 9.14966L4.3779 6.50218C4.32097 6.5774 4.28484 6.62513 4.26172 6.6785C4.22157 6.77121 4.22067 6.88092 4.21821 7.1812L4.21908 7.34017ZM4.21908 7.34017L4.09408 7.33961C4.09408 7.33982 4.09407 7.34002 4.09407 7.34023M4.21908 7.34017L4.09408 7.34084L4.09407 7.34023M4.09407 7.34023C4.09329 7.51751 4.09275 7.695 4.0931 7.8726L4.09311 7.87271C4.09357 8.03155 4.09354 8.19043 4.09332 8.34943C4.09295 8.61626 4.09304 8.8831 4.09368 9.14996L4.09368 9.14998C4.09446 9.45994 4.0947 9.76981 4.09394 10.0796C4.09327 10.3483 4.09293 10.617 4.09319 10.8858L4.09319 10.8858C4.09322 10.9081 4.09325 10.9303 4.09328 10.9525L4.09407 7.34023ZM4.09407 7.34023L4.09321 7.18188L4.09321 7.18018L4.09322 7.18018C4.09328 7.17242 4.09334 7.16478 4.0934 7.15724C4.09513 6.94239 4.09619 6.81153 4.11939 6.71284C4.14547 6.60197 4.19925 6.53099 4.27048 6.43697C4.27304 6.43359 4.27562 6.43019 4.27823 6.42675L4.28867 6.41295L4.30246 6.40251C4.56151 6.20644 4.85853 6.21204 5.11816 6.21694C5.15142 6.21757 5.18407 6.21818 5.21595 6.21836L5.38449 6.21762L5.38462 6.21762L4.09407 7.34023ZM5.48727 7.61156V7.613V7.62143V7.62986V7.63829V7.64672V7.65515V7.66358V7.67201V7.68044V7.68887V7.6973V7.70573V7.71416V7.72259V7.73102V7.73945V7.74788V7.75631V7.76474V7.77317V7.7816V7.79003V7.79846V7.80689V7.81532V7.82375V7.83218V7.84061V7.84904V7.85747V7.86591V7.87434V7.88277V7.8912V7.89963V7.90806V7.91649V7.92493V7.93336V7.94179V7.95022V7.95865V7.96709V7.97552V7.98395V7.99239V8.00082V8.00925V8.01768V8.02612V8.03455V8.04298V8.05142V8.05985V8.06828V8.07672V8.08515V8.09359V8.10202V8.11046V8.11889V8.12733V8.13576V8.1442V8.15263V8.16107V8.1695V8.17794V8.18637V8.19481V8.20325V8.21168V8.22012V8.22856V8.23699V8.24543V8.25387V8.2623V8.27074V8.27918V8.28762V8.29606V8.30449V8.31293V8.32137V8.32981V8.33825V8.34669V8.35513V8.36357V8.37201V8.38045V8.38889V8.39733V8.40577V8.41421V8.42265V8.43109V8.43953V8.44798V8.45642V8.46486V8.4733V8.48175V8.49019V8.49863V8.50708V8.51552V8.52396V8.53241V8.54085V8.5493V8.55774V8.56619V8.57463V8.58308V8.59152V8.59997V8.60842V8.61686V8.62531V8.63376V8.6422V8.65065V8.6591V8.66755V8.676V8.68444V8.69289V8.70134V8.70979V8.71824V8.72669V8.73514V8.74359V8.75204V8.7605V8.76895V8.7774V8.78585V8.7943V8.80276V8.81121V8.81966V8.82812V8.83657V8.84503V8.85348V8.86194V8.87039V8.87885V8.8873V8.89576V8.90422V8.91267V8.92113V8.92959V8.93804V8.9465V8.95496V8.96342V8.97188V8.98034V8.9888V8.99726V9.00572V9.01418V9.02264V9.0311V9.03957V9.04803V9.05649V9.06495V9.07342V9.08188V9.09035V9.09881V9.10728V9.11574V9.12421V9.13267V9.14114V9.14961V9.15807V9.16654V9.17501V9.18348V9.19195V9.20042V9.20889V9.21736V9.22583V9.2343V9.24277V9.25124V9.25971V9.26818V9.27666V9.28513V9.2936V9.30208V9.31055V9.31903V9.3275V9.33598V9.34446V9.35293V9.36141V9.36989V9.37836V9.38684V9.39532V9.4038V9.41228V9.42076V9.42924V9.43772V9.4462V9.45469V9.46317V9.47165V9.48013V9.48862V9.4971V9.50559V9.51407V9.52256V9.53104V9.53953V9.54802V9.5565V9.56499V9.57348V9.58197V9.59046V9.59895V9.60744V9.61593V9.62442V9.63291V9.64141V9.6499V9.65839V9.66689V9.67538V9.68388V9.69237V9.70087V9.70936V9.71786V9.72636V9.73486V9.74335V9.75185V9.76035V9.76885V9.77735V9.78585V9.79436V9.80286V9.81136V9.81986V9.82837V9.83687V9.84538V9.85388V9.86239V9.87089V9.8794V9.88791V9.89642V9.90493V9.91344V9.92194V9.93046V9.93897V9.94748V9.95599V9.9645V9.97302V9.98153V9.99004V9.99856V10.0071V10.0156V10.0241V10.0326V10.0411V10.0497V10.0582V10.0667V10.0752V10.0837V10.0923V10.1008V10.1093V10.1178V10.1264V10.1349V10.1434V10.1519V10.1605V10.169V10.1775V10.186V10.1946V10.2031V10.2116V10.2202V10.2287V10.2372V10.2458V10.2543V10.2628V10.2714V10.2799V10.2884V10.297V10.3055V10.314V10.3226V10.3311V10.3397V10.3482V10.3567V10.3653V10.3738V10.3824V10.3909V10.3994V10.408V10.4165V10.4251V10.4336V10.4422V10.4507V10.4593V10.4678V10.4764V10.4849V10.4935V10.502V10.5106V10.5191V10.5277V10.5362V10.5448V10.5534V10.5619V10.5705V10.579V10.5876V10.5962V10.6047V10.6133V10.6218V10.6304V10.639V10.6475V10.6561V10.6647V10.6732V10.6818V10.6904V10.6989V10.7075V10.7161V10.7246V10.7332V10.7418V10.7504V10.7589V10.7675V10.7761V10.7847V10.7932V10.8018V10.8104V10.819V10.8276V10.8361V10.8447V10.8533V10.8619V10.8705V10.8791V10.8876V10.8962V10.9048V10.9134V10.922V10.9306V10.9392V10.9478V10.9563V10.9649V10.9735V10.9821V10.9907V10.9993V11.0079V11.0165V11.0251V11.0337V11.0423V11.0509V11.0595V11.0681V11.0767V11.0853V11.0939V11.1025V11.1111V11.1197V11.1284V11.137V11.1456V11.1542V11.1628V11.1714V11.18V11.1886V11.1973V11.2059V11.2145V11.2231V11.2317V11.2403V11.249V11.2576V11.2662V11.2748V11.2834V11.2921V11.3007V11.3093V11.318V11.3266V11.3352V11.3438V11.3525V11.3611V11.3697V11.3784V11.387V11.3956V11.4043V11.4129V11.4215V11.4302V11.4388V11.4475V11.4561V11.4647V11.4734V11.482V11.4907V11.4993V11.508V11.5166V11.5253V11.5339V11.5426V11.5512V11.5599V11.5685V11.5772V11.5858V11.5945V11.6031V11.6118V11.6205V11.6291V11.6378V11.6464V11.6551V11.6638V11.6724V11.6811V11.6898V11.6984V11.7071V11.7158V11.7209H5.48871H5.49714H5.50557H5.514H5.52243H5.53086H5.53929H5.54772H5.55615H5.56458H5.57301H5.58144H5.58987H5.5983H5.60673H5.61516H5.62359H5.63202H5.64045H5.64888H5.65731H5.66574H5.67417H5.6826H5.69103H5.69946H5.70789H5.71632H5.72476H5.73319H5.74162H5.75005H5.75848H5.76691H5.77534H5.78377H5.79221H5.80064H5.80907H5.8175H5.82593H5.83437H5.8428H5.85123H5.85966H5.8681H5.87653H5.88496H5.8934H5.90183H5.91026H5.9187H5.92713H5.93556H5.944H5.95243H5.96086H5.9693H5.97773H5.98617H5.9946H6.00304H6.01147H6.01991H6.02834H6.03678H6.04521H6.05365H6.06209H6.07052H6.07896H6.08739H6.09583H6.10427H6.1127H6.12114H6.12958H6.13802H6.14645H6.15489H6.16333H6.17177H6.18021H6.18864H6.19708H6.20552H6.21396H6.2224H6.23084H6.23928H6.24772H6.25616H6.2646H6.27304H6.28148H6.28992H6.29836H6.3068H6.31525H6.32369H6.33213H6.34057H6.34901H6.35746H6.3659H6.37434H6.38279H6.39123H6.39967H6.40812H6.41656H6.42501H6.43345H6.4419H6.45034H6.45879H6.46723H6.47568H6.48413H6.49257H6.50102H6.50947H6.51792H6.52636H6.53481H6.54326H6.55171H6.56016H6.56861H6.57705H6.5855H6.59395H6.6024H6.61085H6.61931H6.62776H6.63621H6.64466H6.65311H6.66156H6.67002H6.67847H6.68692H6.69538H6.70383H6.71228H6.72074H6.72919H6.73765H6.7461H6.75456H6.76301H6.77147H6.77993H6.78838H6.79684H6.8053H6.81376H6.82221H6.83067H6.83913H6.84759H6.85605H6.86451H6.87297H6.88143H6.88989H6.89835H6.90682H6.91528H6.92374H6.9322H6.94067H6.94913H6.95759H6.96606H6.97452H6.98299H6.99145H6.99992H7.00839H7.01685H7.02532H7.03379H7.04225H7.05072H7.05919H7.06766H7.07613H7.0846H7.09307H7.10154H7.11001H7.11848H7.12695H7.13542H7.1439H7.15237H7.16084H7.16932H7.17779H7.18626H7.19474H7.20321H7.21169H7.22017H7.22864H7.23712H7.2456H7.25408H7.26255H7.27103H7.27951H7.28799H7.29647H7.30495H7.31343H7.32192H7.3304H7.33888H7.34736H7.35585H7.36433H7.37281H7.3813H7.38978H7.39827H7.40676H7.41524H7.42373H7.43222H7.4407H7.44919H7.45768H7.46617H7.47466H7.48315H7.49164H7.50013H7.50863H7.51712H7.52561H7.5341H7.5426H7.55109H7.55959H7.56808H7.57658H7.58508H7.59357H7.60207H7.61057H7.61907H7.62756H7.63606H7.64456H7.65306H7.66157H7.67007H7.67857H7.68707H7.69558H7.70408H7.71258H7.72109H7.72959H7.7381H7.74661H7.75511H7.76362H7.77213H7.78064H7.78915H7.79766H7.80617H7.81468H7.82319H7.8317H7.84021H7.84873H7.85724H7.86576H7.87427H7.88279H7.8913H7.89982H7.90834H7.91685H7.92537H7.93389H7.94241H7.95093H7.95945H7.96797H7.9765H7.98502H7.99354H8.00206H8.01059H8.01911H8.02764H8.03617H8.04469H8.05322H8.06175H8.07028H8.07881H8.08734H8.09587H8.1044H8.11293H8.12146H8.13H8.13853H8.14706H8.1556H8.16413H8.17267H8.18121H8.18975H8.19828H8.20682H8.21536H8.2239H8.23244H8.24099H8.24953H8.25807H8.26661H8.27516H8.2837H8.29225H8.3008H8.30934H8.31789H8.32644H8.33499H8.34354H8.35209H8.36064H8.36919H8.37774H8.3863H8.39485H8.4034H8.41196H8.42051H8.42907H8.43763H8.44619H8.45475H8.4633H8.47186H8.48043H8.48899H8.49755H8.50611H8.51468H8.52324H8.53181H8.54037H8.54894H8.55751H8.56607H8.57464H8.58321H8.59178H8.60035H8.60893H8.6175H8.62607H8.63465H8.64322H8.6518H8.66037H8.66895H8.67753H8.68611H8.69469H8.70327H8.71185H8.72043H8.72901H8.73759H8.74618H8.75476H8.76335H8.77193H8.78052H8.78911H8.7977H8.80629H8.81488H8.82347H8.83206H8.84065H8.84925H8.85784H8.86644H8.87503H8.88363H8.89223H8.90082H8.90942H8.91802H8.92662H8.93523H8.94383H8.95243H8.96104H8.96964H8.97825H8.98685H8.99546H9.00407H9.01268H9.02129H9.0299H9.03851H9.04712H9.05573H9.06435H9.07296H9.08158H9.0902H9.09881H9.10743H9.11605H9.12467H9.13329H9.14191H9.15054H9.15916H9.16778H9.17641H9.18504H9.19366H9.20229H9.21092H9.21955H9.22818H9.23681H9.24544H9.25408H9.26271H9.27135H9.27998H9.28862H9.29726H9.30589H9.31453H9.32317H9.33182H9.34046H9.3491H9.35775H9.36639H9.37504H9.38368H9.39233H9.40098H9.40963H9.41828H9.42693H9.43558H9.44424H9.45289H9.46155H9.4702H9.47886H9.48752H9.49618H9.50484H9.5135H9.52216H9.53082H9.53948H9.54815H9.55681H9.56548H9.57415H9.58282H9.59149H9.59665V11.7195V11.7111V11.7026V11.6942V11.6858V11.6773V11.6689V11.6605V11.6521V11.6436V11.6352V11.6268V11.6183V11.6099V11.6015V11.593V11.5846V11.5762V11.5678V11.5593V11.5509V11.5425V11.534V11.5256V11.5172V11.5087V11.5003V11.4919V11.4834V11.475V11.4666V11.4582V11.4497V11.4413V11.4329V11.4244V11.416V11.4076V11.3991V11.3907V11.3823V11.3738V11.3654V11.357V11.3485V11.3401V11.3317V11.3232V11.3148V11.3064V11.2979V11.2895V11.2811V11.2726V11.2642V11.2558V11.2473V11.2389V11.2305V11.222V11.2136V11.2052V11.1967V11.1883V11.1799V11.1714V11.163V11.1546V11.1461V11.1377V11.1292V11.1208V11.1124V11.1039V11.0955V11.0871V11.0786V11.0702V11.0618V11.0533V11.0449V11.0364V11.028V11.0196V11.0111V11.0027V10.9942V10.9858V10.9774V10.9689V10.9605V10.952V10.9436V10.9352V10.9267V10.9183V10.9098V10.9014V10.893V10.8845V10.8761V10.8676V10.8592V10.8507V10.8423V10.8339V10.8254V10.817V10.8085V10.8001V10.7916V10.7832V10.7748V10.7663V10.7579V10.7494V10.741V10.7325V10.7241V10.7156V10.7072V10.6987V10.6903V10.6818V10.6734V10.6649V10.6565V10.648V10.6396V10.6312V10.6227V10.6143V10.6058V10.5974V10.5889V10.5804V10.572V10.5635V10.5551V10.5466V10.5382V10.5297V10.5213V10.5128V10.5044V10.4959V10.4875V10.479V10.4706V10.4621V10.4536V10.4452V10.4367V10.4283V10.4198V10.4114V10.4029V10.3944V10.386V10.3775V10.3691V10.3606V10.3522V10.3437V10.3352V10.3268V10.3183V10.3099V10.3014V10.2929V10.2845V10.276V10.2675V10.2591V10.2506V10.2421V10.2337V10.2252V10.2168V10.2083V10.1998V10.1914V10.1829V10.1744V10.166V10.1575V10.149V10.1405V10.1321V10.1236V10.1151V10.1067V10.0982V10.0897V10.0813V10.0728V10.0643V10.0558V10.0474V10.0389V10.0304V10.0219V10.0135V10.005V9.99651V9.98804V9.97956V9.97108V9.96261V9.95413V9.94565V9.93717V9.92869V9.92021V9.91173V9.90325V9.89477V9.88629V9.87781V9.86933V9.86084V9.85236V9.84388V9.83539V9.82691V9.81842V9.80994V9.80145V9.79296V9.78448V9.77599V9.7675V9.75901V9.75052V9.74203V9.73354V9.72505V9.71656V9.70807V9.69958V9.69109V9.68259V9.6741V9.66561V9.65711V9.64862V9.64012V9.63163V9.62313V9.61463V9.60614V9.59764V9.58914V9.58064V9.57214V9.56364V9.55514V9.54664V9.53814V9.52964V9.52113V9.51263V9.50413V9.49562V9.48712V9.47861V9.47011V9.4616V9.45309V9.44458V9.43608V9.42757V9.41906V9.41055V9.40204V9.39353V9.38502V9.3765V9.36799V9.35948V9.35096V9.34245V9.33393V9.32542V9.3169V9.30839V9.29987V9.29135V9.28283V9.27431V9.26579V9.25727V9.24875V9.24023V9.23171V9.22319V9.21466V9.20614V9.19762V9.18909V9.18057V9.17204V9.16351V9.15498V9.14646V9.13793V9.1294V9.12087V9.11234V9.10381V9.09527V9.08674V9.07821V9.06968V9.06114V9.05261V9.04407V9.03553V9.027V9.01846V9.00992V9.00138V8.99284V8.9843V8.97576V8.96722V8.95868V8.95013V8.94159V8.93305V8.9245V8.91596V8.90741V8.89886V8.89032V8.88177V8.87322V8.86467V8.85612V8.84757V8.83902V8.83046V8.82191V8.81336V8.8048V8.79625V8.78769V8.77913V8.77058V8.76202V8.75346V8.7449V8.73634V8.72778V8.71922V8.71066V8.70209V8.69353V8.68496V8.6764V8.66783V8.65927V8.6507V8.64213V8.63356V8.62499V8.61642V8.60785V8.59928V8.59071V8.58213V8.57356V8.56499V8.55641V8.54783V8.53926V8.53068V8.5221V8.51352V8.50494V8.49636V8.48778V8.4792V8.47061V8.46203V8.45344V8.44486V8.43627V8.42768V8.4191V8.41051V8.40192V8.39333V8.38474V8.37614V8.36755V8.35896V8.35036V8.34177V8.33317V8.32458V8.31598V8.30738V8.29878V8.29018V8.28158V8.27298V8.26438V8.25577V8.24717V8.23857V8.22996V8.22135V8.21275V8.20414V8.19553V8.18692V8.17831V8.1697V8.16108V8.15247V8.14386V8.13524V8.12663V8.11801V8.10939V8.10077V8.09215V8.08353V8.07491V8.06629V8.05767V8.04905V8.04042V8.0318V8.02317V8.01454V8.00592V7.99729V7.98866V7.98003V7.97139V7.96276V7.95413V7.9455V7.93686V7.92822V7.91959V7.91095V7.90231V7.89367V7.88503V7.87639V7.86775V7.8591V7.85046V7.84182V7.83317V7.82452V7.81588V7.80723V7.79858V7.78993V7.78127V7.77262V7.76397V7.75532V7.74666V7.738V7.72935V7.72069V7.71203V7.70337V7.69471V7.68605V7.67738V7.66872V7.66006V7.65139V7.64272V7.63406V7.62539V7.61672V7.61156H5.48727ZM5.48727 7.61156H5.49243H5.5011H5.50977H5.51844H5.5271H5.53577H5.54443H5.5531H5.56176H5.57042H5.57908H5.58774H5.5964H5.60506H5.61372H5.62237H5.63103H5.63968H5.64833H5.65699H5.66564H5.67429H5.68294H5.69159H5.70023H5.70888H5.71753H5.72617H5.73482H5.74346H5.7521H5.76074H5.76938H5.77802H5.78666H5.7953H5.80394H5.81257H5.82121H5.82984H5.83847H5.84711H5.85574H5.86437H5.873H5.88163H5.89025H5.89888H5.90751H5.91613H5.92476H5.93338H5.942H5.95063H5.95925H5.96787H5.97649H5.9851H5.99372H6.00234H6.01095H6.01957H6.02818H6.0368H6.04541H6.05402H6.06263H6.07124H6.07985H6.08846H6.09706H6.10567H6.11428H6.12288H6.13149H6.14009H6.14869H6.15729H6.16589H6.17449H6.18309H6.19169H6.20029H6.20889H6.21748H6.22608H6.23467H6.24326H6.25186H6.26045H6.26904H6.27763H6.28622H6.29481H6.3034H6.31198H6.32057H6.32915H6.33774H6.34632H6.35491H6.36349H6.37207H6.38065H6.38923H6.39781H6.40639H6.41497H6.42354H6.43212H6.4407H6.44927H6.45785H5.48727ZM6.25566 6.21757C6.11793 6.21777 5.98048 6.21798 5.84301 6.21767L10.9916 7.51444L10.9916 7.51431L10.9906 7.34497C10.9906 7.34476 10.9906 7.34456 10.9906 7.34436C10.9907 7.31186 10.9913 7.27853 10.9919 7.24453C10.9966 6.98447 11.002 6.68562 10.8056 6.42666L10.7952 6.41292L10.7815 6.40251C10.778 6.39991 10.7746 6.39733 10.7712 6.39477C10.6772 6.32354 10.6062 6.26976 10.4954 6.24368C10.3967 6.22047 10.2658 6.21942 10.051 6.21769L10.028 6.2175V6.21749L10.0263 6.2175L9.86859 6.21836C9.86839 6.21836 9.86818 6.21836 9.86798 6.21836C9.69069 6.21758 9.51321 6.21704 9.33561 6.21739L9.33549 6.21739C9.17666 6.21786 9.01777 6.21783 8.85878 6.21761C8.59194 6.21724 8.3251 6.21733 8.05824 6.21797L8.05823 6.21797C7.74827 6.21874 7.4384 6.21899 7.12857 6.21823C6.85989 6.21756 6.59117 6.21722 6.32241 6.21747L6.32236 6.21747C6.30012 6.21751 6.27788 6.21754 6.25566 6.21757ZM10.9925 8.35932C10.9922 8.23158 10.9919 8.10409 10.9921 7.97662L10.2285 13.1082L10.2282 12.9832L10.2291 13.1082L10.2288 13.1082C10.4114 13.1077 10.5508 13.0922 10.7253 12.9832L10.7393 12.9745L10.7505 12.9625C10.8632 12.8418 10.9267 12.7248 10.9602 12.5947C10.9924 12.4699 10.9952 12.3379 10.9966 12.1964L10.9965 12.1941L10.9952 12.0346C10.996 11.8559 10.9965 11.677 10.9958 11.4979L10.9958 11.4977C10.995 11.3377 10.9948 11.1776 10.995 11.0173C10.9953 10.7482 10.995 10.4791 10.9939 10.21L10.9939 10.21C10.9927 9.89752 10.992 9.58513 10.9926 9.27279C10.9931 8.96921 10.9932 8.66559 10.9925 8.36194L10.9925 8.35932ZM9.91631 13.1088L9.91673 13.1088L9.91621 12.9838L9.91594 13.1088L9.91631 13.1088ZM8.8924 13.1105C9.02073 13.1102 9.14892 13.11 9.27708 13.1101L4.09338 11.3653C4.09293 11.518 4.09282 11.6707 4.09333 11.8236L4.09333 11.8237L4.09407 11.9923C4.0939 12.0228 4.09339 12.0538 4.09286 12.0852C4.08848 12.348 4.08362 12.6397 4.277 12.9041L4.28886 12.9203L4.3052 12.932C4.43207 13.0227 4.5389 13.0865 4.71396 13.1122L4.72299 13.1135L4.73212 13.1135L4.86125 13.1135H4.86166L5.01036 13.1145L5.01036 13.1145L5.01203 13.1145L5.1734 13.1134C5.17361 13.1134 5.17382 13.1134 5.17404 13.1134C5.35472 13.1139 5.53578 13.1144 5.71694 13.1137L5.71695 13.1137C5.8789 13.113 6.04089 13.1129 6.20299 13.113C6.47483 13.1131 6.74668 13.1128 7.01855 13.112H7.01856C7.33473 13.111 7.65082 13.1104 7.96687 13.1107C8.27368 13.111 8.58052 13.111 8.88738 13.1105L8.8924 13.1105ZM5.38504 6.34256L5.38504 6.34262L5.38504 6.34256Z" fill="#424242" stroke="#424242" stroke-width="0.25"/>
<path d="M5.09194 3.51111V3.51112L5.253 3.51124L5.2532 3.51124L5.42428 3.51082L5.42432 3.51082C5.58156 3.51048 5.73877 3.51035 5.89594 3.51032L5.09194 3.51111ZM5.09194 3.51111L5.09138 3.51112M5.09194 3.51111L5.09138 3.51112M5.09138 3.51112L4.94469 3.51166L4.94487 3.63666L4.9444 3.51166L4.94455 3.51166C4.79233 3.51188 4.6426 3.51655 4.47898 3.57112L4.45997 3.57746L4.44389 3.58942C4.30663 3.69157 4.1943 3.78982 4.13433 3.98715L4.13174 3.9957L4.13038 4.00454C4.11113 4.12998 4.10389 4.24598 4.12497 4.36141C4.14638 4.47863 4.19535 4.58669 4.27618 4.69985L4.2882 4.71669L4.30501 4.72875C4.43182 4.81975 4.53841 4.88331 4.71326 4.90901L4.72234 4.91035L4.73152 4.91034L4.86011 4.91026L5.00936 4.91119L5.00936 4.9112L5.01102 4.91119L5.17396 4.91005C5.35822 4.91054 5.54282 4.91092 5.72752 4.91021H5.72752M5.09138 3.51112L5.72752 4.91021M6.40413 3.50956L6.40415 3.50956C6.77476 3.50893 7.14537 3.50864 7.51592 3.50844L8.20995 3.5079C8.85049 3.50733 9.49105 3.50684 10.1316 3.50669L10.2558 3.50665L10.3804 3.50662L10.6301 3.50656L10.7553 3.50653C11.4246 3.50634 12.0939 3.50553 12.7632 3.50443C13.4504 3.50332 14.1377 3.50274 14.8249 3.50268C15.2107 3.50264 15.5965 3.50237 15.9822 3.50152C16.3108 3.5008 16.6395 3.50056 16.9682 3.50095L6.40413 3.50956ZM6.40413 3.50956C6.38299 3.5096 6.36185 3.50964 6.34072 3.50968M6.40413 3.50956L6.34072 3.50968M17.4708 3.62543L17.4704 3.50043C17.6524 3.49972 17.8343 3.5001 18.0158 3.50059C18.016 3.50059 18.0162 3.50059 18.0164 3.5006L18.1755 3.49945L18.1772 3.49944C18.4634 3.50126 18.6973 3.51843 18.9712 3.67492L18.9932 3.68751L19.0086 3.70769C19.0787 3.79967 19.1252 3.88759 19.1512 3.98482C19.1768 4.08083 19.1803 4.17826 19.1746 4.28521L19.174 4.2972L19.1734 4.29712C19.1556 4.41567 19.1224 4.51179 19.0646 4.59838C19.0082 4.68295 18.9333 4.75088 18.8454 4.81949L18.8356 4.82717L18.8244 4.83275C18.6901 4.89989 18.5887 4.89949 18.4766 4.89905C18.466 4.89901 18.4554 4.89897 18.4445 4.89898C18.4445 4.89898 18.4445 4.89898 18.4444 4.89898L18.2962 4.89953L18.2956 4.89953L18.1313 4.8994L18.1311 4.8994L17.9578 4.89983L17.9577 4.89983C17.7979 4.90016 17.6382 4.90029 17.4785 4.90032L17.4708 3.62543ZM17.4708 3.62543L17.4704 3.50043M17.4708 3.62543L17.4704 3.50043M16.9626 4.90108L16.9626 4.90108C16.5862 4.90172 16.2098 4.902 15.8334 4.90221L15.1288 4.90274C14.4788 4.90332 13.8287 4.9038 13.1787 4.90396L13.0525 4.90399L12.9261 4.90402L12.6725 4.90408L12.5454 4.90411C11.8657 4.9043 11.186 4.90512 10.5063 4.90621C9.80882 4.90732 9.11131 4.9079 8.4138 4.90796C8.02208 4.908 7.63042 4.90827 7.23877 4.90912C6.90508 4.90984 6.57137 4.91008 6.23765 4.9097L16.9626 4.90108ZM16.9626 4.90108L17.0265 4.90096M16.9626 4.90108L17.0265 4.90096M5.72752 4.91021C5.89748 4.90956 6.06749 4.90951 6.23764 4.9097L5.72752 4.91021ZM6.34072 3.50968C6.19241 3.50996 6.04419 3.51024 5.89598 3.51032L6.34072 3.50968ZM17.4704 3.50043C17.3031 3.50108 17.1357 3.50113 16.9682 3.50095L17.4704 3.50043ZM17.0265 4.90096C17.1772 4.90068 17.3279 4.9004 17.4785 4.90032L17.0265 4.90096Z" fill="#424242" stroke="#424242" stroke-width="0.25"/>
<path d="M13.1962 14.3854V14.3854L13.3597 14.3853L13.3601 14.3853L13.5318 14.3846L13.5319 14.3846C13.688 14.384 13.8441 14.3837 14.0002 14.3835C14.0002 14.3835 14.0002 14.3835 14.0002 14.3835L14.2926 14.3829L14.2926 14.3829C14.5976 14.3823 14.9026 14.3818 15.2077 14.3816C15.5596 14.3814 15.9115 14.3806 16.2634 14.3792L16.2635 14.3792C16.5357 14.3782 16.808 14.3778 17.0802 14.3777L13.1962 14.3854ZM13.1962 14.3854L13.1957 14.3854M13.1962 14.3854L13.1957 14.3854M13.1957 14.3854L13.0472 14.3863C13.0471 14.3863 13.0471 14.3863 13.047 14.3863C13.0361 14.3863 13.0252 14.3863 13.0144 14.3862C12.9023 14.386 12.8001 14.3858 12.6658 14.4529L12.6546 14.4585L12.6448 14.4662C12.5163 14.5665 12.3971 14.6671 12.3373 14.8618L12.3345 14.8707L12.3331 14.88C12.3145 15.0042 12.3065 15.1207 12.3271 15.2365C12.3481 15.3545 12.3971 15.4635 12.4805 15.5764L12.4929 15.5932L12.51 15.605C12.7666 15.7823 13.0009 15.7845 13.261 15.7859L13.2627 15.7858L13.4217 15.7845C13.5997 15.7848 13.7778 15.7849 13.9561 15.7841L13.9562 15.7841M13.1957 14.3854L13.9562 15.7841M18.1114 14.3761C17.9303 14.3758 17.7488 14.3756 17.5671 14.3765L17.5671 14.3765C17.4049 14.3774 17.2426 14.3776 17.0802 14.3777L18.1114 14.3761ZM18.1114 14.3761C18.1116 14.3761 18.1118 14.3761 18.112 14.3761L18.2738 14.3748L18.2755 14.3748V14.3748L18.4246 14.3756L18.425 14.3756L18.5545 14.3754L18.5637 14.3754L18.5727 14.3767C18.7482 14.4022 18.8547 14.4654 18.9821 14.5569L18.9989 14.569L19.0109 14.5858C19.0918 14.699 19.1407 14.8071 19.1621 14.9243C19.1831 15.0396 19.1759 15.1556 19.1569 15.2809L19.1556 15.29L19.1529 15.2987C19.093 15.4947 18.9772 15.5942 18.8443 15.6954L18.8278 15.708L18.8081 15.7145C18.6518 15.7666 18.5463 15.7739 18.3946 15.7744L18.3947 15.7744L18.394 15.6495L18.3945 15.7744L18.1114 14.3761ZM13.9562 15.7841C14.1155 15.7833 14.2748 15.783 14.4342 15.783L13.9562 15.7841ZM18.0877 15.7754L18.0872 15.6504L18.0873 15.7754L18.0877 15.7754ZM17.4589 15.7772L17.4587 15.6522L17.4589 15.7772C17.4589 15.7772 17.4589 15.7772 17.4589 15.7772Z" fill="#424242" stroke="#424242" stroke-width="0.25"/>
<path d="M4.99241 14.3849V14.3849L5.15569 14.3845L5.15608 14.3845L5.32754 14.3836L5.32761 14.3836C5.51611 14.3827 5.70458 14.3821 5.89296 14.3816C5.89296 14.3816 5.89297 14.3816 5.89298 14.3816C5.89299 14.3816 5.893 14.3816 5.89301 14.3816L6.08751 14.3811L6.08752 14.3811C6.39233 14.3802 6.69714 14.3795 7.00196 14.3791C7.35344 14.3787 7.70492 14.3774 8.05643 14.3755L8.05645 14.3755C8.32852 14.3741 8.60057 14.3734 8.87259 14.3733L4.99241 14.3849ZM4.99241 14.3849L4.99185 14.3849M4.99241 14.3849L4.99185 14.3849M4.99185 14.3849L4.84356 14.3859C4.84351 14.3859 4.84347 14.3859 4.84343 14.3859C4.83254 14.386 4.82177 14.386 4.8111 14.3859C4.69895 14.3859 4.59682 14.3858 4.46267 14.4529L4.4515 14.4585L4.44166 14.4661C4.31314 14.5664 4.19402 14.667 4.13414 14.8617L4.13139 14.8707L4.13 14.8799C4.11135 15.0042 4.10339 15.1207 4.12397 15.2365C4.14496 15.3545 4.19402 15.4635 4.27737 15.5764L4.28978 15.5932L4.307 15.6051C4.56278 15.7814 4.79621 15.7847 5.05593 15.7869L5.05593 15.7869L5.05763 15.7869L5.21598 15.786C5.39327 15.7868 5.57075 15.7873 5.74835 15.787L5.74847 15.787C5.9073 15.7865 6.06619 15.7865 6.22519 15.7868C6.49202 15.7871 6.75886 15.787 7.02572 15.7864L7.02573 15.7864C7.3357 15.7856 7.64557 15.7854 7.9554 15.7861C8.22407 15.7868 8.4928 15.7871 8.76155 15.7869H8.76161C8.78385 15.7869 8.80608 15.7868 8.8283 15.7868C8.96606 15.7866 9.10354 15.7864 9.24103 15.7867C9.39372 15.7871 9.54649 15.7873 9.69934 15.7867L9.69947 15.7867L9.86803 15.786C9.88514 15.7861 9.90224 15.7862 9.91934 15.7864C10.1536 15.7882 10.388 15.7899 10.6384 15.6965L10.6531 15.6911L10.666 15.6821C10.7493 15.6243 10.8102 15.5666 10.8582 15.4948C10.9047 15.4251 10.9349 15.3483 10.9648 15.2618L10.9699 15.2471L10.9712 15.2317L10.9714 15.2296C10.9879 15.038 11.0057 14.8317 10.8525 14.6298L10.8453 14.6202L10.8363 14.6122C10.7135 14.5023 10.5969 14.4392 10.4672 14.4056C10.3422 14.3732 10.2107 14.3699 10.0667 14.3689L10.0645 14.369L9.90279 14.3708M4.99185 14.3849L9.90279 14.3708M9.90279 14.3708C9.72183 14.3705 9.54038 14.3703 9.35879 14.3716L9.35878 14.3716C9.19682 14.3727 9.0348 14.3731 8.87261 14.3733L9.90279 14.3708Z" fill="#424242" stroke="#424242" stroke-width="0.25"/>
<path d="M13.2424 6.22919V6.22919L13.4025 6.22903L13.4029 6.22903L13.5716 6.22833L13.5716 6.22833C13.7249 6.22776 13.8781 6.22741 14.0313 6.2272C14.0313 6.2272 14.0313 6.2272 14.0313 6.2272L14.3183 6.22666L14.3183 6.22666C14.618 6.22602 14.9176 6.22557 15.2173 6.22539C15.5627 6.22518 15.9082 6.22435 16.2536 6.223L16.2536 6.223C16.5211 6.22198 16.7885 6.22151 17.0559 6.22145L13.2424 6.22919ZM13.2424 6.22919L13.2418 6.22919M13.2424 6.22919L13.2418 6.22919M13.2418 6.22919L13.0957 6.23L13.0961 6.355L13.0954 6.23L13.0956 6.23C12.9439 6.23051 12.8384 6.23778 12.6821 6.28987L12.6624 6.29644L12.6458 6.30903C12.5129 6.41035 12.3951 6.5097 12.3382 6.70971L12.3359 6.71812L12.3347 6.72678C12.3062 6.93244 12.2854 7.14818 12.4296 7.36773L12.4384 7.3811L12.4503 7.39183C12.5728 7.50254 12.6898 7.56568 12.8198 7.5992C12.945 7.63148 13.0768 7.63449 13.2203 7.63545L13.2225 7.63543L13.3843 7.63362C13.5652 7.63394 13.7467 7.63414 13.9282 7.63284L13.9283 7.63284M13.2418 6.22919L13.9283 7.63284M17.534 6.22028L17.5341 6.22028C17.7124 6.21948 17.8905 6.21957 18.0685 6.21987C18.0687 6.21988 18.0689 6.21988 18.0691 6.21988L18.2275 6.21857L18.2292 6.21856C18.4893 6.21996 18.7236 6.22209 18.9802 6.39937L18.9973 6.41122L19.0097 6.42798C19.093 6.5409 19.1421 6.64991 19.1631 6.76792C19.1836 6.88369 19.1757 7.00021 19.157 7.12446L19.1557 7.13371L19.1529 7.14265C19.093 7.33735 18.9739 7.43794 18.8454 7.53825L18.8355 7.54593L18.8244 7.55151C18.6902 7.61859 18.5881 7.61852 18.4759 7.61844C18.4653 7.61844 18.4545 7.61843 18.4436 7.61848C18.4436 7.61848 18.4435 7.61848 18.4435 7.61848L18.2952 7.6195L18.2946 7.6195L18.1314 7.61988L18.131 7.61988L17.9595 7.62081L17.9594 7.62081C17.7709 7.62174 17.5825 7.62229 17.3941 7.62275C17.3941 7.62275 17.394 7.62275 17.394 7.62275L17.1995 7.62333L17.1995 7.62333C16.8947 7.62423 16.5899 7.62489 16.2851 7.62528C15.9336 7.62574 15.5821 7.62697 15.2306 7.62887L15.2306 7.62887C14.9585 7.63028 14.6865 7.63098 14.4144 7.63113L17.534 6.22028ZM17.534 6.22028C17.3747 6.22112 17.2154 6.2214 17.0559 6.22145L17.534 6.22028ZM13.9283 7.63284C14.0902 7.63166 14.2522 7.63124 14.4144 7.63113L13.9283 7.63284Z" fill="#424242" stroke="#424242" stroke-width="0.25"/>
<path d="M14.4583 18.3767C14.3017 18.3767 14.1451 18.3771 13.9885 18.3779M14.4583 18.3767L14.4584 18.5017C14.3019 18.5017 14.1455 18.5021 13.9891 18.5029L13.9891 18.5029C13.8141 18.5037 13.6392 18.5036 13.4645 18.5033L13.3089 18.5046L13.3072 18.5046C13.0219 18.503 12.7912 18.4843 12.5192 18.3296L12.4971 18.317L12.4816 18.2967C12.4115 18.2047 12.365 18.1168 12.339 18.0196C12.3133 17.9235 12.3099 17.8261 12.3156 17.7192L12.3162 17.7072L12.3168 17.7073C12.3346 17.5887 12.3678 17.4926 12.4255 17.406C12.4819 17.3214 12.5568 17.2535 12.6448 17.1849L12.6546 17.1772L12.6658 17.1716C12.7999 17.1046 12.902 17.1046 13.0142 17.1047C13.0249 17.1047 13.0356 17.1047 13.0465 17.1047C13.0466 17.1047 13.0466 17.1047 13.0466 17.1047L13.1949 17.1036L13.1955 17.1036V17.1036L13.3588 17.1033L13.3592 17.1033L13.5306 17.1023L13.5307 17.1023C13.7192 17.1014 13.9077 17.1009 14.096 17.1004C14.0961 17.1004 14.0961 17.1004 14.0961 17.1004C14.0961 17.1004 14.0961 17.1004 14.0961 17.1004L14.2906 17.0998L14.2906 17.0998C14.5954 17.0989 14.9002 17.0982 15.2051 17.0979C15.5565 17.0974 15.908 17.0962 16.2595 17.0943L16.2595 17.0943C16.5316 17.0929 16.8037 17.0922 17.0757 17.092L13.9885 18.3779M14.4583 18.3767C14.7208 18.3766 14.9833 18.3762 15.2457 18.3751L14.4584 18.5017L14.4583 18.3767ZM13.9885 18.3779C13.8137 18.3787 13.6389 18.3786 13.4641 18.3783L13.9885 18.3779ZM18.1059 17.0895C17.9249 17.0892 17.7435 17.089 17.5619 17.0903L17.5619 17.0903C17.3999 17.0915 17.2379 17.0919 17.0757 17.092L18.1059 17.0895ZM18.1059 17.0895L18.2676 17.0877L18.2698 17.0877C18.4133 17.0887 18.5452 17.0917 18.6704 17.1239C18.8004 17.1575 18.9173 17.2206 19.0398 17.3313L19.0517 17.342L19.0605 17.3554C19.2048 17.5749 19.1841 17.7907 19.1553 17.9966L19.1541 18.005L19.1518 18.0132C19.0949 18.2146 18.9805 18.3127 18.8432 18.415L18.827 18.427L18.808 18.4333C18.6457 18.4872 18.4973 18.4926 18.3459 18.4931L18.3461 18.4931L18.3454 18.3681L18.3458 18.4931L18.1059 17.0895ZM18.0448 18.4941L18.0443 18.3691L18.0444 18.4941L18.0448 18.4941ZM17.3338 18.4961L17.3335 18.3711L17.3337 18.4961C17.3337 18.4961 17.3338 18.4961 17.3338 18.4961C17.3338 18.4961 17.3338 18.4961 17.3338 18.4961Z" fill="#424242" stroke="#424242" stroke-width="0.25"/>
<path d="M5.00443 17.0978V17.0978L5.16668 17.0979L5.33818 17.097L5.33828 17.097C5.49394 17.0962 5.64955 17.0959 5.80512 17.0958L5.00443 17.0978ZM5.00443 17.0978L5.00331 17.0978M5.00443 17.0978L5.00331 17.0978M5.00331 17.0978L4.85464 17.099M5.00331 17.0978L8.87648 17.0901C9.03837 17.0901 9.20009 17.0898 9.36175 17.0888L9.36177 17.0888C9.54291 17.0878 9.7239 17.0882 9.90441 17.0888L10.0657 17.0872L10.0679 17.0871C10.2117 17.0883 10.343 17.0919 10.4678 17.1244C10.5973 17.1582 10.7136 17.2213 10.8362 17.3308L10.8452 17.3389L10.8525 17.3485C11.0057 17.5504 10.9879 17.7568 10.9714 17.9483L10.9712 17.9504L10.97 17.9648L10.9655 17.9785C10.9345 18.0732 10.9035 18.155 10.8509 18.2264C10.7966 18.3 10.7264 18.3533 10.633 18.4067L10.6253 18.4111L10.6171 18.4144C10.3743 18.5108 10.1256 18.5077 9.89848 18.5048C9.87319 18.5045 9.84818 18.5042 9.82347 18.504L9.65746 18.5045L9.65733 18.5045C9.47574 18.5049 9.29424 18.5042 9.11309 18.5036C8.99784 18.5035 8.88258 18.5035 8.76723 18.5036L8.73505 18.5036H8.735C8.47074 18.5037 8.20652 18.5032 7.94233 18.5023C7.63754 18.5013 7.33272 18.5011 7.02783 18.5014H7.02782C6.73371 18.5017 6.43964 18.5014 6.14561 18.5009C6.02086 18.5007 5.89609 18.5007 5.77127 18.5007H5.7712C5.59669 18.5008 5.42225 18.5002 5.24795 18.4994L5.09177 18.4998L5.09062 18.4998L5.09062 18.4998L4.94704 18.4987L4.94646 18.4987L4.82224 18.4985L4.80974 18.4984L4.8098 18.4978C4.60664 18.477 4.45328 18.4072 4.29489 18.2972L4.2772 18.2849L4.26465 18.2674C4.11992 18.0659 4.09637 17.8737 4.11261 17.6494L4.11376 17.6335L4.11885 17.6184C4.1776 17.4445 4.26447 17.285 4.44234 17.1702L4.45346 17.163L4.46585 17.1583C4.60841 17.1043 4.72118 17.0995 4.85464 17.099M4.85464 17.099C4.85473 17.099 4.85483 17.099 4.85492 17.099L4.85538 17.224L4.85436 17.099L4.85464 17.099ZM8.06148 17.0917L8.0615 17.0917C8.33318 17.0905 8.60484 17.09 8.87647 17.0901L8.06148 17.0917ZM8.06148 17.0917C7.7457 17.0932 7.43003 17.0942 7.1144 17.0942C6.77508 17.0941 6.43576 17.0945 6.09643 17.0953C5.9993 17.0956 5.90222 17.0958 5.80516 17.0958L8.06148 17.0917Z" fill="#424242" stroke="#424242" stroke-width="0.25"/>
<path d="M13.2424 11.6667V11.6667L13.4025 11.6665L13.4029 11.6665L13.5716 11.6658L13.5716 11.6658C13.7249 11.6653 13.8781 11.6649 14.0313 11.6647C14.0313 11.6647 14.0313 11.6647 14.0313 11.6647L14.3183 11.6642L14.3183 11.6642C14.618 11.6635 14.9176 11.6631 15.2173 11.6629C15.5627 11.6627 15.9082 11.6619 16.2536 11.6605L16.2537 11.6605C16.5211 11.6595 16.7885 11.659 17.0559 11.6589L13.2424 11.6667ZM13.2424 11.6667L13.2418 11.6667M13.2424 11.6667L13.2418 11.6667M13.2418 11.6667L13.0957 11.6675L13.0961 11.7925L13.0954 11.6675L13.0956 11.6675C12.9439 11.668 12.8384 11.6753 12.6821 11.7274L12.6624 11.7339L12.6459 11.7465C12.5561 11.8149 12.4809 11.8831 12.4245 11.9683C12.3671 12.0553 12.3347 12.1517 12.3168 12.2696L12.3162 12.2695L12.3156 12.2815C12.3096 12.3892 12.3141 12.4864 12.3402 12.5821C12.3665 12.6786 12.4127 12.766 12.4804 12.8577L12.4928 12.8745L12.5099 12.8863C12.7665 13.0636 13.0008 13.0657 13.2609 13.0671L13.2626 13.0671L13.4216 13.0658C13.5996 13.0661 13.7777 13.0662 13.956 13.0654L13.9561 13.0654M13.2418 11.6667L13.9561 13.0654M18.0685 11.6574C17.8905 11.6571 17.7124 11.657 17.5341 11.6578L17.534 11.6578C17.3747 11.6586 17.2154 11.6589 17.0559 11.6589L18.0685 11.6574ZM18.0685 11.6574C18.0687 11.6574 18.0689 11.6574 18.0691 11.6574L18.2275 11.6561L18.2292 11.6561C18.4893 11.6575 18.7236 11.6596 18.9802 11.8369L18.9973 11.8487L19.0097 11.8655C19.0774 11.9572 19.1236 12.0445 19.1499 12.141C19.176 12.2368 19.1805 12.334 19.1745 12.4417L19.1739 12.4537L19.1733 12.4536C19.1554 12.5714 19.123 12.6679 19.0656 12.7548C19.0092 12.8401 18.934 12.9082 18.8442 12.9766L18.8277 12.9892L18.808 12.9958C18.6517 13.0479 18.5462 13.0552 18.3945 13.0557L18.3947 13.0557L18.394 12.9307L18.3944 13.0557L18.0685 11.6574ZM17.4588 13.0585L17.4586 12.9335L17.4588 13.0585M17.4588 13.0585L14.4342 13.0642C14.7016 13.0642 14.969 13.0637 15.2364 13.0627H15.2365C15.5819 13.0613 15.9274 13.0605 16.2728 13.0603C16.5725 13.0601 16.8721 13.0596 17.1718 13.059L17.1718 13.059L17.4588 13.0585M17.4588 13.0585C17.4588 13.0585 17.4588 13.0585 17.4588 13.0585M17.4588 13.0585H17.4588M13.9561 13.0654C14.1154 13.0645 14.2747 13.0643 14.4342 13.0642L13.9561 13.0654ZM18.0876 13.0566L18.0871 12.9316L18.0872 13.0566L18.0876 13.0566Z" fill="#424242" stroke="#424242" stroke-width="0.25"/>
<path d="M13.2424 8.94794V8.94794L13.4025 8.94778L13.4029 8.94778L13.5716 8.94708L13.5716 8.94708C13.7249 8.94651 13.8781 8.94616 14.0313 8.94595C14.0313 8.94595 14.0313 8.94595 14.0313 8.94595L14.3183 8.94541L14.3183 8.94541C14.618 8.94477 14.9176 8.94432 15.2173 8.94414C15.5627 8.94393 15.9082 8.9431 16.2536 8.94175L16.2537 8.94175C16.5211 8.94073 16.7885 8.94026 17.0559 8.9402L13.2424 8.94794ZM13.2424 8.94794L13.2418 8.94794M13.2424 8.94794L13.2418 8.94794M13.2418 8.94794L13.0957 8.94875L13.0961 9.07375L13.0954 8.94875L13.0956 8.94875C12.9439 8.94926 12.8384 8.95653 12.6821 9.00862L12.6624 9.01519L12.6459 9.02778C12.5561 9.09617 12.4809 9.16431 12.4245 9.24959C12.3671 9.33653 12.3347 9.43299 12.3168 9.55084L12.3162 9.55075L12.3156 9.56274C12.3096 9.67047 12.3141 9.76763 12.3402 9.86338C12.3665 9.95988 12.4127 10.0473 12.4804 10.1389L12.4928 10.1557L12.5099 10.1675C12.7665 10.3448 13.0008 10.347 13.2609 10.3484L13.2626 10.3483L13.4216 10.347C13.5996 10.3473 13.7777 10.3474 13.956 10.3466L13.9561 10.3466M13.2418 8.94794L13.9561 10.3466M18.0685 8.93862C17.8905 8.93832 17.7124 8.93823 17.5341 8.93903L17.534 8.93903C17.3747 8.93987 17.2154 8.94015 17.0559 8.9402L18.0685 8.93862ZM18.0685 8.93862C18.0687 8.93863 18.0689 8.93863 18.0691 8.93863L18.2275 8.93732L18.2292 8.93731C18.4893 8.93871 18.7236 8.94084 18.9802 9.11812L18.9973 9.12997L19.0097 9.14673C19.0774 9.23841 19.1236 9.32579 19.1499 9.42229C19.176 9.51804 19.1805 9.6152 19.1745 9.72293L19.1739 9.73492L19.1733 9.73483C19.1554 9.85268 19.123 9.94913 19.0656 10.0361C19.0092 10.1214 18.934 10.1895 18.8442 10.2579L18.8277 10.2705L18.808 10.277C18.6517 10.3291 18.5462 10.3364 18.3945 10.3369L18.3947 10.3369L18.394 10.2119L18.3944 10.3369L18.0685 8.93862ZM17.4588 10.3397L17.4586 10.2147L17.4588 10.3397M17.4588 10.3397L14.4342 10.3455C14.7016 10.3454 14.969 10.3449 15.2364 10.3439H15.2365C15.5819 10.3426 15.9274 10.3417 16.2728 10.3415C16.5725 10.3414 16.8721 10.3409 17.1718 10.3403L17.1718 10.3403L17.4588 10.3397M17.4588 10.3397C17.4588 10.3397 17.4588 10.3397 17.4588 10.3397M17.4588 10.3397H17.4588M13.9561 10.3466C14.1154 10.3458 14.2747 10.3455 14.4342 10.3455L13.9561 10.3466ZM18.0876 10.3379L18.0871 10.2129L18.0872 10.3379L18.0876 10.3379Z" fill="#424242" stroke="#424242" stroke-width="0.25"/>
</svg>
