<svg width="24" height="24" viewBox="0 0 24 24" fill="none" xmlns="http://www.w3.org/2000/svg">
<path d="M14.7511 0.766385C14.9252 0.901119 15.082 1.04686 15.2366 1.20339C15.2681 1.23381 15.2996 1.26423 15.332 1.29557C15.7668 1.74655 15.9781 2.37154 15.976 2.98992C15.976 3.0255 15.976 3.06107 15.976 3.09773C15.976 3.21385 15.9752 3.32996 15.9744 3.44608C15.9743 3.52718 15.9741 3.60827 15.974 3.68936C15.9737 3.9017 15.9727 4.11403 15.9716 4.32636C15.9706 4.54347 15.9702 4.76058 15.9697 4.97769C15.9687 5.40288 15.967 5.82806 15.965 6.25324C15.9977 6.25281 16.0304 6.25238 16.0642 6.25194C16.4093 6.24759 16.7543 6.24469 17.0994 6.24257C17.2277 6.24172 17.356 6.24029 17.4842 6.23859C19.0523 6.2184 20.3454 6.49335 21.5004 7.61282C21.544 7.65113 21.544 7.65113 21.5886 7.69021C22.3208 8.35622 22.7432 9.41964 22.86 10.3805C22.862 10.4908 22.862 10.6012 22.86 10.7115C22.86 10.7726 22.8601 10.8337 22.8601 10.8967C22.86 11.0242 22.8584 11.1517 22.8552 11.2791C22.8476 11.6119 22.8476 11.6119 23.0017 11.8901C23.1133 11.9628 23.2259 12.0217 23.3455 12.08C23.707 12.4 23.8945 12.7734 23.9767 13.2453C23.9817 13.3313 23.9844 13.4175 23.9853 13.5036C23.986 13.554 23.9866 13.6045 23.9872 13.6564C23.9878 13.7376 23.9878 13.7376 23.9883 13.8204C23.9887 13.8768 23.9891 13.9332 23.9895 13.9912C23.9902 14.1106 23.9907 14.2299 23.9911 14.3492C23.9916 14.4704 23.9926 14.5916 23.9941 14.7128C23.9962 14.8888 23.9969 15.0647 23.9974 15.2407C23.9983 15.294 23.9991 15.3474 24 15.4023C23.9985 15.9512 23.8801 16.4822 23.4912 16.8871C23.3089 17.0645 23.138 17.213 22.9085 17.3241C22.9078 17.3702 22.9078 17.3702 22.9071 17.4172C22.8807 18.8512 22.5744 20.0687 21.5975 21.16C21.5582 21.2053 21.5582 21.2053 21.5182 21.2514C20.7434 22.0886 19.5507 22.569 18.4268 22.622C18.117 22.6304 17.8072 22.6282 17.4973 22.6268C17.3937 22.6267 17.2901 22.6266 17.1865 22.6266C16.9647 22.6265 16.7429 22.6261 16.5211 22.6256C16.1701 22.6247 15.819 22.6249 15.468 22.6253C14.4704 22.6262 13.4727 22.6265 12.475 22.6242C11.923 22.6229 11.371 22.6229 10.819 22.6242C10.5274 22.6248 10.2357 22.6248 9.94409 22.6233C9.67003 22.6219 9.39601 22.6221 9.12195 22.6234C9.02162 22.6236 8.92128 22.6233 8.82095 22.6223C8.08013 22.6147 8.08013 22.6147 7.46762 23.0052C7.05309 23.2547 6.57457 23.4213 6.10804 23.5393C6.06529 23.5502 6.02254 23.5612 5.9785 23.5725C4.74849 23.8298 3.37669 23.5892 2.32065 22.908C1.24599 22.1586 0.449697 21.1334 0.135622 19.849C0.124731 19.8069 0.11384 19.7647 0.102619 19.7213C-0.137413 18.5919 0.0534436 17.4192 0.572628 16.4015C0.598604 16.3502 0.62458 16.2989 0.651343 16.246C0.885691 15.8166 1.19826 15.436 1.54375 15.0905C1.55856 14.9417 1.55856 14.9417 1.55597 14.7633C1.55611 14.7292 1.55626 14.6952 1.55641 14.6601C1.55678 14.5455 1.55646 14.4309 1.55615 14.3162C1.55629 14.2342 1.55646 14.1522 1.55669 14.0702C1.55708 13.8933 1.55718 13.7163 1.55708 13.5393C1.55694 13.2588 1.55764 12.9783 1.55848 12.6979C1.56077 11.9001 1.56193 11.1024 1.56225 10.3047C1.56243 9.8644 1.56331 9.42412 1.56492 8.98384C1.5659 8.70573 1.56602 8.42764 1.56549 8.14953C1.56536 7.97527 1.56605 7.80101 1.56695 7.62675C1.56721 7.54675 1.56714 7.46673 1.56671 7.38673C1.56104 6.25073 1.89663 5.26819 2.68293 4.4265C3.2465 3.89848 3.94764 3.59745 4.66521 3.33819C4.85211 3.27063 5.03857 3.20185 5.22512 3.13331C5.28476 3.11146 5.28476 3.11146 5.34561 3.08916C5.82559 2.91306 6.30364 2.73188 6.78176 2.55083C6.87468 2.51568 6.96759 2.48053 7.06051 2.44539C7.24845 2.37431 7.43639 2.30319 7.62431 2.23206C7.89875 2.12818 8.17319 2.02435 8.44766 1.92055C8.5146 1.89523 8.5146 1.89523 8.58289 1.8694C8.80729 1.78455 9.03171 1.69977 9.25618 1.61511C9.30073 1.59831 9.34529 1.5815 9.3912 1.56419C9.48199 1.52994 9.57279 1.49571 9.66359 1.46147C9.96455 1.34792 10.2653 1.23378 10.5659 1.11937C10.7793 1.03827 10.9927 0.957484 11.2061 0.87675C11.3084 0.837999 11.4106 0.799116 11.5127 0.760092C11.655 0.705759 11.7974 0.651903 11.9399 0.598146C11.9815 0.582151 12.023 0.566157 12.0658 0.549678C12.9729 0.209806 13.9169 0.240766 14.7511 0.766385ZM12.6965 2.03795C12.6591 2.05082 12.6217 2.06369 12.5832 2.07694C12.1437 2.23078 11.7096 2.3996 11.2751 2.567C10.6519 2.80708 10.0272 3.04329 9.40219 3.27859C9.18053 3.36203 8.95891 3.44556 8.73731 3.52915C8.60839 3.57777 8.47947 3.6264 8.35055 3.67502C8.31839 3.68715 8.28623 3.69928 8.25309 3.71177C7.85785 3.86082 7.46248 4.00954 7.06695 4.15781C6.80841 4.25474 6.54997 4.35193 6.2916 4.44929C6.13917 4.50671 5.98668 4.56397 5.8341 4.62098C4.3863 5.11422 4.3863 5.11422 3.38889 6.20469C3.2536 6.50143 3.1881 6.76563 3.19163 7.09084C3.19229 7.16933 3.19229 7.16933 3.19296 7.24941C3.19352 7.28921 3.19409 7.32902 3.19467 7.37004C3.24236 7.33915 3.24236 7.33915 3.29102 7.30764C3.43638 7.21422 3.58258 7.12222 3.72879 7.03014C3.77316 7.0011 3.81754 6.97206 3.86326 6.94214C4.14832 6.76353 4.43395 6.63616 4.7515 6.52941C4.78643 6.51764 4.82136 6.50587 4.85735 6.49374C5.4265 6.31227 5.98137 6.28704 6.57363 6.28632C6.65886 6.28587 6.74409 6.28537 6.82932 6.28484C7.05922 6.28352 7.28912 6.28278 7.51903 6.28215C7.75984 6.28139 8.00065 6.28009 8.24146 6.27885C8.69681 6.27658 9.15216 6.27479 9.60751 6.27318C10.1262 6.27132 10.6449 6.26892 11.1635 6.26648C12.2299 6.26147 13.2963 6.25713 14.3626 6.25324C14.3671 5.81046 14.3706 5.36768 14.3727 4.92488C14.3737 4.71924 14.3751 4.51361 14.3773 4.30798C14.3794 4.10932 14.3805 3.91067 14.381 3.712C14.3814 3.63642 14.3821 3.56085 14.3831 3.48528C14.3893 3.02552 14.3866 2.67636 14.0781 2.31013C13.6406 1.9386 13.2524 1.84165 12.6965 2.03795ZM4.88807 8.17729C4.85525 8.19399 4.82242 8.2107 4.78861 8.22792C4.49134 8.38577 4.2527 8.58341 4.02012 8.82673C3.98031 8.86428 3.98031 8.86428 3.9397 8.9026C3.75802 9.08814 3.64356 9.31109 3.52546 9.5399C3.50927 9.57073 3.49308 9.60156 3.4764 9.63332C3.2012 10.19 3.17418 10.7503 3.18044 11.3585C3.18071 11.4371 3.18092 11.5158 3.18107 11.5944C3.18162 11.7994 3.18304 12.0044 3.18466 12.2093C3.18617 12.4193 3.18682 12.6293 3.18755 12.8393C3.18911 13.2498 3.19159 13.6603 3.19467 14.0708C3.24737 14.0573 3.30007 14.0439 3.35437 14.03C3.42455 14.0122 3.49473 13.9945 3.56491 13.9767C3.61683 13.9634 3.61683 13.9634 3.6698 13.9499C4.97387 13.6209 6.33858 13.7971 7.501 14.4625C8.62102 15.1336 9.4151 16.2093 9.74976 17.4697C10.0056 18.5392 9.91603 19.7037 9.46089 20.7027C9.41544 20.8073 9.38727 20.9039 9.36131 21.0143C10.5381 21.0189 11.7149 21.0223 12.8917 21.0244C13.4382 21.0254 13.9847 21.0268 14.5311 21.029C15.0077 21.0309 15.4843 21.0322 15.9609 21.0326C16.213 21.0329 16.4651 21.0335 16.7172 21.0349C16.955 21.0362 17.1929 21.0366 17.4307 21.0363C17.5175 21.0364 17.6042 21.0368 17.691 21.0375C18.7213 21.046 19.6144 20.8218 20.3836 20.0918C21.0139 19.436 21.2772 18.6458 21.2651 17.7509C21.2631 17.6572 21.2604 17.5634 21.2576 17.4697C21.2124 17.469 21.1671 17.4683 21.1205 17.4676C20.9496 17.4646 20.7786 17.461 20.6077 17.457C20.5343 17.4554 20.4609 17.454 20.3875 17.4529C19.4343 17.4381 18.5619 17.2431 17.8587 16.5472C17.4154 16.0336 17.1355 15.43 17.0818 14.7506C17.0791 14.7189 17.0765 14.6871 17.0738 14.6544C17.0423 13.8916 17.3152 13.1581 17.8222 12.5929C18.3162 12.0699 18.9949 11.7115 19.7196 11.6761C19.7913 11.6741 19.863 11.6726 19.9346 11.6714C19.9728 11.6705 20.011 11.6696 20.0503 11.6686C20.1705 11.6657 20.2907 11.6634 20.4109 11.6612C20.4931 11.6593 20.5753 11.6574 20.6576 11.6555C20.8576 11.6509 21.0576 11.6468 21.2576 11.643C21.2836 10.5927 21.2015 9.65755 20.4625 8.84797C19.8989 8.26023 19.1413 7.86817 18.3183 7.83727C18.2248 7.83648 18.1313 7.83646 18.0379 7.8371C17.9859 7.83688 17.9338 7.83665 17.8802 7.83641C17.7076 7.83584 17.5349 7.83629 17.3623 7.83675C17.2378 7.83655 17.1133 7.83629 16.9889 7.83598C16.6869 7.83538 16.3849 7.83547 16.083 7.83589C15.8374 7.83622 15.5918 7.83627 15.3462 7.83611C15.3112 7.83609 15.2761 7.83606 15.24 7.83604C15.1687 7.83599 15.0975 7.83595 15.0262 7.8359C14.3595 7.83548 13.6927 7.83596 13.0259 7.83674C12.4548 7.83739 11.8837 7.83728 11.3125 7.83661C10.648 7.83583 9.98348 7.83552 9.31896 7.83597C9.24799 7.83602 9.17702 7.83606 9.10605 7.83611C9.07114 7.83613 9.03623 7.83615 9.00026 7.83618C8.7552 7.8363 8.51014 7.83609 8.26507 7.83575C7.93475 7.83529 7.60444 7.83562 7.27412 7.83646C7.15316 7.83665 7.03219 7.8366 6.91123 7.83628C6.7456 7.83588 6.58 7.83638 6.41438 7.8371C6.36697 7.83678 6.31957 7.83645 6.27073 7.83612C5.78275 7.84023 5.32186 7.95343 4.88807 8.17729ZM18.8783 13.7795C18.6845 14.0803 18.6011 14.4207 18.6536 14.7752C18.7518 15.1743 18.9781 15.4435 19.3184 15.6671C19.6544 15.8703 19.9724 15.8829 20.3553 15.8837C20.435 15.8842 20.435 15.8842 20.5163 15.8847C20.6283 15.8852 20.7402 15.8854 20.8522 15.8854C21.0238 15.8856 21.1955 15.8874 21.3671 15.8892C21.476 15.8895 21.5848 15.8897 21.6937 15.8898C21.7451 15.8905 21.7965 15.8912 21.8495 15.8919C21.8972 15.8916 21.9448 15.8913 21.9939 15.891C22.0568 15.8912 22.0568 15.8912 22.121 15.8914C22.2352 15.8759 22.2352 15.8759 22.3151 15.7828C22.3815 15.66 22.3928 15.5879 22.3932 15.4492C22.3939 15.383 22.3939 15.383 22.3946 15.3156C22.3943 15.2683 22.394 15.2211 22.3937 15.1724C22.3939 15.1236 22.394 15.0747 22.3942 15.0244C22.3943 14.9212 22.394 14.8181 22.3934 14.7149C22.3926 14.5569 22.3934 14.3991 22.3943 14.2411C22.3942 14.1409 22.394 14.0406 22.3937 13.9403C22.394 13.8931 22.3943 13.8458 22.3946 13.7971C22.3942 13.7531 22.3937 13.709 22.3932 13.6636C22.3931 13.6056 22.3931 13.6056 22.3929 13.5464C22.369 13.4082 22.3291 13.3432 22.2287 13.2453C22.1155 13.2163 22.1155 13.2163 21.9866 13.221C21.9373 13.2205 21.888 13.2201 21.8372 13.2196C21.7573 13.2204 21.7573 13.2204 21.6758 13.2213C21.6209 13.2212 21.566 13.2211 21.5094 13.221C21.393 13.2211 21.2767 13.2217 21.1603 13.2227C20.983 13.2241 20.8057 13.2237 20.6284 13.2231C20.5152 13.2234 20.4021 13.2238 20.2889 13.2243C20.2362 13.2241 20.1834 13.224 20.129 13.2239C19.5979 13.2304 19.2363 13.3757 18.8783 13.7795ZM2.65372 16.2674C2.01097 16.8882 1.6533 17.6925 1.62131 18.5827C1.60831 19.503 1.91379 20.3404 2.54978 21.0104C3.20805 21.67 4.03289 22.0486 4.96697 22.0583C5.79616 22.0489 6.55329 21.7579 7.17628 21.2086C7.21271 21.1767 7.24914 21.1449 7.28667 21.112C7.87896 20.5592 8.27456 19.7799 8.30939 18.9653C8.32558 17.9802 8.10439 17.1441 7.41906 16.4015C6.07838 15.0454 4.08273 15.0291 2.65372 16.2674Z" fill="#424242"/>
<path d="M7.07065 10.6468C7.11885 10.6463 7.11885 10.6463 7.16802 10.6458C7.27504 10.6449 7.38201 10.6454 7.48904 10.6459C7.56603 10.6456 7.64302 10.6451 7.72001 10.6446C7.92868 10.6436 8.13734 10.6437 8.34602 10.6441C8.52038 10.6444 8.69474 10.644 8.86911 10.6437C9.28052 10.6428 9.69193 10.643 10.1033 10.6438C10.5275 10.6447 10.9515 10.6439 11.3756 10.6423C11.7401 10.641 12.1046 10.6407 12.469 10.6411C12.6865 10.6413 12.9041 10.6412 13.1216 10.6402C13.3262 10.6393 13.5307 10.6396 13.7353 10.6408C13.8103 10.641 13.8852 10.6409 13.9601 10.6403C14.5963 10.6354 14.5963 10.6354 14.8167 10.787C15.0221 10.9909 15.0981 11.1559 15.1152 11.4426C15.1071 11.7003 15.0243 11.8916 14.8482 12.0799C14.6544 12.2205 14.5174 12.244 14.2799 12.2448C14.2478 12.2451 14.2157 12.2454 14.1826 12.2457C14.0754 12.2465 13.9683 12.2462 13.8611 12.246C13.7842 12.2464 13.7072 12.2468 13.6302 12.2473C13.4213 12.2483 13.2124 12.2485 13.0036 12.2484C12.8291 12.2484 12.6546 12.2488 12.4801 12.2492C12.0684 12.2501 11.6567 12.2503 11.245 12.2499C10.8205 12.2496 10.3961 12.2507 9.97162 12.2525C9.60695 12.254 9.24229 12.2546 8.87762 12.2544C8.65993 12.2543 8.44225 12.2545 8.22456 12.2557C8.01978 12.2568 7.81503 12.2567 7.61024 12.2557C7.53522 12.2556 7.46019 12.2558 7.38517 12.2565C6.74832 12.262 6.74832 12.262 6.52791 12.1105C6.3208 11.9048 6.24649 11.7409 6.23247 11.4518C6.24112 11.2015 6.29641 11.0654 6.44794 10.866C6.66051 10.6971 6.80043 10.6475 7.07065 10.6468Z" fill="#424242"/>
<path d="M5.44343 16.4804C5.62549 16.6413 5.75064 16.8069 5.78367 17.0497C5.78719 17.1731 5.78517 17.2949 5.78029 17.4182C5.77941 17.4606 5.77854 17.5031 5.77764 17.5469C5.77537 17.6507 5.77188 17.7545 5.76815 17.8582C5.8238 17.8571 5.87944 17.856 5.93677 17.8548C6.01106 17.8539 6.08535 17.853 6.15964 17.8521C6.19616 17.8513 6.23268 17.8505 6.27031 17.8497C6.56842 17.8471 6.8283 17.8693 7.06703 18.0646C7.25563 18.2951 7.34922 18.4855 7.33561 18.7833C7.30265 19.0117 7.19849 19.1595 7.02758 19.3058C6.8479 19.4396 6.7743 19.4666 6.55529 19.4653C6.5096 19.4652 6.46391 19.465 6.41683 19.4648C6.36901 19.4644 6.32119 19.464 6.27192 19.4636C6.22373 19.4634 6.17553 19.4632 6.12587 19.4629C6.00663 19.4624 5.88739 19.4616 5.76815 19.4606C5.76891 19.4899 5.76968 19.5193 5.77046 19.5496C5.77351 19.6838 5.77539 19.818 5.77726 19.9522C5.77848 19.9984 5.7797 20.0446 5.78095 20.0922C5.78411 20.3954 5.76305 20.6175 5.54965 20.8514C5.31986 21.0304 5.15161 21.0839 4.86569 21.0792C4.66256 21.051 4.50259 20.9667 4.36002 20.8201C4.1589 20.5296 4.1406 20.2672 4.15366 19.9219C4.15453 19.8773 4.15541 19.8327 4.15631 19.7868C4.15858 19.678 4.16176 19.5693 4.16579 19.4606C4.12175 19.4621 4.12175 19.4621 4.07681 19.4637C3.94261 19.4677 3.80841 19.4702 3.67416 19.4727C3.62797 19.4743 3.58178 19.476 3.53418 19.4776C3.24884 19.4816 3.07872 19.4623 2.85478 19.2663C2.67993 19.0584 2.59973 18.8589 2.61199 18.5866C2.65351 18.3706 2.72951 18.2063 2.89423 18.0585C3.18369 17.8655 3.43427 17.8447 3.77127 17.8521C3.82836 17.8528 3.82836 17.8528 3.8866 17.8535C3.97967 17.8546 4.07273 17.8564 4.16579 17.8582C4.16354 17.7996 4.16129 17.741 4.15897 17.6807C4.15714 17.6023 4.15538 17.5239 4.15366 17.4455C4.15203 17.4071 4.1504 17.3686 4.14872 17.329C4.14409 17.0462 4.19596 16.8299 4.36002 16.5958C4.70018 16.3194 5.05027 16.2876 5.44343 16.4804Z" fill="#424242"/>
</svg>
