<svg width="24" height="22" viewBox="0 0 24 22" fill="none" xmlns="http://www.w3.org/2000/svg">
<path d="M10.7393 0.0157219C10.8306 0.014719 10.8306 0.014719 10.9238 0.0136959C10.9894 0.0133112 11.0551 0.0129264 11.1227 0.01253C11.1905 0.0121095 11.2584 0.0116891 11.3283 0.0112559C11.472 0.0104744 11.6157 0.00996146 11.7594 0.00956697C11.9422 0.00899274 12.125 0.00720291 12.3078 0.00513057C12.4836 0.00342922 12.6593 0.00320529 12.8351 0.00276351C12.9001 0.00185155 12.9651 0.000939594 13.0321 0C13.6683 0.00156726 14.1301 0.189766 14.5878 0.630463C14.9104 0.978942 15.0798 1.40124 15.0787 1.87421C15.0787 1.93155 15.0787 1.98889 15.0787 2.04797C15.0785 2.10956 15.0782 2.17115 15.0779 2.23461C15.0778 2.32954 15.0778 2.32954 15.0777 2.4264C15.0774 2.62861 15.0768 2.83081 15.0761 3.03301C15.0758 3.17008 15.0756 3.30715 15.0754 3.44422C15.0748 3.78029 15.0739 4.11635 15.0728 4.45241C15.1687 4.45171 15.1687 4.45171 15.2666 4.45101C15.8726 4.44676 16.4787 4.44365 17.0848 4.44161C17.3962 4.44053 17.7077 4.43907 18.0192 4.43669C18.3205 4.43441 18.6217 4.43318 18.923 4.43264C19.0373 4.43226 19.1515 4.43151 19.2658 4.43038C20.094 4.42249 20.9173 4.45114 21.6619 4.85934C21.6961 4.87722 21.7303 4.89511 21.7655 4.91353C22.0412 5.06185 22.285 5.23679 22.5214 5.44208C22.574 5.48183 22.6267 5.52157 22.6809 5.56253C23.4598 6.27517 23.9232 7.30598 23.9859 8.35669C23.9958 8.63676 23.9946 8.91693 23.9942 9.19713C23.9944 9.29081 23.9947 9.38449 23.995 9.47816C23.9957 9.73097 23.9957 9.98378 23.9956 10.2366C23.9955 10.4485 23.9958 10.6603 23.996 10.8722C23.9966 11.3726 23.9966 11.8729 23.9963 12.3732C23.996 12.8875 23.9966 13.4017 23.9977 13.9159C23.9987 14.3592 23.999 14.8024 23.9988 15.2456C23.9987 15.5096 23.9988 15.7735 23.9996 16.0375C24.0002 16.286 24.0001 16.5344 23.9994 16.7829C23.9993 16.8735 23.9994 16.964 23.9999 17.0545C24.0059 18.4001 23.6736 19.5778 22.7153 20.5657C21.8779 21.3569 20.8812 21.7103 19.7464 21.7074C19.6777 21.7076 19.609 21.7079 19.5382 21.7081C19.3484 21.7088 19.1587 21.7087 18.9689 21.7086C18.7638 21.7086 18.5588 21.7092 18.3537 21.7097C17.9523 21.7105 17.5509 21.7108 17.1495 21.7109C16.823 21.7109 16.4964 21.7111 16.1699 21.7115C15.243 21.7124 14.3161 21.7129 13.3892 21.7128C13.3143 21.7128 13.3143 21.7128 13.2379 21.7128C13.1879 21.7128 13.1379 21.7128 13.0864 21.7128C12.2769 21.7127 11.4675 21.7137 10.658 21.7152C9.82569 21.7167 8.99339 21.7174 8.16109 21.7173C7.69428 21.7173 7.22747 21.7176 6.76066 21.7187C6.36308 21.7196 5.9655 21.7199 5.56792 21.7192C5.36537 21.7188 5.16283 21.7188 4.96028 21.7197C3.46034 21.726 2.31122 21.5181 1.18003 20.4682C0.395198 19.6616 0.0107247 18.5973 0.0121358 17.4807C0.011981 17.4416 0.0118263 17.4025 0.0116669 17.3622C0.0112184 17.2323 0.0111361 17.1023 0.011058 16.9724C0.0108167 16.8788 0.0105549 16.7851 0.0102744 16.6915C0.00959332 16.4378 0.0092552 16.1841 0.00902336 15.9304C0.00887026 15.7716 0.00865631 15.6127 0.00842408 15.4539C0.00771237 14.9559 0.00720917 14.4579 0.00700776 13.9599C0.0067747 13.387 0.00586144 12.814 0.00435075 12.2411C0.00322085 11.797 0.00269944 11.3529 0.00263001 10.9088C0.00257569 10.6441 0.00227341 10.3794 0.00133688 10.1148C0.000471652 9.86545 0.000369611 9.61612 0.00082344 9.36677C0.00086321 9.2759 0.000642144 9.18503 0.000122428 9.09417C-0.00679008 7.80888 0.277768 6.66701 1.17128 5.69519C1.99342 4.88497 3.03226 4.44201 4.18401 4.44649C4.23537 4.44649 4.28673 4.44648 4.33964 4.44647C4.50874 4.44651 4.67784 4.44691 4.84693 4.44732C4.96444 4.44742 5.08194 4.44749 5.19944 4.44754C5.50823 4.44774 5.81701 4.44825 6.1258 4.44883C6.44108 4.44936 6.75637 4.4496 7.07165 4.44986C7.68993 4.45042 8.3082 4.45131 8.92647 4.45241C8.92601 4.41779 8.92554 4.38317 8.92507 4.3475C8.92043 3.98497 8.91731 3.62245 8.91502 3.25989C8.91398 3.12486 8.91256 2.98982 8.91075 2.85479C8.90821 2.65992 8.90704 2.46509 8.90612 2.27021C8.90505 2.2105 8.90397 2.1508 8.90286 2.08928C8.90269 1.45758 9.08951 0.960797 9.53382 0.510213C9.88716 0.187456 10.2612 0.0203057 10.7393 0.0157219ZM10.6454 1.84802C10.6091 2.04315 10.6152 2.23515 10.6199 2.43299C10.6202 2.48403 10.6205 2.53507 10.6207 2.58765C10.6221 2.77844 10.6257 2.96921 10.6291 3.15998C10.6345 3.58648 10.6398 4.01298 10.6454 4.45241C11.5392 4.45241 12.433 4.45241 13.3539 4.45241C13.3593 4.02591 13.3647 3.5994 13.3702 3.15998C13.3726 3.02543 13.375 2.89089 13.3774 2.75227C13.3782 2.64584 13.3788 2.53941 13.3794 2.43299C13.3807 2.37755 13.382 2.32212 13.3834 2.265C13.3924 1.97418 13.3924 1.97418 13.2531 1.73462C13.0323 1.6753 12.8265 1.66942 12.5987 1.671C12.5511 1.67085 12.5035 1.6707 12.4545 1.67055C12.3542 1.67044 12.2538 1.67073 12.1535 1.67138C12.0002 1.67222 11.8469 1.67139 11.6936 1.67039C11.596 1.67049 11.4983 1.67069 11.4006 1.671C11.3549 1.67068 11.3093 1.67037 11.2622 1.67004C10.9182 1.66672 10.9182 1.66672 10.6454 1.84802ZM2.26818 7.11133C1.75393 7.76064 1.72275 8.47357 1.72404 9.26775C1.72382 9.35969 1.72355 9.45163 1.72324 9.54357C1.72254 9.79228 1.72251 10.041 1.72264 10.2897C1.7227 10.4978 1.72244 10.706 1.72219 10.9141C1.72162 11.4054 1.72159 11.8967 1.72191 12.3881C1.72222 12.8937 1.72158 13.3994 1.72047 13.9051C1.71955 14.3403 1.71924 14.7755 1.71941 15.2107C1.7195 15.4702 1.71937 15.7297 1.71864 15.9891C1.71799 16.2333 1.71809 16.4775 1.71877 16.7216C1.71889 16.8108 1.71875 16.9 1.71832 16.9892C1.71441 17.8588 1.83472 18.6363 2.45232 19.2921C3.14708 19.9289 3.92759 20.0349 4.83153 20.0336C4.89527 20.0338 4.959 20.0339 5.02466 20.034C5.20046 20.0343 5.37626 20.0343 5.55206 20.0342C5.7421 20.0342 5.93213 20.0345 6.12217 20.0348C6.49407 20.0352 6.86598 20.0353 7.23788 20.0354C7.54035 20.0354 7.84281 20.0355 8.14527 20.0357C9.0038 20.0361 9.86232 20.0364 10.7208 20.0363C10.7902 20.0363 10.7902 20.0363 10.8609 20.0363C10.9072 20.0363 10.9535 20.0363 11.0012 20.0363C11.7512 20.0363 12.5011 20.0368 13.2511 20.0375C14.0221 20.0383 14.7932 20.0386 15.5642 20.0386C15.9967 20.0386 16.4291 20.0387 16.8616 20.0393C17.2299 20.0398 17.5981 20.0399 17.9664 20.0395C18.154 20.0393 18.3417 20.0393 18.5293 20.0398C18.7333 20.0403 18.9373 20.0399 19.1413 20.0395C19.2291 20.0399 19.2291 20.0399 19.3186 20.0404C20.1527 20.0368 20.9244 19.891 21.5454 19.294C22.0451 18.7381 22.2666 18.1405 22.2683 17.3956C22.2684 17.3573 22.2686 17.3189 22.2687 17.2795C22.2692 17.1516 22.2693 17.0237 22.2693 16.8959C22.2696 16.804 22.2698 16.712 22.2701 16.6201C22.2708 16.3708 22.2712 16.1214 22.2714 15.872C22.2715 15.716 22.2717 15.56 22.272 15.404C22.2727 14.9154 22.2732 14.4267 22.2734 13.9381C22.2736 13.3751 22.2745 12.8121 22.2761 12.2491C22.2772 11.8132 22.2777 11.3774 22.2778 10.9415C22.2778 10.6815 22.2781 10.4215 22.2791 10.1615C22.2799 9.91673 22.28 9.67193 22.2796 9.42712C22.2795 9.33767 22.2798 9.24823 22.2803 9.15879C22.285 8.28331 22.1682 7.53517 21.5382 6.881C20.9408 6.31997 20.2939 6.13855 19.4786 6.1452C19.4116 6.14491 19.3446 6.14462 19.2756 6.14433C19.0916 6.14356 18.9077 6.14408 18.7237 6.14483C18.5246 6.14542 18.3254 6.14479 18.1263 6.14432C17.737 6.1436 17.3477 6.14399 16.9584 6.14477C16.5045 6.14565 16.0507 6.14548 15.5969 6.14529C14.7869 6.14498 13.977 6.14572 13.1671 6.147C12.382 6.14825 11.5969 6.14862 10.8118 6.14807C9.95572 6.14748 9.09962 6.14738 8.24352 6.14813C8.15218 6.14821 8.06084 6.14829 7.9695 6.14837C7.92456 6.14841 7.87963 6.14845 7.83333 6.14849C7.51729 6.14873 7.20126 6.14864 6.88522 6.14842C6.49999 6.14816 6.11476 6.14847 5.72953 6.1495C5.53314 6.15002 5.33675 6.15029 5.14036 6.14987C4.92719 6.14944 4.71404 6.15022 4.50086 6.15111C4.43921 6.1508 4.37755 6.15049 4.31402 6.15016C3.45771 6.1567 2.83624 6.47529 2.26818 7.11133Z" fill="#424242"/>
<path d="M9.76733 14.1174C10.6551 14.7879 11.2584 15.7402 11.4462 16.8395C11.5528 17.7249 11.5528 17.7249 11.3225 18.0473C11.0349 18.3288 10.8358 18.3815 10.4399 18.3777C10.2125 18.3521 10.0628 18.275 9.91614 18.0994C9.7728 17.8615 9.73654 17.6647 9.7143 17.3897C9.66279 16.8792 9.50087 16.4279 9.18691 16.0159C9.15146 15.9654 9.11601 15.9149 9.07948 15.8629C8.70374 15.4251 8.08845 15.1647 7.52661 15.0848C6.80082 15.0413 6.15031 15.2846 5.59285 15.7457C5.07349 16.2487 4.87215 16.9045 4.82497 17.6113C4.79686 17.8698 4.68725 18.0289 4.49575 18.1938C4.21397 18.4036 3.95845 18.3986 3.61352 18.3598C3.39613 18.272 3.28371 18.1565 3.16263 17.9578C2.89049 17.2933 3.17445 16.4332 3.41493 15.7978C3.90839 14.6908 4.81599 13.9568 5.92268 13.5256C7.21962 13.1044 8.66409 13.3198 9.76733 14.1174Z" fill="#424242"/>
<path d="M8.80805 8.22264C9.41144 8.65185 9.80783 9.24443 9.96822 9.97368C10.0436 10.8678 9.88865 11.5633 9.3511 12.2918C8.91137 12.8018 8.28842 13.1167 7.62427 13.2031C6.80326 13.2586 6.05505 13.053 5.4203 12.5162C4.8955 12.0125 4.59275 11.3557 4.54234 10.6289C4.53538 9.79934 4.8179 9.11174 5.38409 8.50892C6.3067 7.61503 7.74922 7.53388 8.80805 8.22264ZM6.48485 9.863C6.29397 10.1437 6.24533 10.3587 6.2944 10.6905C6.37062 11.0116 6.534 11.1988 6.80226 11.3829C7.01651 11.4966 7.22872 11.5042 7.46801 11.4842C7.78927 11.3811 8.01053 11.1897 8.19724 10.9113C8.29182 10.6275 8.30905 10.3277 8.19418 10.0475C8.02496 9.77101 7.83581 9.59205 7.52009 9.50489C7.11416 9.43736 6.76133 9.55579 6.48485 9.863Z" fill="#424242"/>
<path d="M13.4352 16.1125C13.4954 16.1121 13.5557 16.1117 13.6177 16.1113C13.6839 16.1112 13.75 16.1111 13.8182 16.1109C13.8885 16.1106 13.9589 16.1102 14.0292 16.1099C14.2602 16.1088 14.4912 16.1082 14.7223 16.1077C14.8018 16.1075 14.8814 16.1073 14.961 16.1071C15.3347 16.1061 15.7085 16.1053 16.0823 16.1049C16.5137 16.1044 16.945 16.103 17.3763 16.1009C17.7098 16.0994 18.0433 16.0986 18.3768 16.0984C18.576 16.0983 18.7751 16.0978 18.9742 16.0965C19.1616 16.0953 19.349 16.0951 19.5364 16.0956C19.6377 16.0956 19.7391 16.0947 19.8404 16.0936C20.3953 16.0969 20.3953 16.0969 20.6462 16.3285C20.877 16.5904 20.9223 16.739 20.9179 17.0817C20.8968 17.3301 20.8046 17.4752 20.6267 17.6437C20.3964 17.7972 20.2103 17.852 19.9341 17.853C19.8751 17.8534 19.8162 17.8538 19.7555 17.8543C19.6913 17.8543 19.6272 17.8542 19.5611 17.8542C19.4591 17.8547 19.4591 17.8547 19.3552 17.8552C19.1691 17.8561 18.983 17.8564 18.7969 17.8565C18.6805 17.8565 18.5641 17.8567 18.4477 17.857C18.0413 17.858 17.6349 17.8584 17.2284 17.8583C16.8502 17.8583 16.472 17.8594 16.0938 17.861C15.7686 17.8624 15.4433 17.8629 15.1181 17.8629C14.9241 17.8628 14.7301 17.8631 14.536 17.8642C14.3195 17.8654 14.1029 17.865 13.8864 17.8643C13.8225 17.8649 13.7587 17.8655 13.6929 17.8661C13.3299 17.8634 13.0879 17.8301 12.781 17.6307C12.5638 17.3578 12.492 17.145 12.5205 16.7973C12.6148 16.5226 12.7411 16.3313 12.9893 16.1722C13.1516 16.1181 13.2649 16.1132 13.4352 16.1125Z" fill="#424242"/>
<path d="M13.3867 13.3514C13.4782 13.3507 13.4782 13.3507 13.5717 13.35C13.6722 13.3497 13.6722 13.3497 13.7749 13.3494C13.8461 13.3489 13.9174 13.3485 13.9887 13.3481C14.2228 13.3467 14.457 13.3459 14.6911 13.3452C14.7718 13.3449 14.8524 13.3446 14.9331 13.3443C15.2687 13.3432 15.6043 13.3422 15.9398 13.3416C16.4205 13.3408 16.9011 13.3391 17.3817 13.3361C17.7198 13.3341 18.0579 13.3331 18.396 13.3328C18.5978 13.3326 18.7997 13.332 19.0015 13.3303C19.1915 13.3287 19.3815 13.3284 19.5715 13.329C19.6741 13.329 19.7768 13.3277 19.8794 13.3264C20.2583 13.3291 20.4716 13.3551 20.7504 13.6198C20.9112 13.8429 20.937 14.0525 20.9284 14.3212C20.8925 14.5392 20.7965 14.7093 20.6462 14.8699C20.4509 15.0084 20.318 15.0458 20.0797 15.0464C19.9878 15.0472 19.9878 15.0472 19.8941 15.048C19.8273 15.0477 19.7606 15.0475 19.6918 15.0473C19.6204 15.0476 19.549 15.0479 19.4776 15.0483C19.2841 15.0493 19.0907 15.0492 18.8971 15.0489C18.7355 15.0488 18.5738 15.0491 18.4121 15.0494C18.0307 15.0501 17.6492 15.05 17.2677 15.0494C16.8744 15.0488 16.4812 15.0496 16.088 15.051C15.75 15.0521 15.4121 15.0525 15.0742 15.0522C14.8725 15.052 14.6708 15.0521 14.4691 15.053C14.2794 15.0538 14.0897 15.0536 13.9 15.0526C13.7974 15.0524 13.6948 15.0531 13.5923 15.0539C13.0313 15.0492 13.0313 15.0492 12.781 14.8179C12.5683 14.5822 12.5041 14.4121 12.5093 14.0915C12.5403 13.795 12.7211 13.6006 12.9372 13.4115C13.1004 13.3571 13.2154 13.3523 13.3867 13.3514Z" fill="#424242"/>
<path d="M13.302 10.0181C13.3443 10.0177 13.3865 10.0174 13.4301 10.017C13.4763 10.0168 13.5225 10.0167 13.5701 10.0165C13.6189 10.0162 13.6677 10.0159 13.718 10.0155C13.8796 10.0145 14.0413 10.0139 14.203 10.0134C14.2582 10.0131 14.3134 10.0129 14.3703 10.0127C14.6625 10.0116 14.9546 10.0109 15.2468 10.0104C15.5486 10.0098 15.8504 10.008 16.1521 10.006C16.3842 10.0046 16.6162 10.0042 16.8483 10.004C16.9595 10.0037 17.0708 10.0031 17.182 10.0021C17.3378 10.0009 17.4935 10.0009 17.6492 10.0013C17.6951 10.0006 17.741 9.99996 17.7882 9.99927C18.0724 10.0017 18.2326 10.0458 18.4585 10.2341C18.6475 10.4331 18.683 10.5926 18.6929 10.8592C18.683 11.1257 18.6475 11.2853 18.4585 11.4842C18.1891 11.7082 17.9869 11.7226 17.6517 11.7195C17.6029 11.7199 17.554 11.7203 17.5037 11.7206C17.3429 11.7216 17.1821 11.721 17.0212 11.7203C16.9092 11.7204 16.7971 11.7206 16.685 11.7209C16.4503 11.7212 16.2156 11.7207 15.9809 11.7197C15.6804 11.7186 15.3798 11.7192 15.0793 11.7205C14.8479 11.7212 14.6165 11.721 14.3851 11.7205C14.2743 11.7203 14.1635 11.7205 14.0527 11.721C13.8977 11.7215 13.7428 11.7207 13.5878 11.7195C13.5422 11.72 13.4966 11.7204 13.4495 11.7208C13.1666 11.7169 13.0058 11.6717 12.781 11.4842C12.5683 11.2485 12.5041 11.0784 12.5093 10.7578C12.5403 10.4614 12.7211 10.267 12.9372 10.0779C13.0773 10.0312 13.1584 10.019 13.302 10.0181Z" fill="#424242"/>
</svg>
