<svg width="25" height="21" viewBox="0 0 25 21" fill="none" xmlns="http://www.w3.org/2000/svg">
<path d="M6.04241 0.0181747C6.14178 0.0178428 6.24114 0.0174916 6.34051 0.0171226C6.6638 0.016022 6.98709 0.015465 7.31039 0.0149369C7.42222 0.0147228 7.53405 0.0145052 7.64588 0.0142844C8.17071 0.0132809 8.69554 0.0125279 9.22038 0.0120858C9.82485 0.0115681 10.4293 0.0101725 11.0338 0.00804385C11.5024 0.00645068 11.9709 0.00566801 12.4395 0.00549294C12.7188 0.00536888 12.9982 0.00489699 13.2776 0.0035665C13.5399 0.00233664 13.8023 0.0021127 14.0647 0.00265568C14.1608 0.00268185 14.2569 0.00234804 14.353 0.00162243C14.4845 0.000685302 14.6159 0.0010621 14.7474 0.00175626C14.804 0.000886912 14.804 0.000886912 14.8617 0C15.1476 0.00362885 15.365 0.0842795 15.601 0.238869C15.8015 0.454726 15.8557 0.663442 15.8739 0.950497C15.855 1.24136 15.7256 1.43872 15.5185 1.63571C15.2927 1.78042 15.0936 1.77889 14.8345 1.77875C14.7733 1.77903 14.7733 1.77903 14.7109 1.77931C14.5738 1.77988 14.4367 1.78007 14.2996 1.78027C14.2014 1.7806 14.1032 1.78096 14.0051 1.78134C13.7932 1.78212 13.5814 1.78274 13.3696 1.78324C13.0337 1.78406 12.6978 1.78532 12.3619 1.78667C11.4066 1.79043 10.4513 1.79357 9.49592 1.79629C8.96857 1.7978 8.44123 1.79967 7.91389 1.80193C7.58108 1.80333 7.24827 1.80428 6.91546 1.80489C6.70655 1.80538 6.49764 1.8063 6.28873 1.80733C6.19309 1.80772 6.09745 1.80794 6.00181 1.80796C5.49659 1.80819 4.99678 1.82495 4.49351 1.87158C4.44834 1.87572 4.40316 1.87986 4.35662 1.88412C3.80905 1.93957 3.23 2.04819 2.76199 2.35229C2.73025 2.37259 2.69851 2.39288 2.66581 2.41379C2.12431 2.81465 1.99009 3.52094 1.88611 4.14824C1.84508 4.44039 1.82577 4.73414 1.80517 5.02833C1.79824 5.1229 1.79824 5.1229 1.79116 5.21938C1.77992 5.37321 1.7689 5.52706 1.75811 5.68093C1.80983 5.68078 1.86155 5.68064 1.91483 5.68049C3.1729 5.67697 4.43096 5.67436 5.68903 5.67272C6.29742 5.6719 6.90581 5.67078 7.5142 5.66897C8.04443 5.66739 8.57467 5.66637 9.10491 5.66602C9.38569 5.66581 9.66648 5.66532 9.94726 5.66417C10.2115 5.66309 10.4758 5.66276 10.7401 5.663C10.8371 5.66296 10.9341 5.66264 11.0311 5.66203C11.1635 5.66125 11.296 5.66144 11.4285 5.66187C11.486 5.66118 11.486 5.66118 11.5447 5.66047C11.7908 5.66264 11.9574 5.71061 12.1667 5.83944C12.3525 6.03557 12.4814 6.21457 12.4856 6.4908C12.4676 6.78388 12.4254 6.99147 12.2196 7.21316C11.9447 7.39325 11.6932 7.45526 11.3649 7.44992C11.3029 7.45019 11.3029 7.45019 11.2396 7.45046C11.1022 7.45081 10.9648 7.44965 10.8274 7.44849C10.7284 7.44843 10.6294 7.44847 10.5305 7.44859C10.2626 7.44865 9.99475 7.44741 9.72689 7.44593C9.44667 7.44461 9.16644 7.44449 8.88621 7.44423C8.35592 7.44358 7.82563 7.44184 7.29534 7.43972C6.69147 7.43736 6.0876 7.4362 5.48373 7.43514C4.24185 7.43293 2.99998 7.42921 1.75811 7.4245C1.76256 8.51537 1.7676 9.60623 1.77331 10.6971C1.77594 11.2037 1.7784 11.7103 1.7804 12.2169C1.78216 12.659 1.78427 13.101 1.78679 13.5431C1.78812 13.7767 1.78927 14.0103 1.78999 14.2439C1.68547 16.4464 1.68547 16.4464 2.47635 18.4038C3.48452 19.3272 5.22861 19.1699 6.49009 19.1677C6.62744 19.1678 6.76479 19.168 6.90214 19.1682C7.23367 19.1687 7.56519 19.1686 7.89672 19.1683C8.1666 19.168 8.43649 19.168 8.70637 19.1681C8.74506 19.1681 8.78374 19.1682 8.82359 19.1682C8.90222 19.1682 8.98084 19.1682 9.05947 19.1683C9.79357 19.1686 10.5277 19.1682 11.2618 19.1677C11.8891 19.1672 12.5165 19.1673 13.1439 19.1678C13.8757 19.1683 14.6075 19.1686 15.3393 19.1682C15.4176 19.1682 15.4959 19.1682 15.5742 19.1681C15.632 19.1681 15.632 19.1681 15.6909 19.1681C15.9599 19.168 16.2289 19.1681 16.4979 19.1684C16.8611 19.1687 17.2244 19.1685 17.5876 19.1679C17.7201 19.1677 17.8525 19.1678 17.985 19.168C20.0322 19.2303 20.0322 19.2303 21.8383 18.4217C22.6635 17.4816 22.5295 15.8847 22.5314 14.7196C22.5318 14.5357 22.5326 14.3518 22.5336 14.1679C22.5363 13.6456 22.5389 13.1232 22.5397 12.6009C22.5402 12.2801 22.5418 11.9592 22.544 11.6384C22.5446 11.5166 22.5449 11.3947 22.5448 11.2729C22.5447 11.103 22.5458 10.9331 22.5473 10.7632C22.547 10.7131 22.5466 10.663 22.5463 10.6114C22.5505 10.3149 22.5879 10.1426 22.7867 9.90777C23.0068 9.70415 23.1426 9.65509 23.4339 9.62708C23.6797 9.64757 23.8537 9.71249 24.0547 9.85494C24.2536 10.0997 24.3252 10.2987 24.326 10.6088C24.3262 10.6535 24.3264 10.6982 24.3266 10.7442C24.3266 10.7928 24.3266 10.8415 24.3266 10.8916C24.3268 10.969 24.3268 10.969 24.3271 11.0479C24.3276 11.2191 24.3277 11.3902 24.3278 11.5614C24.3279 11.6812 24.3281 11.8011 24.3283 11.9209C24.3286 12.173 24.3287 12.4251 24.3287 12.6773C24.3287 12.9967 24.3294 13.3162 24.3303 13.6357C24.3309 13.8839 24.331 14.1321 24.331 14.3804C24.331 14.4979 24.3313 14.6154 24.3317 14.7329C24.3336 15.3433 24.3217 15.9492 24.2727 16.5579C24.2687 16.6084 24.2647 16.6588 24.2606 16.7108C24.1555 17.8887 23.8092 19.0263 22.9287 19.8574C21.5308 21.021 19.5417 20.9671 17.8233 20.9641C17.6851 20.9642 17.5469 20.9644 17.4086 20.9646C17.0753 20.9651 16.742 20.965 16.4087 20.9647C16.1373 20.9645 15.8659 20.9644 15.5945 20.9645C15.5361 20.9646 15.5361 20.9646 15.4765 20.9646C15.3974 20.9646 15.3183 20.9647 15.2391 20.9647C14.5006 20.965 13.7621 20.9647 13.0237 20.9641C12.3928 20.9636 11.762 20.9637 11.1312 20.9642C10.395 20.9647 9.65875 20.965 8.92253 20.9646C8.84372 20.9646 8.76491 20.9646 8.6861 20.9645C8.64734 20.9645 8.60859 20.9645 8.56865 20.9645C8.29824 20.9644 8.02782 20.9646 7.7574 20.9648C7.39207 20.9651 7.02673 20.9649 6.6614 20.9643C6.52831 20.9641 6.39523 20.9642 6.26214 20.9644C2.56478 20.9704 2.56478 20.9704 1.24297 19.722C0.0379284 18.4482 -0.00286733 16.6025 0.000867911 14.9529C0.000724228 14.8442 0.000535805 14.7355 0.000306792 14.6268C-0.000169419 14.3351 9.37894e-06 14.0434 0.000346699 13.7517C0.000617117 13.4442 0.00036548 13.1368 0.000200373 12.8293C8.95466e-06 12.3132 0.000259294 11.7972 0.000764717 11.2811C0.00133963 10.6873 0.00115321 10.0935 0.000571631 9.49974C8.97218e-05 8.98687 2.57616e-05 8.47401 0.000301148 7.96114C0.000464591 7.65616 0.00049139 7.35118 0.000138698 7.0462C-0.000170036 6.75927 5.14633e-05 6.47234 0.000655879 6.18541C0.000793765 6.08108 0.000758702 5.97675 0.000522452 5.87242C-0.00129784 4.98575 0.0160486 4.07223 0.232488 3.20757C0.243598 3.16229 0.254708 3.11702 0.266155 3.07037C0.432795 2.43702 0.726683 1.82954 1.17692 1.34842C1.2135 1.30905 1.25007 1.26968 1.28775 1.22912C2.50304 0.0320989 4.44639 0.0205438 6.04241 0.0181747Z" fill="#424242"/>
<path d="M22.757 0.446924C23.5245 0.965615 24.1322 1.69581 24.319 2.61648C24.4072 3.32298 24.1656 3.96381 23.7378 4.51856C23.6223 4.65042 23.5025 4.77789 23.3819 4.90512C23.3472 4.94193 23.3125 4.97874 23.2767 5.01667C22.8836 5.43182 22.4812 5.83771 22.0774 6.24253C22.0183 6.30188 22.0183 6.30188 21.9579 6.36243C21.7502 6.57094 21.5423 6.77931 21.3343 6.98755C21.1211 7.20106 20.9084 7.41506 20.6958 7.62917C20.5304 7.79557 20.3646 7.96161 20.1987 8.12755C20.1201 8.20631 20.0417 8.28519 19.9634 8.36421C19.1786 9.15551 18.5495 9.61166 17.4206 9.76249C17.3235 9.77572 17.3235 9.77572 17.2244 9.78922C15.7172 9.98333 15.7172 9.98333 15.2313 9.64361C15.1941 9.61793 15.1569 9.59226 15.1186 9.5658C14.7878 9.30764 14.6064 8.98393 14.5015 8.58029C14.4795 8.24406 14.4939 7.92326 14.5419 7.59004C14.5473 7.55202 14.5527 7.514 14.5582 7.47482C14.5696 7.39497 14.5811 7.31514 14.5928 7.23534C14.6103 7.11487 14.6268 6.99428 14.6433 6.87367C14.7698 5.97973 15.0818 5.38254 15.7223 4.74589C15.7651 4.70269 15.808 4.6595 15.8521 4.615C15.9927 4.4734 16.1339 4.3324 16.2752 4.19144C16.3489 4.11751 16.4227 4.04359 16.4964 3.96964C16.7279 3.7374 16.9598 3.50557 17.192 3.274C17.43 3.03653 17.6674 2.79839 17.9045 2.55991C18.1093 2.35391 18.3146 2.14833 18.5201 1.94307C18.6423 1.82103 18.7644 1.69881 18.8861 1.57628C19.9932 0.462732 21.1772 -0.469493 22.757 0.446924ZM20.5677 2.40514C20.7779 2.98849 21.2149 3.41765 21.7325 3.74068C21.8637 3.78922 21.9186 3.77968 22.0471 3.72603C22.2813 3.54314 22.4789 3.32275 22.5754 3.03917C22.5667 2.62325 22.2778 2.35007 21.9952 2.07595C21.8256 1.92732 21.6712 1.83354 21.445 1.81177C21.097 1.84256 20.7943 2.15652 20.5677 2.40514ZM18.9951 3.97003C18.969 3.99598 18.9429 4.02192 18.9159 4.04865C18.8291 4.13497 18.7425 4.2215 18.6559 4.30805C18.5958 4.36796 18.5357 4.42787 18.4756 4.48777C18.3494 4.61365 18.2233 4.73963 18.0973 4.86568C17.9359 5.02716 17.774 5.18827 17.6121 5.34928C17.4878 5.47303 17.3637 5.59701 17.2397 5.72106C17.1801 5.78055 17.1205 5.83995 17.0607 5.89927C16.9771 5.98236 16.8939 6.06578 16.8107 6.14929C16.7632 6.19669 16.7157 6.24409 16.6668 6.29293C16.4931 6.48642 16.4355 6.6409 16.4015 6.89575C16.3947 6.94608 16.3879 6.99641 16.3809 7.04827C16.3742 7.10051 16.3675 7.15275 16.3606 7.20657C16.3535 7.2584 16.3465 7.31023 16.3392 7.36363C16.306 7.61446 16.2785 7.85773 16.288 8.11138C16.6552 8.09086 17.0205 8.0522 17.3843 7.9991C17.4211 7.99486 17.4579 7.99062 17.4958 7.98624C18.0416 7.89974 18.4318 7.34984 18.8043 6.97768C18.857 6.92516 18.9097 6.87263 18.9624 6.82011C19.0719 6.71092 19.1813 6.60163 19.2906 6.49227C19.4309 6.35194 19.5716 6.21198 19.7124 6.07211C19.8209 5.96419 19.9292 5.85603 20.0374 5.7478C20.0892 5.69604 20.1411 5.64437 20.1931 5.59278C20.2653 5.52109 20.3371 5.44904 20.4089 5.37697C20.4499 5.33608 20.4909 5.2952 20.5331 5.25307C20.6321 5.1615 20.6321 5.1615 20.6205 5.04692C20.542 4.97763 20.542 4.97763 20.4389 4.90822C20.012 4.59579 19.6808 4.27679 19.3805 3.83831C19.3538 3.80125 19.3271 3.7642 19.2996 3.72603C19.1862 3.72603 19.0665 3.89897 18.9951 3.97003Z" fill="#424242"/>
<path d="M10.6364 14.7064C10.6859 14.7061 10.7353 14.7057 10.7863 14.7054C10.9506 14.7043 11.1149 14.7037 11.2792 14.7032C11.3353 14.703 11.3913 14.7028 11.4491 14.7025C11.7458 14.7014 12.0424 14.7007 12.3391 14.7002C12.6457 14.6996 12.9522 14.6978 13.2587 14.6957C13.4944 14.6943 13.73 14.6939 13.9656 14.6937C14.0786 14.6934 14.1916 14.6928 14.3046 14.6918C14.4628 14.6905 14.621 14.6906 14.7792 14.691C14.8258 14.6903 14.8724 14.6896 14.9205 14.6889C15.2748 14.6919 15.4607 14.7982 15.7232 15.0394C15.853 15.2605 15.8747 15.4653 15.8652 15.7197C15.7782 16.0317 15.6435 16.1701 15.3897 16.3537C15.2098 16.4436 15.0045 16.4153 14.8066 16.4159C14.7571 16.4162 14.7076 16.4166 14.6566 16.4169C14.4923 16.418 14.328 16.4186 14.1637 16.4191C14.0796 16.4194 14.0796 16.4194 13.9939 16.4198C13.6972 16.4209 13.4005 16.4216 13.1038 16.4221C12.7972 16.4227 12.4907 16.4245 12.1842 16.4266C11.9486 16.428 11.713 16.4284 11.4773 16.4286C11.3643 16.4289 11.2514 16.4295 11.1384 16.4305C10.9801 16.4318 10.8219 16.4317 10.6637 16.4314C10.6171 16.432 10.5705 16.4327 10.5224 16.4334C10.2343 16.431 10.0703 16.3873 9.84192 16.1952C9.65167 15.9689 9.5644 15.7518 9.57774 15.4555C9.64097 15.1266 9.78345 14.9581 10.0533 14.7686C10.2331 14.6787 10.4385 14.707 10.6364 14.7064Z" fill="#424242"/>
<path d="M5.3547 14.7065C5.41062 14.7058 5.46654 14.7051 5.52416 14.7044C5.61521 14.7039 5.61521 14.7039 5.7081 14.7033C5.77041 14.7028 5.83271 14.7024 5.8969 14.702C6.02903 14.7012 6.16117 14.7007 6.29331 14.7003C6.49497 14.6993 6.69659 14.697 6.89825 14.6947C7.02658 14.6942 7.15492 14.6937 7.28326 14.6934C7.34343 14.6924 7.4036 14.6915 7.46559 14.6906C7.81209 14.6915 8.03 14.7163 8.30963 14.9272C8.50622 15.1792 8.55602 15.3782 8.541 15.697C8.49772 15.9746 8.38508 16.1387 8.15723 16.3095C7.88394 16.4577 7.59427 16.4368 7.29069 16.4347C7.22864 16.4349 7.16659 16.4351 7.10265 16.4353C6.97187 16.4354 6.84109 16.435 6.71032 16.4341C6.5104 16.433 6.31058 16.4341 6.11067 16.4355C5.98336 16.4353 5.85605 16.4351 5.72874 16.4347C5.66913 16.4351 5.60952 16.4355 5.5481 16.436C5.21967 16.432 5.01796 16.4179 4.76965 16.1952C4.5794 15.969 4.49213 15.7519 4.50548 15.4555C4.56871 15.1266 4.71118 14.9581 4.981 14.7687C5.11365 14.7024 5.20623 14.7081 5.3547 14.7065Z" fill="#424242"/>
</svg>
