<svg width="24" height="22" viewBox="0 0 24 22" fill="none" xmlns="http://www.w3.org/2000/svg">
<path d="M5.95875 0.680399C6.05675 0.680071 6.15474 0.679725 6.25273 0.679361C6.57154 0.678276 6.89036 0.677727 7.20918 0.677206C7.31946 0.676995 7.42974 0.67678 7.54002 0.676562C8.05759 0.675573 8.57516 0.67483 9.09272 0.674394C9.68883 0.673883 10.2849 0.672507 10.881 0.670408C11.3431 0.668837 11.8052 0.668065 12.2672 0.667892C12.5427 0.66777 12.8182 0.667305 13.0937 0.665993C13.3525 0.66478 13.6112 0.664559 13.87 0.665095C13.9647 0.66512 14.0595 0.664791 14.1543 0.664076C14.2839 0.663151 14.4135 0.663523 14.5432 0.664208C14.599 0.66335 14.599 0.66335 14.656 0.662476C14.9379 0.666054 15.1523 0.745588 15.385 0.898037C15.5827 1.11091 15.6362 1.31673 15.6541 1.59981C15.6355 1.88665 15.5078 2.08127 15.3036 2.27554C15.081 2.41824 14.8847 2.41673 14.6291 2.4166C14.5688 2.41687 14.5688 2.41687 14.5072 2.41715C14.372 2.41771 14.2368 2.4179 14.1016 2.4181C14.0048 2.41843 13.908 2.41878 13.8112 2.41915C13.6023 2.41992 13.3934 2.42053 13.1845 2.42103C12.8533 2.42183 12.522 2.42308 12.1908 2.42441C11.2487 2.42812 10.3066 2.43122 9.36445 2.4339C8.8444 2.43538 8.32436 2.43723 7.80432 2.43946C7.47612 2.44084 7.14792 2.44178 6.81972 2.44237C6.6137 2.44286 6.40768 2.44376 6.20167 2.44478C6.10735 2.44516 6.01303 2.44538 5.91872 2.44541C5.42049 2.44563 4.9276 2.46216 4.4313 2.50814C4.38675 2.51223 4.3422 2.51631 4.2963 2.52051C3.75632 2.5752 3.18529 2.68231 2.72375 2.9822C2.69245 3.00221 2.66115 3.02223 2.6289 3.04285C2.09489 3.43816 1.96254 4.13467 1.86 4.75328C1.81953 5.04139 1.80049 5.33108 1.78018 5.62119C1.77334 5.71445 1.77334 5.71445 1.76636 5.80959C1.75527 5.9613 1.74441 6.11302 1.73377 6.26475C1.78477 6.26461 1.83578 6.26447 1.88832 6.26432C3.12897 6.26085 4.36961 6.25828 5.61026 6.25665C6.21023 6.25585 6.8102 6.25475 7.41016 6.25296C7.93306 6.2514 8.45595 6.2504 8.97885 6.25005C9.25575 6.24984 9.53265 6.24936 9.80955 6.24823C10.0702 6.24717 10.3308 6.24684 10.5914 6.24707C10.687 6.24703 10.7827 6.24672 10.8783 6.24612C11.009 6.24534 11.1396 6.24553 11.2702 6.24596C11.327 6.24527 11.327 6.24527 11.3848 6.24458C11.6275 6.24672 11.7918 6.29403 11.9983 6.42107C12.1815 6.61448 12.3086 6.791 12.3127 7.06341C12.295 7.35244 12.2534 7.55715 12.0504 7.77577C11.7794 7.95336 11.5313 8.01452 11.2076 8.00925C11.1464 8.00952 11.1464 8.00952 11.084 8.00979C10.9485 8.01013 10.813 8.00899 10.6775 8.00785C10.5799 8.00779 10.4823 8.00782 10.3847 8.00794C10.1205 8.008 9.85638 8.00678 9.59223 8.00532C9.31588 8.00401 9.03953 8.00389 8.76318 8.00365C8.24023 8.003 7.71729 8.00129 7.19434 7.9992C6.59883 7.99686 6.00332 7.99572 5.40781 7.99467C4.18313 7.9925 2.95845 7.98883 1.73377 7.98419C1.73816 9.05995 1.74313 10.1357 1.74875 11.2115C1.75136 11.7111 1.75378 12.2107 1.75575 12.7103C1.75748 13.1462 1.75956 13.5821 1.76205 14.018C1.76336 14.2484 1.7645 14.4788 1.76521 14.7092C1.66214 16.8812 1.66214 16.8812 2.44206 18.8114C3.43627 19.7221 5.15622 19.567 6.40024 19.5648C6.53569 19.5649 6.67113 19.5651 6.80658 19.5653C7.13352 19.5658 7.46045 19.5657 7.78739 19.5654C8.05354 19.5651 8.31969 19.5651 8.58584 19.5652C8.62398 19.5652 8.66213 19.5653 8.70143 19.5653C8.77897 19.5653 8.8565 19.5653 8.93404 19.5654C9.65798 19.5657 10.3819 19.5653 11.1059 19.5648C11.7245 19.5643 12.3432 19.5644 12.9619 19.5649C13.6836 19.5654 14.4053 19.5656 15.1269 19.5653C15.2042 19.5653 15.2814 19.5653 15.3586 19.5652C15.4156 19.5652 15.4156 19.5652 15.4737 19.5652C15.7389 19.5651 16.0042 19.5652 16.2695 19.5655C16.6277 19.5658 16.9859 19.5656 17.3441 19.565C17.4747 19.5648 17.6054 19.5649 17.736 19.5651C19.7549 19.6265 19.7549 19.6265 21.536 18.8292C22.3497 17.9021 22.2176 16.3273 22.2194 15.1783C22.2198 14.9969 22.2206 14.8156 22.2216 14.6342C22.2243 14.1191 22.2268 13.604 22.2276 13.0889C22.2282 12.7725 22.2297 12.4561 22.2319 12.1398C22.2325 12.0196 22.2328 11.8995 22.2327 11.7793C22.2325 11.6117 22.2337 11.4442 22.2351 11.2766C22.2348 11.2272 22.2345 11.1779 22.2341 11.127C22.2383 10.8345 22.2751 10.6646 22.4712 10.4331C22.6883 10.2323 22.8222 10.1839 23.1095 10.1563C23.3519 10.1765 23.5235 10.2405 23.7217 10.381C23.9178 10.6224 23.9885 10.8185 23.9892 11.1244C23.9894 11.1685 23.9896 11.2125 23.9898 11.2579C23.9898 11.3059 23.9898 11.3539 23.9898 11.4033C23.99 11.4796 23.99 11.4796 23.9903 11.5574C23.9908 11.7262 23.9909 11.895 23.9909 12.0638C23.9911 12.182 23.9913 12.3002 23.9915 12.4184C23.9918 12.667 23.9919 12.9156 23.9919 13.1642C23.9918 13.4793 23.9926 13.7943 23.9935 14.1093C23.994 14.3542 23.9941 14.599 23.9941 14.8438C23.9942 14.9597 23.9944 15.0756 23.9948 15.1914C23.9967 15.7934 23.985 16.3909 23.9367 16.9911C23.9327 17.0409 23.9288 17.0907 23.9248 17.1419C23.821 18.3035 23.4796 19.4253 22.6112 20.2449C21.2327 21.3925 19.2712 21.3393 17.5766 21.3363C17.4402 21.3364 17.3039 21.3366 17.1676 21.3369C16.8389 21.3373 16.5102 21.3372 16.1815 21.3369C15.9139 21.3367 15.6462 21.3367 15.3786 21.3368C15.321 21.3368 15.321 21.3368 15.2623 21.3368C15.1842 21.3368 15.1062 21.3369 15.0281 21.3369C14.2999 21.3372 13.5716 21.3369 12.8433 21.3363C12.2213 21.3358 11.5992 21.3359 10.9771 21.3364C10.2511 21.337 9.52503 21.3372 8.799 21.3369C8.72128 21.3368 8.64356 21.3368 8.56584 21.3368C8.52762 21.3368 8.4894 21.3367 8.45002 21.3367C8.18335 21.3366 7.91668 21.3368 7.65 21.337C7.28973 21.3374 6.92945 21.3371 6.56917 21.3365C6.43793 21.3364 6.30668 21.3364 6.17544 21.3366C2.52927 21.3425 2.52927 21.3425 1.22576 20.1114C0.0374033 18.8553 -0.00282764 17.0351 0.000855895 15.4084C0.000714202 15.3012 0.000528387 15.194 0.000302544 15.0868C-0.000167073 14.7991 9.24909e-06 14.5115 0.000341899 14.2238C0.000608573 13.9206 0.00036042 13.6174 0.000197598 13.3141C8.83069e-06 12.8052 0.000255704 12.2963 0.00075413 11.7874C0.00132109 11.2018 0.00113724 10.6163 0.000563716 10.0307C8.84797e-05 9.52493 2.54049e-05 9.01916 0.000296979 8.5134C0.000458159 8.21264 0.000484587 7.91188 0.000136778 7.61112C-0.000167682 7.32816 5.07508e-05 7.04521 0.000646799 6.76225C0.000782775 6.65937 0.000748198 6.55648 0.000515219 6.45359C-0.00127987 5.5792 0.0158265 4.67832 0.229269 3.82563C0.240225 3.78098 0.251182 3.73634 0.26247 3.69034C0.426803 3.06575 0.716623 2.46669 1.16063 1.99222C1.1967 1.9534 1.23276 1.91458 1.26993 1.87458C2.46838 0.69413 4.38484 0.682735 5.95875 0.680399Z" fill="#424242"/>
<path d="M22.4419 1.10322C23.1987 1.61473 23.798 2.33482 23.9822 3.24274C24.0692 3.93945 23.831 4.57141 23.4091 5.11848C23.2952 5.24851 23.177 5.37422 23.0581 5.49969C23.0239 5.53599 22.9897 5.57229 22.9544 5.60969C22.5667 6.0191 22.1698 6.41937 21.7716 6.81858C21.7133 6.87711 21.7133 6.87711 21.6539 6.93682C21.449 7.14245 21.244 7.34794 21.0389 7.55329C20.8286 7.76385 20.6188 7.97488 20.4092 8.18603C20.246 8.35012 20.0826 8.51386 19.919 8.67751C19.8415 8.75517 19.7641 8.83296 19.6869 8.91089C18.913 9.69123 18.2926 10.1411 17.1794 10.2898C17.0836 10.3029 17.0836 10.3029 16.9858 10.3162C15.4995 10.5076 15.4995 10.5076 15.0203 10.1726C14.9836 10.1473 14.947 10.1219 14.9092 10.0958C14.583 9.84126 14.4041 9.52203 14.3006 9.12398C14.279 8.7924 14.2931 8.47604 14.3405 8.14744C14.3458 8.10994 14.3511 8.07245 14.3565 8.03382C14.3678 7.95507 14.3792 7.87635 14.3907 7.79764C14.408 7.67884 14.4242 7.55993 14.4404 7.44098C14.5653 6.55942 14.8729 5.9705 15.5045 5.34266C15.5468 5.30007 15.589 5.25747 15.6325 5.21358C15.7712 5.07395 15.9105 4.9349 16.0498 4.79589C16.1225 4.72299 16.1952 4.65009 16.2679 4.57716C16.4962 4.34814 16.7249 4.11952 16.9539 3.89115C17.1886 3.65697 17.4227 3.42213 17.6565 3.18694C17.8585 2.9838 18.0609 2.78106 18.2636 2.57865C18.3842 2.4583 18.5045 2.33777 18.6245 2.21694C19.7163 1.11881 20.884 0.199486 22.4419 1.10322ZM20.2828 3.03432C20.4901 3.6096 20.9211 4.03281 21.4315 4.35137C21.5609 4.39924 21.6151 4.38984 21.7417 4.33692C21.9728 4.15657 22.1676 3.93923 22.2628 3.65957C22.2542 3.24942 21.9692 2.98002 21.6906 2.70969C21.5234 2.56311 21.3711 2.47064 21.148 2.44917C20.8048 2.47953 20.5064 2.78914 20.2828 3.03432ZM18.732 4.57755C18.7063 4.60313 18.6805 4.62872 18.654 4.65507C18.5683 4.7402 18.4829 4.82553 18.3975 4.91088C18.3383 4.96996 18.279 5.02904 18.2197 5.08812C18.0953 5.21225 17.971 5.33649 17.8467 5.4608C17.6874 5.62004 17.5279 5.77892 17.3682 5.9377C17.2456 6.05973 17.1232 6.182 17.0009 6.30433C16.9422 6.363 16.8834 6.42158 16.8245 6.48007C16.742 6.56201 16.6599 6.64428 16.5778 6.72664C16.531 6.77338 16.4842 6.82012 16.436 6.86829C16.2647 7.0591 16.2079 7.21143 16.1743 7.46276C16.1676 7.51239 16.1609 7.56203 16.154 7.61317C16.1474 7.66468 16.1408 7.7162 16.134 7.76928C16.127 7.82039 16.1201 7.8715 16.1129 7.92416C16.0801 8.17152 16.0531 8.41143 16.0624 8.66156C16.4245 8.64132 16.7847 8.6032 17.1435 8.55084C17.1798 8.54665 17.2161 8.54247 17.2534 8.53816C17.7917 8.45285 18.1766 7.91056 18.5438 7.54356C18.5958 7.49176 18.6478 7.43996 18.6998 7.38817C18.8077 7.28049 18.9156 7.17271 19.0234 7.06487C19.1618 6.92648 19.3006 6.78846 19.4394 6.65052C19.5464 6.54409 19.6532 6.43743 19.7599 6.3307C19.811 6.27966 19.8622 6.2287 19.9134 6.17783C19.9846 6.10714 20.0555 6.03608 20.1263 5.96501C20.1667 5.92469 20.2071 5.88437 20.2487 5.84282C20.3463 5.75252 20.3463 5.75252 20.3349 5.63952C20.2575 5.5712 20.2575 5.5712 20.1558 5.50275C19.7348 5.19464 19.4082 4.88005 19.1121 4.44764C19.0858 4.41111 19.0594 4.37457 19.0323 4.33692C18.9205 4.33692 18.8024 4.50747 18.732 4.57755Z" fill="#424242"/>
<path d="M10.4891 15.1654C10.5379 15.165 10.5868 15.1647 10.637 15.1643C10.7991 15.1633 10.9611 15.1627 11.1231 15.1622C11.1784 15.162 11.2336 15.1617 11.2906 15.1615C11.5832 15.1604 11.8758 15.1597 12.1683 15.1592C12.4706 15.1586 12.7729 15.1568 13.0752 15.1548C13.3076 15.1534 13.5399 15.153 13.7723 15.1528C13.8837 15.1525 13.9951 15.1519 14.1065 15.151C14.2626 15.1497 14.4186 15.1497 14.5746 15.1501C14.6206 15.1494 14.6666 15.1488 14.7139 15.1481C15.0633 15.151 15.2466 15.2558 15.5055 15.4937C15.6335 15.7118 15.655 15.9137 15.6456 16.1646C15.5598 16.4723 15.4269 16.6087 15.1766 16.7898C14.9993 16.8785 14.7968 16.8505 14.6016 16.8511C14.5528 16.8515 14.504 16.8518 14.4537 16.8522C14.2917 16.8532 14.1297 16.8538 13.9676 16.8543C13.8847 16.8546 13.8847 16.8546 13.8001 16.855C13.5076 16.8561 13.215 16.8568 12.9224 16.8573C12.6201 16.8579 12.3178 16.8597 12.0155 16.8617C11.7832 16.8631 11.5508 16.8635 11.3185 16.8637C11.207 16.864 11.0956 16.8646 10.9842 16.8655C10.8281 16.8668 10.6721 16.8668 10.5161 16.8664C10.4701 16.8671 10.4242 16.8677 10.3768 16.8684C10.0927 16.866 9.9309 16.8229 9.70569 16.6335C9.51807 16.4104 9.43201 16.1962 9.44517 15.904C9.50752 15.5797 9.64803 15.4135 9.91411 15.2267C10.0915 15.138 10.294 15.1659 10.4891 15.1654Z" fill="#424242"/>
<path d="M5.28065 15.1653C5.3358 15.1646 5.39094 15.1639 5.44776 15.1632C5.53755 15.1627 5.53755 15.1627 5.62916 15.1621C5.6906 15.1616 5.75204 15.1612 5.81534 15.1608C5.94565 15.1601 6.07595 15.1595 6.20626 15.1591C6.40513 15.1582 6.60396 15.1559 6.80282 15.1536C6.92939 15.1531 7.05595 15.1527 7.18251 15.1523C7.24185 15.1514 7.30118 15.1505 7.36232 15.1495C7.70402 15.1505 7.91891 15.1749 8.19467 15.3829C8.38854 15.6314 8.43764 15.8277 8.42283 16.1421C8.38015 16.4158 8.26907 16.5776 8.04438 16.7461C7.77487 16.8922 7.48921 16.8716 7.18984 16.8695C7.12865 16.8697 7.06745 16.8699 7.0044 16.8701C6.87543 16.8702 6.74646 16.8699 6.6175 16.869C6.42035 16.8679 6.2233 16.869 6.02615 16.8703C5.9006 16.8702 5.77506 16.8699 5.64951 16.8695C5.59073 16.8699 5.53194 16.8703 5.47137 16.8708C5.14749 16.8669 4.94857 16.853 4.7037 16.6334C4.51609 16.4103 4.43003 16.1961 4.44318 15.9039C4.50554 15.5796 4.64604 15.4134 4.91212 15.2266C5.04294 15.1612 5.13424 15.1668 5.28065 15.1653Z" fill="#424242"/>
</svg>
