<svg width="26" height="17" viewBox="0 0 26 17" fill="none" xmlns="http://www.w3.org/2000/svg">
<path opacity="0.941" d="M2.45248 0.903623L2.44365 0.903635L2.43496 0.905195C1.9925 0.984599 1.62755 1.15548 1.34585 1.42181C1.0642 1.6881 0.871867 2.04406 0.765087 2.48363L0.762373 2.4948L0.762265 2.50629C0.723703 6.59368 0.723703 10.681 0.762265 14.7684L0.762386 14.7813L0.765756 14.7937C0.877586 15.2054 1.06769 15.5396 1.33924 15.7906C1.6108 16.0417 1.95824 16.2045 2.37643 16.2826L2.38526 16.2843L2.39424 16.2843C9.35362 16.3229 16.3131 16.3229 23.2724 16.2843L23.2816 16.2843L23.2905 16.2826C23.722 16.2008 24.0767 16.0311 24.3487 15.7694C24.6206 15.5077 24.8038 15.1599 24.9019 14.732L24.9043 14.7214L24.9044 14.7106C24.943 10.6618 24.943 6.61294 24.9044 2.56411L24.9043 2.55241L24.9015 2.54105C24.7932 2.10349 24.6003 1.74666 24.3193 1.47594C24.0384 1.20522 23.675 1.02594 23.2343 0.934619L23.2245 0.932581L23.2145 0.932539C16.2938 0.903623 9.37316 0.893965 2.45248 0.903623ZM1.94461 2.64619C2.07836 2.356 2.28964 2.17198 2.58233 2.08673C9.41726 2.07712 16.2521 2.08676 23.087 2.11562C23.4136 2.19114 23.6217 2.38234 23.7218 2.69776C23.7491 3.42961 23.7589 4.16172 23.7513 4.89398H23.7211H23.6781H23.635H23.592H23.549H23.5059H23.4629H23.4199H23.3768H23.3338H23.2907H23.2477H23.2047H23.1616H23.1186H23.0756H23.0325H22.9895H22.9465H22.9034H22.8604H22.8174H22.7743H22.7313H22.6883H22.6452H22.6022H22.5592H22.5161H22.4731H22.4301H22.387H22.344H22.301H22.2579H22.2149H22.1718H22.1288H22.0858H22.0427H21.9997H21.9567H21.9136H21.8706H21.8276H21.7845H21.7415H21.6985H21.6554H21.6124H21.5694H21.5263H21.4833H21.4403H21.3972H21.3542H21.3112H21.2681H21.2251H21.1821H21.139H21.096H21.0529H21.0099H20.9669H20.9238H20.8808H20.8378H20.7947H20.7517H20.7087H20.6656H20.6226H20.5796H20.5365H20.4935H20.4505H20.4074H20.3644H20.3214H20.2783H20.2353H20.1923H20.1492H20.1062H20.0632H20.0201H19.9771H19.934H19.891H19.848H19.8049H19.7619H19.7189H19.6758H19.6328H19.5898H19.5467H19.5037H19.4607H19.4176H19.3746H19.3316H19.2885H19.2455H19.2025H19.1594H19.1164H19.0734H19.0303H18.9873H18.9443H18.9012H18.8582H18.8151H18.7721H18.7291H18.686H18.643H18.6H18.5569H18.5139H18.4709H18.4278H18.3848H18.3418H18.2987H18.2557H18.2127H18.1696H18.1266H18.0836H18.0405H17.9975H17.9545H17.9114H17.8684H17.8254H17.7823H17.7393H17.6962H17.6532H17.6102H17.5671H17.5241H17.4811H17.438H17.395H17.352H17.3089H17.2659H17.2229H17.1798H17.1368H17.0938H17.0507H17.0077H16.9647H16.9216H16.8786H16.8356H16.7925H16.7495H16.7065H16.6634H16.6204H16.5773H16.5343H16.4913H16.4482H16.4052H16.3622H16.3191H16.2761H16.2331H16.19H16.147H16.104H16.0609H16.0179H15.9749H15.9318H15.8888H15.8458H15.8027H15.7597H15.7167H15.6736H15.6306H15.5876H15.5445H15.5015H15.4584H15.4154H15.3724H15.3293H15.2863H15.2433H15.2002H15.1572H15.1142H15.0711H15.0281H14.9851H14.942H14.899H14.856H14.8129H14.7699H14.7269H14.6838H14.6408H14.5978H14.5547H14.5117H14.4687H14.4256H14.3826H14.3395H14.2965H14.2535H14.2104H14.1674H14.1244H14.0813H14.0383H13.9953H13.9522H13.9092H13.8662H13.8231H13.7801H13.7371H13.694H13.651H13.608H13.5649H13.5219H13.4789H13.4358H13.3928H13.3498H13.3067H13.2637H13.2206H13.1776H13.1346H13.0915H13.0485H13.0055H12.9624H12.9194H12.8764H12.8333H12.7903H12.7473H12.7042H12.6612H12.6182H12.5751H12.5321H12.4891H12.446H12.403H12.36H12.3169H12.2739H12.2309H12.1878H12.1448H12.1017H12.0587H12.0157H11.9726H11.9296H11.8866H11.8435H11.8005H11.7575H11.7144H11.6714H11.6284H11.5853H11.5423H11.4993H11.4562H11.4132H11.3702H11.3271H11.2841H11.2411H11.198H11.155H11.112H11.0689H11.0259H10.9828H10.9398H10.8968H10.8537H10.8107H10.7677H10.7246H10.6816H10.6386H10.5955H10.5525H10.5095H10.4664H10.4234H10.3804H10.3373H10.2943H10.2513H10.2082H10.1652H10.1222H10.0791H10.0361H9.99305H9.95002H9.90698H9.86395H9.82091H9.77788H9.73485H9.69181H9.64878H9.60574H9.56271H9.51967H9.47664H9.4336H9.39057H9.34753H9.3045H9.26147H9.21843H9.1754H9.13236H9.08933H9.04629H9.00326H8.96022H8.91719H8.87415H8.83112H8.78808H8.74505H8.70201H8.65898H8.61595H8.57291H8.52988H8.48684H8.44381H8.40077H8.35774H8.3147H8.27167H8.22863H8.1856H8.14256H8.09953H8.0565H8.01346H7.97043H7.92739H7.88436H7.84132H7.79829H7.75525H7.71222H7.66918H7.62615H7.58311H7.54008H7.49705H7.45401H7.41098H7.36794H7.32491H7.28187H7.23884H7.1958H7.15277H7.10973H7.0667H7.02366H6.98063H6.9376H6.89456H6.85153H6.80849H6.76546H6.72242H6.67939H6.63635H6.59332H6.55028H6.50725H6.46421H6.42118H6.37815H6.33511H6.29208H6.24904H6.20601H6.16297H6.11994H6.0769H6.03387H5.99083H5.9478H5.90477H5.86173H5.8187H5.77566H5.73263H5.68959H5.64656H5.60352H5.56049H5.51745H5.47442H5.43138H5.38835H5.34531H5.30228H5.25925H5.21621H5.17318H5.13014H5.08711H5.04407H5.00104H4.958H4.91497H4.87193H4.8289H4.78587H4.74283H4.6998H4.65676H4.61373H4.57069H4.52766H4.48462H4.44159H4.39855H4.35552H4.31248H4.26945H4.22642H4.18338H4.14035H4.09731H4.05428H4.01124H3.96821H3.92517H3.88214H3.8391H3.79607H3.75303H3.71H3.66697H3.62393H3.5809H3.53786H3.49483H3.45179H3.40876H3.36572H3.32269H3.27965H3.23662H3.19358H3.15055H3.10752H3.06448H3.02145H2.97841H2.93538H2.89234H2.84931H2.80627H2.76324H2.7202H2.67717H2.63413H2.5911H2.54807H2.50503H2.462H2.41896H2.37593H2.33289H2.28986H2.24682H2.20379H2.16075H2.11772H2.07468H2.03165H1.98862H1.94558H1.91537C1.90776 4.14449 1.91751 3.39526 1.94461 2.64619ZM1.94518 14.5725C1.91676 11.7408 1.90708 8.90899 1.91615 6.07711H1.94558H1.98862H2.03165H2.07468H2.11772H2.16075H2.20379H2.24682H2.28986H2.33289H2.37593H2.41896H2.462H2.50503H2.54807H2.5911H2.63413H2.67717H2.7202H2.76324H2.80627H2.84931H2.89234H2.93538H2.97841H3.02145H3.06448H3.10752H3.15055H3.19358H3.23662H3.27965H3.32269H3.36572H3.40876H3.45179H3.49483H3.53786H3.5809H3.62393H3.66697H3.71H3.75303H3.79607H3.8391H3.88214H3.92517H3.96821H4.01124H4.05428H4.09731H4.14035H4.18338H4.22642H4.26945H4.31248H4.35552H4.39855H4.44159H4.48462H4.52766H4.57069H4.61373H4.65676H4.6998H4.74283H4.78587H4.8289H4.87193H4.91497H4.958H5.00104H5.04407H5.08711H5.13014H5.17318H5.21621H5.25925H5.30228H5.34531H5.38835H5.43138H5.47442H5.51745H5.56049H5.60352H5.64656H5.68959H5.73263H5.77566H5.8187H5.86173H5.90477H5.9478H5.99083H6.03387H6.0769H6.11994H6.16297H6.20601H6.24904H6.29208H6.33511H6.37815H6.42118H6.46421H6.50725H6.55028H6.59332H6.63635H6.67939H6.72242H6.76546H6.80849H6.85153H6.89456H6.9376H6.98063H7.02366H7.0667H7.10973H7.15277H7.1958H7.23884H7.28187H7.32491H7.36794H7.41098H7.45401H7.49705H7.54008H7.58311H7.62615H7.66918H7.71222H7.75525H7.79829H7.84132H7.88436H7.92739H7.97043H8.01346H8.0565H8.09953H8.14256H8.1856H8.22863H8.27167H8.3147H8.35774H8.40077H8.44381H8.48684H8.52988H8.57291H8.61595H8.65898H8.70201H8.74505H8.78808H8.83112H8.87415H8.91719H8.96022H9.00326H9.04629H9.08933H9.13236H9.1754H9.21843H9.26147H9.3045H9.34753H9.39057H9.4336H9.47664H9.51967H9.56271H9.60574H9.64878H9.69181H9.73485H9.77788H9.82091H9.86395H9.90698H9.95002H9.99305H10.0361H10.0791H10.1222H10.1652H10.2082H10.2513H10.2943H10.3373H10.3804H10.4234H10.4664H10.5095H10.5525H10.5955H10.6386H10.6816H10.7246H10.7677H10.8107H10.8537H10.8968H10.9398H10.9828H11.0259H11.0689H11.112H11.155H11.198H11.2411H11.2841H11.3271H11.3702H11.4132H11.4562H11.4993H11.5423H11.5853H11.6284H11.6714H11.7144H11.7575H11.8005H11.8435H11.8866H11.9296H11.9726H12.0157H12.0587H12.1017H12.1448H12.1878H12.2309H12.2739H12.3169H12.36H12.403H12.446H12.4891H12.5321H12.5751H12.6182H12.6612H12.7042H12.7473H12.7903H12.8333H12.8764H12.9194H12.9624H13.0055H13.0485H13.0915H13.1346H13.1776H13.2206H13.2637H13.3067H13.3498H13.3928H13.4358H13.4789H13.5219H13.5649H13.608H13.651H13.694H13.7371H13.7801H13.8231H13.8662H13.9092H13.9522H13.9953H14.0383H14.0813H14.1244H14.1674H14.2104H14.2535H14.2965H14.3395H14.3826H14.4256H14.4687H14.5117H14.5547H14.5978H14.6408H14.6838H14.7269H14.7699H14.8129H14.856H14.899H14.942H14.9851H15.0281H15.0711H15.1142H15.1572H15.2002H15.2433H15.2863H15.3293H15.3724H15.4154H15.4584H15.5015H15.5445H15.5876H15.6306H15.6736H15.7167H15.7597H15.8027H15.8458H15.8888H15.9318H15.9749H16.0179H16.0609H16.104H16.147H16.19H16.2331H16.2761H16.3191H16.3622H16.4052H16.4482H16.4913H16.5343H16.5773H16.6204H16.6634H16.7065H16.7495H16.7925H16.8356H16.8786H16.9216H16.9647H17.0077H17.0507H17.0938H17.1368H17.1798H17.2229H17.2659H17.3089H17.352H17.395H17.438H17.4811H17.5241H17.5671H17.6102H17.6532H17.6962H17.7393H17.7823H17.8254H17.8684H17.9114H17.9545H17.9975H18.0405H18.0836H18.1266H18.1696H18.2127H18.2557H18.2987H18.3418H18.3848H18.4278H18.4709H18.5139H18.5569H18.6H18.643H18.686H18.7291H18.7721H18.8151H18.8582H18.9012H18.9443H18.9873H19.0303H19.0734H19.1164H19.1594H19.2025H19.2455H19.2885H19.3316H19.3746H19.4176H19.4607H19.5037H19.5467H19.5898H19.6328H19.6758H19.7189H19.7619H19.8049H19.848H19.891H19.934H19.9771H20.0201H20.0632H20.1062H20.1492H20.1923H20.2353H20.2783H20.3214H20.3644H20.4074H20.4505H20.4935H20.5365H20.5796H20.6226H20.6656H20.7087H20.7517H20.7947H20.8378H20.8808H20.9238H20.9669H21.0099H21.0529H21.096H21.139H21.1821H21.2251H21.2681H21.3112H21.3542H21.3972H21.4403H21.4833H21.5263H21.5694H21.6124H21.6554H21.6985H21.7415H21.7845H21.8276H21.8706H21.9136H21.9567H21.9997H22.0427H22.0858H22.1288H22.1718H22.2149H22.2579H22.301H22.344H22.387H22.4301H22.4731H22.5161H22.5592H22.6022H22.6452H22.6883H22.7313H22.7743H22.8174H22.8604H22.9034H22.9465H22.9895H23.0325H23.0756H23.1186H23.1616H23.2047H23.2477H23.2907H23.3338H23.3768H23.4199H23.4629H23.5059H23.549H23.592H23.635H23.6781H23.7211H23.7505C23.7596 8.89144 23.7499 11.7058 23.7214 14.52C23.6252 14.8136 23.4338 15.005 23.1403 15.1013C16.2691 15.1397 9.39793 15.1397 2.52675 15.1013C2.25537 15.01 2.06311 14.8355 1.94518 14.5725Z" fill="white" stroke="white" stroke-width="0.2"/>
<path opacity="0.929" d="M20.0007 8.19432L19.9814 8.57967L19.9911 8.58275L19.9725 8.57988L19.8895 8.5951C19.6367 8.64144 19.396 8.73023 19.1957 8.87976C19.3246 8.77825 19.4777 8.6964 19.6566 8.63233L19.9666 8.52134L19.9871 8.19277L20.0031 7.93709C20.0059 8.02243 20.0051 8.10816 20.0007 8.19432ZM18.7147 9.66899C18.7156 9.66546 18.7164 9.66194 18.7173 9.65842C18.7164 9.66321 18.7155 9.66801 18.7147 9.67281C18.7147 9.67154 18.7147 9.67027 18.7147 9.66899ZM19.0658 10.8495C19.0117 10.7924 18.9621 10.7264 18.9183 10.6501C19.0152 10.7876 19.1326 10.9097 19.2693 11.0152L19.2744 11.0192C19.1929 10.9681 19.124 10.911 19.0658 10.8495ZM20.0724 11.2615C19.797 11.2333 19.5778 11.1731 19.4041 11.0902L19.4312 11.0984C19.6427 11.1618 19.8565 11.2162 20.0724 11.2615ZM21.2211 12.13C21.1728 12.0039 21.1105 11.8883 21.035 11.7839C21.1034 11.8699 21.1543 11.9578 21.1909 12.0467C21.202 12.0735 21.212 12.1013 21.2211 12.13ZM20.9936 13.3645C21.2255 13.0643 21.2841 12.6788 21.2597 12.2986C21.2926 12.5183 21.2697 12.7847 21.1664 13.1106C21.1152 13.2027 21.0577 13.2872 20.9936 13.3645ZM19.7151 13.8364C20.0879 13.8613 20.4663 13.8067 20.7649 13.5876C20.642 13.6845 20.502 13.7641 20.3436 13.8274L20.0431 13.9474L20.0295 14.2707C20.0247 14.3829 20.0164 14.4945 20.0045 14.6056C19.9906 14.4749 19.9735 14.3445 19.9531 14.2145L19.9087 13.9305L19.658 13.8326L19.7151 13.8364ZM18.8785 13.2391C19.0124 13.4308 19.1854 13.5862 19.3871 13.7085C19.1571 13.5825 19.0006 13.4333 18.8973 13.27C18.8909 13.2598 18.8846 13.2495 18.8785 13.2391Z" fill="black" stroke="white"/>
<path opacity="0.936" d="M4.34332 7.57887L4.32803 7.5789L4.31537 7.58748C4.09327 7.73805 3.96383 7.90328 3.95278 8.0856C3.94172 8.26804 4.05046 8.4467 4.25298 8.62098L4.26685 8.63292L4.28515 8.63308C8.64205 8.67166 12.999 8.67166 17.3559 8.63308L17.3636 8.63301L17.3709 8.63064C17.4635 8.60056 17.5395 8.54621 17.5978 8.46855L17.5986 8.46915L17.603 8.46014C17.6894 8.28013 17.7137 8.11461 17.6648 7.96797C17.6159 7.82126 17.4973 7.70412 17.3205 7.61331L17.3099 7.60786L17.298 7.60778C12.9798 7.57887 8.66155 7.56921 4.34332 7.57887Z" fill="white" stroke="white" stroke-width="0.1"/>
<path opacity="0.93" d="M4.39265 9.54518L4.38494 9.54522L4.3776 9.54758C4.24172 9.59136 4.12745 9.67495 4.03509 9.7962L4.03419 9.79552L4.02964 9.80518C3.95478 9.96395 3.93215 10.1127 3.97009 10.2482C4.00806 10.3838 4.10434 10.4977 4.25024 10.5915L4.2621 10.5991L4.2762 10.5994C6.06968 10.638 7.86317 10.638 9.65666 10.5994L9.67063 10.5991L9.68242 10.5916C9.86488 10.4755 9.96956 10.3079 9.99441 10.0925L9.99524 10.0853L9.99399 10.0781C9.97172 9.95101 9.92422 9.84364 9.84968 9.75845C9.7751 9.67321 9.67583 9.6129 9.55437 9.57623L9.55494 9.57434L9.54076 9.5741C7.82482 9.54518 6.10883 9.53552 4.39265 9.54518Z" fill="white" stroke="white" stroke-width="0.1"/>
</svg>
