<svg width="512" height="512" viewBox="0 0 512 512" fill="none" xmlns="http://www.w3.org/2000/svg">
<path d="M401.188 103.625C405.993 106.242 408.284 109.852 410 115C410.584 120.957 409.277 125.1 406 130C402.23 134.336 398.158 138.348 394.071 142.383C392.838 143.615 391.606 144.847 390.375 146.081C387.043 149.414 383.7 152.734 380.353 156.052C376.853 159.527 373.365 163.013 369.875 166.498C363.271 173.09 356.657 179.671 350.039 186.249C342.503 193.741 334.978 201.243 327.454 208.747C311.982 224.178 296.496 239.594 281 255C282.577 258.817 284.981 261.222 287.89 264.117C288.392 264.619 288.894 265.121 289.411 265.639C291.093 267.319 292.782 268.992 294.47 270.666C295.678 271.87 296.885 273.074 298.092 274.279C300.692 276.872 303.294 279.462 305.899 282.049C310.018 286.141 314.129 290.24 318.239 294.341C327.708 303.786 337.187 313.221 346.666 322.656C355.351 331.3 364.033 339.947 372.708 348.601C376.794 352.677 380.885 356.748 384.979 360.815C387.526 363.347 390.068 365.883 392.61 368.42C393.789 369.596 394.97 370.769 396.152 371.941C397.767 373.541 399.376 375.148 400.983 376.756C401.885 377.653 402.787 378.551 403.716 379.475C408.689 384.973 409.553 388.846 409.348 396.121C408.711 401.39 406.21 403.851 402.5 407.375C397.423 409.732 392.476 410.245 387 409C379.297 404.454 373.148 397.417 366.893 391.12C365.69 389.916 364.487 388.714 363.283 387.511C360.035 384.264 356.794 381.011 353.554 377.756C350.159 374.349 346.759 370.948 343.36 367.547C336.932 361.112 330.508 354.673 324.087 348.231C316.773 340.895 309.453 333.564 302.133 326.234C287.082 311.162 272.039 296.083 257 281C253.167 282.58 250.76 285.004 247.859 287.928C247.354 288.434 246.849 288.94 246.329 289.461C244.639 291.157 242.957 292.86 241.274 294.562C240.064 295.78 238.853 296.997 237.642 298.214C235.034 300.834 232.429 303.458 229.827 306.084C225.71 310.237 221.585 314.382 217.458 318.525C205.723 330.308 194.001 342.102 182.287 353.905C175.817 360.424 169.341 366.935 162.856 373.439C158.754 377.555 154.66 381.679 150.573 385.81C148.026 388.381 145.47 390.943 142.912 393.504C141.73 394.69 140.551 395.881 139.375 397.075C137.767 398.708 136.146 400.328 134.522 401.945C133.62 402.854 132.717 403.763 131.787 404.7C127.682 408.088 123.862 409.801 118.5 410.375C113.216 409.809 109.429 408.468 105.688 404.625C102.5 399.666 101.395 395.952 102 390C105.145 381.492 111.613 375.852 117.929 369.617C119.162 368.385 120.394 367.153 121.625 365.919C124.957 362.586 128.301 359.266 131.647 355.948C135.147 352.473 138.635 348.987 142.125 345.502C148.729 338.91 155.343 332.329 161.961 325.751C169.497 318.26 177.022 310.757 184.546 303.253C200.018 287.822 215.504 272.407 231 257C229.423 253.183 227.019 250.778 224.11 247.883C223.608 247.381 223.106 246.879 222.589 246.361C220.907 244.681 219.219 243.008 217.53 241.334C216.322 240.13 215.115 238.926 213.908 237.721C211.308 235.128 208.706 232.538 206.101 229.951C201.982 225.859 197.871 221.76 193.761 217.659C184.292 208.214 174.813 198.779 165.334 189.344C156.649 180.7 147.967 172.053 139.292 163.399C135.206 159.323 131.116 155.252 127.021 151.185C124.474 148.653 121.932 146.117 119.39 143.58C118.211 142.405 117.03 141.231 115.848 140.059C114.233 138.459 112.624 136.852 111.017 135.244C109.664 133.898 109.664 133.898 108.284 132.525C103.311 127.027 102.447 123.154 102.652 115.879C103.289 110.61 105.79 108.149 109.5 104.625C114.577 102.268 119.524 101.755 125 103C132.703 107.547 138.852 114.583 145.107 120.88C146.31 122.084 147.513 123.286 148.717 124.489C151.965 127.736 155.206 130.989 158.447 134.244C161.841 137.651 165.241 141.052 168.64 144.454C175.068 150.888 181.492 157.327 187.913 163.769C195.227 171.105 202.547 178.436 209.867 185.766C224.918 200.838 239.961 215.917 255 231C258.833 229.42 261.24 226.996 264.141 224.072C264.646 223.566 265.151 223.06 265.671 222.539C267.361 220.843 269.043 219.141 270.726 217.438C271.936 216.22 273.147 215.003 274.359 213.787C276.966 211.166 279.571 208.542 282.173 205.916C286.29 201.763 290.415 197.618 294.542 193.475C306.277 181.692 317.999 169.898 329.713 158.095C336.183 151.576 342.659 145.065 349.144 138.561C353.246 134.445 357.34 130.321 361.427 126.19C363.974 123.619 366.53 121.057 369.088 118.497C370.27 117.31 371.449 116.119 372.625 114.925C374.233 113.292 375.854 111.672 377.478 110.055C378.832 108.691 378.832 108.691 380.213 107.3C386.548 102.071 393.439 100.195 401.188 103.625Z" fill="black"/>
</svg>
