<svg width="28" height="30" viewBox="0 0 28 30" fill="none" xmlns="http://www.w3.org/2000/svg">
<g filter="url(#filter0_d_36_277)">
<path d="M19.9375 3.93333H18.9V2.89583C18.9 2.59449 18.6555 2.35 18.3542 2.35C18.0528 2.35 17.8083 2.59449 17.8083 2.89583V3.93333H10.1917V2.89583C10.1917 2.59449 9.94718 2.35 9.64583 2.35C9.34449 2.35 9.1 2.59449 9.1 2.89583V3.93333H8.0625C6.01553 3.93333 4.35 5.59887 4.35 7.64583V17.9375C4.35 19.9845 6.01553 21.65 8.0625 21.65H19.9375C21.9845 21.65 23.65 19.9845 23.65 17.9375V7.64583C23.65 5.59887 21.9845 3.93333 19.9375 3.93333ZM8.0625 5.025H19.9375C21.3826 5.025 22.5583 6.20076 22.5583 7.64583V8.68333H5.44167V7.64583C5.44167 6.20076 6.61743 5.025 8.0625 5.025ZM8.0625 20.5583C6.61743 20.5583 5.44167 19.3826 5.44167 17.9375V9.775H22.5583V17.9375C22.5583 19.3826 21.3826 20.5583 19.9375 20.5583H8.0625ZM19.1458 13.7333C19.4472 13.7333 19.6917 13.4888 19.6917 13.1875C19.6917 12.8862 19.4472 12.6417 19.1458 12.6417H8.85417C8.55282 12.6417 8.30833 12.8862 8.30833 13.1875C8.30833 13.4888 8.55282 13.7333 8.85417 13.7333H19.1458ZM13.6042 17.6917C13.9055 17.6917 14.15 17.4472 14.15 17.1458C14.15 16.8445 13.9055 16.6 13.6042 16.6H8.85417C8.55282 16.6 8.30833 16.8445 8.30833 17.1458C8.30833 17.4472 8.55282 17.6917 8.85417 17.6917H13.6042Z" fill="#424242" stroke="#424242" stroke-width="0.3"/>
</g>
<defs>
<filter id="filter0_d_36_277" x="-2" y="0" width="32" height="32" filterUnits="userSpaceOnUse" color-interpolation-filters="sRGB">
<feFlood flood-opacity="0" result="BackgroundImageFix"/>
<feColorMatrix in="SourceAlpha" type="matrix" values="0 0 0 0 0 0 0 0 0 0 0 0 0 0 0 0 0 0 127 0" result="hardAlpha"/>
<feOffset dy="4"/>
<feGaussianBlur stdDeviation="2"/>
<feComposite in2="hardAlpha" operator="out"/>
<feColorMatrix type="matrix" values="0 0 0 0 0 0 0 0 0 0 0 0 0 0 0 0 0 0 0.25 0"/>
<feBlend mode="normal" in2="BackgroundImageFix" result="effect1_dropShadow_36_277"/>
<feBlend mode="normal" in="SourceGraphic" in2="effect1_dropShadow_36_277" result="shape"/>
</filter>
</defs>
</svg>
