<svg width="24" height="20" viewBox="0 0 24 20" fill="none" xmlns="http://www.w3.org/2000/svg">
<path d="M18.0991 13.5101C18.8522 14.2211 19.3708 15.1228 19.4079 16.178C19.4181 16.9975 19.1615 17.6611 18.596 18.2568C16.9391 19.8298 14.179 19.8201 12.0376 19.8177C11.9546 19.8176 11.9546 19.8176 11.8699 19.8175C10.2462 19.8145 8.50132 19.7912 6.96657 19.1946C6.91547 19.175 6.91547 19.175 6.86334 19.1551C6.38858 18.9706 5.9841 18.751 5.58618 18.4277C5.52252 18.3807 5.52252 18.3807 5.45757 18.3326C5.00002 17.9384 4.70635 17.3314 4.6148 16.7406C4.54814 15.7341 4.78352 14.8123 5.44579 14.0305C5.47525 13.9969 5.50471 13.9633 5.53506 13.9287C5.56293 13.893 5.59081 13.8572 5.61953 13.8204C6.81682 12.3481 9.00078 11.6872 10.8126 11.4888C13.3912 11.2394 16.1029 11.7781 18.0991 13.5101ZM7.2222 14.6444C7.17053 14.6824 7.11886 14.7204 7.06562 14.7595C6.66683 15.0983 6.34699 15.6077 6.28277 16.1295C6.26718 16.521 6.32678 16.7499 6.58952 17.0353C7.33405 17.7489 8.48792 17.8986 9.47171 18.0187C9.53449 18.0267 9.53449 18.0267 9.59853 18.0349C11.8268 18.3045 15.293 18.542 17.2428 17.2007C17.4856 16.9828 17.6774 16.7578 17.7155 16.4266C17.7436 15.8853 17.5331 15.4588 17.1917 15.0534C17.1558 15.0039 17.12 14.9543 17.083 14.9033C16.0495 13.6969 14.149 13.2596 12.6487 13.1344C10.7683 12.9968 8.69214 13.3999 7.2222 14.6444Z" fill="#424242"/>
<path d="M11.9928 0.000192616C12.0576 0.000616872 12.1224 0.00104113 12.1891 0.00147824C13.5435 0.0258177 14.6404 0.574998 15.6068 1.5052C15.6404 1.53505 15.6741 1.56491 15.7088 1.59567C16.4932 2.31123 16.9899 3.54262 17.0445 4.59053C17.0884 5.99262 16.7779 7.21559 15.8624 8.30488C15.8301 8.34521 15.7978 8.38554 15.7645 8.4271C14.9615 9.38349 13.7491 9.93762 12.5233 10.0783C11.1562 10.1941 9.81333 9.81979 8.75076 8.94395C7.7949 8.11948 7.0646 6.92895 6.96657 5.64636C6.89508 4.10203 7.2305 2.73356 8.28904 1.5695C9.26045 0.540347 10.5825 -0.0118417 11.9928 0.000192616ZM9.88071 2.42545C9.8392 2.4563 9.79768 2.48714 9.7549 2.51892C9.13155 3.05212 8.71759 3.88065 8.64267 4.69225C8.58843 5.6624 8.82719 6.52348 9.46792 7.27039C9.98343 7.8257 10.6134 8.21102 11.3634 8.356C11.4519 8.3734 11.4519 8.3734 11.5423 8.39115C12.5004 8.4767 13.3631 8.22963 14.1241 7.64025C14.1555 7.61791 14.1869 7.59557 14.2192 7.57255C14.8589 7.08393 15.2389 6.21743 15.3511 5.44185C15.4256 4.55403 15.2348 3.71441 14.6795 3.00082C14.567 2.87179 14.4504 2.75027 14.3286 2.62996C14.2759 2.57559 14.2759 2.57559 14.2222 2.52012C13.0343 1.36968 11.1327 1.42839 9.88071 2.42545Z" fill="#424242"/>
<path d="M20.141 1.51156C20.5027 1.71578 20.7871 1.97856 21.0772 2.27205C21.1113 2.30567 21.1455 2.33928 21.1806 2.37391C21.9192 3.15252 22.1756 4.19884 22.1618 5.24252C22.1289 6.29832 21.6521 7.20596 20.9238 7.94698C20.8924 7.97901 20.8611 8.01104 20.8288 8.04404C20.3524 8.49397 19.6316 8.91196 18.9683 8.94392C18.7145 8.93184 18.5698 8.8676 18.3675 8.71386C18.1572 8.44266 18.0838 8.23906 18.1119 7.89585C18.2091 7.59828 18.3402 7.42629 18.6232 7.28235C18.7305 7.2424 18.8381 7.20305 18.9459 7.16412C19.5618 6.93473 19.9818 6.51641 20.2574 5.92533C20.4971 5.35636 20.4769 4.74474 20.2756 4.16549C20.0148 3.56612 19.5644 3.13804 18.9661 2.88616C18.8389 2.83862 18.7115 2.79725 18.5816 2.75775C18.3337 2.67911 18.1435 2.55852 18.0027 2.33197C17.9063 2.08961 17.9161 1.79726 17.9919 1.54951C18.0889 1.35712 18.2236 1.22421 18.4175 1.13012C18.9896 0.942352 19.6324 1.25851 20.141 1.51156Z" fill="#424242"/>
<path d="M5.65648 1.18251C5.86377 1.36512 6.02845 1.52934 6.0567 1.81459C6.0621 2.07497 6.04308 2.25401 5.89294 2.47663C5.69654 2.66005 5.4918 2.74419 5.24109 2.82811C4.91382 2.94477 4.63041 3.07235 4.35918 3.29463C4.32741 3.32014 4.29564 3.34564 4.26292 3.37192C3.86194 3.73037 3.62248 4.28586 3.57512 4.81621C3.5678 5.55218 3.73503 6.11997 4.25073 6.66891C4.52825 6.92904 4.84665 7.09084 5.19895 7.22869C5.48331 7.34196 5.69021 7.46847 5.84181 7.74254C5.92833 8.01431 5.90806 8.25964 5.79528 8.52001C5.67232 8.7223 5.50405 8.84356 5.27943 8.91843C4.62925 9.00629 4.01153 8.66116 3.49004 8.30492C3.30886 8.16134 3.14233 8.00806 2.97879 7.84479C2.92521 7.7921 2.92521 7.7921 2.87055 7.73835C2.08211 6.91156 1.8169 5.86661 1.83845 4.7541C1.87438 3.88418 2.23722 3.01824 2.82541 2.37437C2.86377 2.33193 2.90213 2.28949 2.94164 2.24576C3.23098 1.94091 3.53371 1.71171 3.89905 1.50524C3.93305 1.48541 3.96706 1.46557 4.0021 1.44513C4.47982 1.18519 5.13848 0.923509 5.65648 1.18251Z" fill="#424242"/>
<path d="M22.8949 11.829C23.4508 12.2925 23.8518 12.9061 23.9913 13.6219C24.0454 14.3798 23.8455 14.9534 23.4194 15.5743C23.0994 15.8943 22.7214 16.1551 22.3042 16.3316C22.2557 16.3527 22.2072 16.3738 22.1572 16.3955C21.8671 16.4651 21.5964 16.4726 21.3136 16.3731C21.0919 16.22 20.9371 16.0328 20.8727 15.7692C20.8727 15.4876 20.8885 15.2235 21.0772 15.0023C21.2544 14.8597 21.4277 14.7803 21.6396 14.7052C21.8997 14.6043 22.0649 14.481 22.202 14.2354C22.2575 14.0926 22.2765 13.9785 22.2531 13.8264C22.1981 13.7106 22.1355 13.6112 22.0602 13.5075C21.9974 13.4174 21.9974 13.4174 21.9463 13.2641C21.8796 13.2273 21.8111 13.1936 21.7418 13.1618C21.6645 13.1062 21.5879 13.0497 21.5118 12.9925C20.9376 12.586 20.3108 12.4403 19.6219 12.3931C19.2914 12.3633 19.0917 12.2558 18.8596 12.0115C18.737 11.7474 18.738 11.5053 18.7765 11.219C18.8935 10.9672 19.0462 10.8409 19.2878 10.7078C20.4958 10.3747 21.964 11.1258 22.8949 11.829Z" fill="#424242"/>
<path d="M4.96948 10.8484C5.19649 11.096 5.26043 11.3217 5.24948 11.6518C5.2145 11.8659 5.12544 12.0366 4.97268 12.1904C4.71041 12.3586 4.45054 12.3829 4.14828 12.4173C3.35717 12.5199 2.55985 12.7514 2.00741 13.3663C1.86582 13.5638 1.76625 13.746 1.72302 13.9862C1.77198 14.2364 1.8522 14.4165 2.05973 14.5652C2.23741 14.6661 2.41725 14.7479 2.60813 14.8202C2.85822 14.9404 2.98188 15.1064 3.10021 15.3538C3.15552 15.6303 3.124 15.8366 2.99796 16.0887C2.82459 16.2895 2.6644 16.4064 2.40523 16.4552C1.82332 16.4901 1.30937 16.1954 0.868667 15.8431C0.395713 15.4189 0.0456912 14.8572 0.00133211 14.2115C-0.0233015 13.3237 0.294352 12.6594 0.90102 12.0105C1.78179 11.1831 3.78113 10.1404 4.96948 10.8484Z" fill="#424242"/>
</svg>
