<svg width="24" height="24" viewBox="0 0 24 24" fill="none" xmlns="http://www.w3.org/2000/svg">
<path d="M14.7969 0.809609C15.3994 1.2806 15.8136 1.84733 15.9626 2.60673C15.9705 2.7327 15.974 2.85901 15.9736 2.98524C15.9736 3.02082 15.9736 3.05641 15.9736 3.09308C15.9736 3.20924 15.9728 3.32538 15.9721 3.44154C15.9719 3.52265 15.9717 3.60377 15.9716 3.68489C15.9713 3.89729 15.9703 4.10968 15.9692 4.32207C15.9682 4.53925 15.9678 4.75643 15.9673 4.9736C15.9663 5.39892 15.9646 5.82422 15.9626 6.24953C15.9953 6.2491 16.0281 6.24867 16.0618 6.24823C16.407 6.24388 16.7522 6.24098 17.0974 6.23886C17.2257 6.238 17.354 6.23657 17.4823 6.23488C19.0508 6.21468 20.3443 6.48972 21.4996 7.60952C21.5433 7.64783 21.5433 7.64783 21.5879 7.68693C22.3203 8.35313 22.7428 9.41688 22.8596 10.378C22.8617 10.4884 22.8616 10.5988 22.8596 10.7091C22.8597 10.7703 22.8597 10.8314 22.8598 10.8944C22.8597 11.0219 22.858 11.1494 22.8549 11.2769C22.8473 11.6098 22.8473 11.6098 23.0014 11.888C23.113 11.9608 23.2256 12.0197 23.3453 12.078C23.7069 12.3982 23.8945 12.7716 23.9767 13.2437C23.9817 13.3297 23.9844 13.4159 23.9853 13.502C23.986 13.5525 23.9866 13.603 23.9872 13.6549C23.9878 13.7361 23.9878 13.7361 23.9883 13.819C23.9887 13.8754 23.9891 13.9317 23.9895 13.9898C23.9902 14.1092 23.9907 14.2286 23.9911 14.3479C23.9916 14.4692 23.9926 14.5904 23.9941 14.7117C23.9962 14.8877 23.9969 15.0637 23.9974 15.2397C23.9983 15.293 23.9991 15.3464 24 15.4013C23.9985 15.9504 23.88 16.4816 23.491 16.8865C23.3087 17.064 23.1377 17.2126 22.9082 17.3237C22.9075 17.3698 22.9075 17.3698 22.9068 17.4168C22.8803 18.8512 22.5739 20.0691 21.5968 21.1608C21.5575 21.206 21.5575 21.206 21.5175 21.2522C20.7424 22.0896 19.5494 22.5702 18.4251 22.6231C18.1152 22.6315 17.8053 22.6294 17.4953 22.628C17.3917 22.6279 17.2881 22.6278 17.1845 22.6278C16.9626 22.6277 16.7407 22.6273 16.5188 22.6268C16.1677 22.6259 15.8166 22.6261 15.4655 22.6264C14.4675 22.6274 13.4695 22.6277 12.4715 22.6254C11.9194 22.6241 11.3672 22.6241 10.8151 22.6253C10.5233 22.626 10.2316 22.626 9.93989 22.6245C9.66575 22.6231 9.39166 22.6232 9.11751 22.6246C9.01715 22.6248 8.91678 22.6245 8.81642 22.6235C8.07538 22.6158 8.07538 22.6158 7.46268 23.0064C7.04803 23.2561 6.56937 23.4227 6.1027 23.5407C6.05994 23.5517 6.01718 23.5626 5.97312 23.5739C4.73603 23.8328 3.37854 23.5852 2.31418 22.9093C1.12753 22.1182 0.377131 20.9982 0.0799279 19.6065C-0.119477 18.4997 0.0585456 17.3948 0.565636 16.4008C0.591619 16.3495 0.617602 16.2981 0.644373 16.2452C0.878792 15.8158 1.19146 15.435 1.53705 15.0894C1.55186 14.9406 1.55186 14.9406 1.54927 14.7621C1.54941 14.7281 1.54956 14.694 1.54971 14.6589C1.55008 14.5443 1.54976 14.4296 1.54945 14.3149C1.54959 14.2329 1.54977 14.1509 1.54999 14.0689C1.55038 13.8918 1.55049 13.7148 1.55038 13.5377C1.55024 13.2572 1.55094 12.9766 1.55179 12.6961C1.55407 11.8981 1.55523 11.1002 1.55555 10.3022C1.55573 9.86177 1.55661 9.42136 1.55822 8.98095C1.5592 8.70276 1.55932 8.42458 1.55879 8.14639C1.55867 7.97207 1.55935 7.79777 1.56026 7.62346C1.56051 7.54342 1.56045 7.46339 1.56001 7.38336C1.55512 6.40345 1.78711 5.51885 2.41132 4.74384C2.44075 4.70584 2.47018 4.66783 2.5005 4.62867C3.0495 3.96037 3.86589 3.62032 4.65944 3.33361C4.8464 3.26603 5.03291 3.19723 5.21951 3.12867C5.27917 3.10681 5.27917 3.10681 5.34004 3.0845C5.82016 2.90835 6.29835 2.72712 6.77662 2.54601C6.86956 2.51085 6.96251 2.4757 7.05545 2.44055C7.24345 2.36944 7.43144 2.2983 7.61942 2.22715C7.89394 2.12324 8.16847 2.01937 8.44302 1.91554C8.48765 1.89866 8.53229 1.88178 8.57828 1.86438C8.80278 1.77949 9.0273 1.69468 9.25188 1.61002C9.34224 1.57595 9.4326 1.54188 9.52296 1.50781C9.56803 1.49082 9.61309 1.47383 9.65953 1.45633C9.96016 1.3429 10.2605 1.2287 10.5607 1.11413C10.7736 1.03296 10.9866 0.95217 11.1997 0.871436C11.3016 0.832703 11.4035 0.793809 11.5053 0.754743C11.6473 0.700318 11.7894 0.646475 11.9316 0.592748C11.9729 0.576749 12.0142 0.56075 12.0567 0.544266C12.9707 0.201773 13.9796 0.240333 14.7969 0.809609ZM12.6931 2.03298C12.6557 2.04586 12.6183 2.05873 12.5797 2.07199C12.1401 2.22587 11.7059 2.39474 11.2714 2.56219C10.6479 2.80234 10.0231 3.03862 9.39783 3.27399C9.17611 3.35745 8.95442 3.44101 8.73276 3.52463C8.6038 3.57327 8.47484 3.6219 8.34587 3.67054C8.31371 3.68267 8.28154 3.69481 8.24839 3.70731C7.85303 3.85639 7.45755 4.00516 7.06189 4.15348C6.80328 4.25044 6.54476 4.34765 6.28631 4.44504C6.13384 4.50248 5.98131 4.55975 5.82867 4.61678C4.38044 5.11017 4.38044 5.11017 3.38274 6.20096C3.24741 6.4978 3.18189 6.76207 3.18542 7.08738C3.18608 7.16589 3.18608 7.16589 3.18675 7.24599C3.18731 7.28581 3.18788 7.32563 3.18846 7.36666C3.23617 7.33576 3.23617 7.33576 3.28484 7.30424C3.43024 7.2108 3.57649 7.11877 3.72274 7.02667C3.76713 6.99762 3.81152 6.96856 3.85725 6.93863C4.14239 6.75997 4.42811 6.63257 4.74576 6.52578C4.7807 6.51401 4.81564 6.50223 4.85164 6.4901C5.42096 6.30858 5.97599 6.28334 6.56843 6.28262C6.65369 6.28217 6.73894 6.28167 6.8242 6.28114C7.05417 6.27982 7.28413 6.27908 7.51411 6.27845C7.75499 6.27769 7.99587 6.27639 8.23675 6.27514C8.69224 6.27288 9.14773 6.27109 9.60321 6.26948C10.122 6.26762 10.6409 6.26522 11.1597 6.26277C12.2264 6.25776 13.2931 6.25343 14.3597 6.24953C14.3642 5.80662 14.3677 5.36371 14.3698 4.92077C14.3708 4.71507 14.3722 4.50938 14.3744 4.30369C14.3765 4.10497 14.3777 3.90626 14.3782 3.70753C14.3785 3.63193 14.3792 3.55634 14.3803 3.48075C14.3864 3.02085 14.3838 2.67158 14.0751 2.30525C13.6375 1.93361 13.2492 1.83662 12.6931 2.03298ZM4.88236 8.17415C4.84953 8.19086 4.8167 8.20758 4.78287 8.2248C4.48552 8.3827 4.24681 8.5804 4.01416 8.82378C3.97434 8.86135 3.97434 8.86135 3.93371 8.89968C3.75198 9.08528 3.63748 9.30829 3.51935 9.53717C3.50315 9.56801 3.48696 9.59885 3.47028 9.63062C3.19499 10.1875 3.16796 10.7479 3.17423 11.3563C3.1745 11.435 3.17471 11.5136 3.17485 11.5923C3.1754 11.7973 3.17683 12.0024 3.17845 12.2074C3.17995 12.4174 3.18061 12.6275 3.18134 12.8375C3.1829 13.2482 3.18538 13.6588 3.18846 14.0694C3.24118 14.056 3.29389 14.0425 3.34821 14.0286C3.41841 14.0109 3.48861 13.9931 3.55881 13.9753C3.61074 13.962 3.61074 13.962 3.66373 13.9485C4.96819 13.6194 6.33331 13.7957 7.49608 14.4612C8.61643 15.1326 9.41074 16.2085 9.74551 17.4694C10.0013 18.5387 9.8822 19.635 9.49545 20.6498C9.48207 20.6852 9.46869 20.7206 9.4549 20.757C9.42235 20.8431 9.38966 20.9291 9.35694 21.015C10.5341 21.0196 11.7112 21.023 12.8884 21.0251C13.435 21.0261 13.9817 21.0275 14.5283 21.0297C15.005 21.0316 15.4818 21.0329 15.9585 21.0333C16.2107 21.0336 16.4628 21.0342 16.715 21.0356C16.9529 21.0369 17.1908 21.0373 17.4288 21.037C17.5155 21.0371 17.6023 21.0375 17.6891 21.0382C18.7197 21.0467 19.6131 20.8225 20.3825 20.0922C21.013 19.4362 21.2764 18.6458 21.2643 17.7506C21.2623 17.6569 21.2596 17.5631 21.2568 17.4694C21.2115 17.4687 21.1663 17.468 21.1197 17.4672C20.9486 17.4642 20.7777 17.4606 20.6067 17.4566C20.5332 17.455 20.4598 17.4537 20.3864 17.4526C19.4329 17.4377 18.5603 17.2426 17.8568 16.5465C17.4134 16.0328 17.1334 15.429 17.0797 14.7494C17.0771 14.7177 17.0744 14.6859 17.0717 14.6532C17.0402 13.8902 17.3132 13.1565 17.8204 12.5911C18.3145 12.0679 18.9934 11.7095 19.7184 11.674C19.79 11.672 19.8617 11.6705 19.9334 11.6693C19.9716 11.6684 20.0098 11.6675 20.0492 11.6665C20.1694 11.6636 20.2896 11.6614 20.4098 11.6591C20.4921 11.6572 20.5743 11.6553 20.6566 11.6534C20.8566 11.6488 21.0567 11.6447 21.2568 11.6409C21.2828 10.5903 21.2006 9.65486 20.4614 8.84503C19.8977 8.25712 19.1398 7.86494 18.3166 7.83403C18.2231 7.83325 18.1296 7.83323 18.0361 7.83387C17.9841 7.83364 17.932 7.83341 17.8784 7.83318C17.7057 7.8326 17.533 7.83306 17.3603 7.83352C17.2358 7.83332 17.1113 7.83306 16.9868 7.83274C16.6847 7.83215 16.3827 7.83223 16.0806 7.83266C15.835 7.83299 15.5893 7.83303 15.3436 7.83287C15.3086 7.83285 15.2735 7.83283 15.2374 7.8328C15.1661 7.83276 15.0948 7.83271 15.0236 7.83266C14.3566 7.83225 13.6896 7.83272 13.0226 7.83351C12.4513 7.83416 11.88 7.83404 11.3087 7.83337C10.644 7.83259 9.9793 7.83229 9.31457 7.83273C9.24358 7.83278 9.17259 7.83283 9.1016 7.83287C9.06668 7.83289 9.03176 7.83292 8.99578 7.83294C8.75065 7.83307 8.50551 7.83285 8.26038 7.83251C7.92996 7.83206 7.59955 7.83238 7.26913 7.83322C7.14813 7.83342 7.02713 7.83336 6.90613 7.83304C6.74045 7.83264 6.5748 7.83314 6.40913 7.83387C6.36171 7.83354 6.31429 7.83322 6.26543 7.83288C5.77731 7.83699 5.31629 7.95023 4.88236 8.17415ZM18.8768 13.778C18.683 14.0789 18.5995 14.4194 18.652 14.7741C18.7503 15.1733 18.9766 15.4425 19.317 15.6662C19.6531 15.8694 19.9712 15.8821 20.3542 15.8829C20.434 15.8833 20.434 15.8833 20.5153 15.8838C20.6273 15.8843 20.7392 15.8846 20.8512 15.8845C21.023 15.8848 21.1946 15.8865 21.3664 15.8884C21.4752 15.8886 21.5841 15.8888 21.693 15.8889C21.7444 15.8896 21.7959 15.8903 21.8489 15.891C21.8966 15.8907 21.9442 15.8905 21.9933 15.8901C22.0563 15.8904 22.0563 15.8904 22.1204 15.8906C22.2347 15.875 22.2347 15.875 22.3146 15.7819C22.381 15.6591 22.3923 15.587 22.3928 15.4482C22.3935 15.3821 22.3935 15.3821 22.3942 15.3146C22.3939 15.2673 22.3936 15.2201 22.3933 15.1714C22.3934 15.1225 22.3935 15.0737 22.3937 15.0233C22.3938 14.9201 22.3935 14.8169 22.3929 14.7137C22.3921 14.5557 22.3929 14.3978 22.3938 14.2398C22.3937 14.1395 22.3935 14.0392 22.3933 13.9389C22.3936 13.8916 22.3939 13.8444 22.3942 13.7957C22.3937 13.7516 22.3932 13.7075 22.3928 13.6621C22.3926 13.6041 22.3926 13.6041 22.3924 13.5449C22.3685 13.4066 22.3286 13.3416 22.2282 13.2437C22.1149 13.2147 22.1149 13.2147 21.986 13.2194C21.9367 13.2189 21.8874 13.2184 21.8366 13.218C21.7567 13.2188 21.7567 13.2188 21.6751 13.2196C21.6202 13.2196 21.5653 13.2195 21.5087 13.2194C21.3923 13.2195 21.2759 13.2201 21.1595 13.2211C20.9821 13.2225 20.8047 13.2221 20.6274 13.2214C20.5142 13.2217 20.401 13.2221 20.2878 13.2227C20.235 13.2225 20.1823 13.2224 20.1279 13.2222C19.5966 13.2288 19.2349 13.3741 18.8768 13.778ZM2.64735 16.2667C2.00448 16.8876 1.64646 17.6923 1.61465 18.5827C1.60207 19.4604 1.87508 20.2547 2.4599 20.9179C2.49176 20.9543 2.52363 20.9908 2.55647 21.0283C3.10384 21.6147 3.88252 21.997 4.68751 22.0466C5.62385 22.0701 6.45503 21.8422 7.17126 21.2093C7.21127 21.1745 7.25128 21.1396 7.2925 21.1036C7.88192 20.5555 8.2612 19.7995 8.30983 18.9927C8.3421 18.0043 8.09787 17.1418 7.41411 16.4008C6.07303 15.0444 4.07679 15.028 2.64735 16.2667Z" fill="#424242"/>
<path d="M7.06559 10.6445C7.1138 10.644 7.1138 10.644 7.16298 10.6435C7.27004 10.6426 7.37705 10.6431 7.4841 10.6436C7.56112 10.6433 7.63813 10.6428 7.71514 10.6423C7.92388 10.6412 8.1326 10.6414 8.34134 10.6418C8.51575 10.6421 8.69017 10.6417 8.86458 10.6414C9.27612 10.6405 9.68765 10.6407 10.0992 10.6415C10.5234 10.6423 10.9476 10.6416 11.3719 10.64C11.7364 10.6387 12.101 10.6383 12.4656 10.6388C12.6832 10.639 12.9007 10.6389 13.1183 10.6379C13.323 10.637 13.5276 10.6373 13.7322 10.6385C13.8072 10.6387 13.8822 10.6386 13.9571 10.6379C14.5934 10.6331 14.5934 10.6331 14.814 10.7847C15.0195 10.9887 15.0954 11.1538 15.1126 11.4406C15.1044 11.6983 15.0216 11.8897 14.8454 12.0781C14.6516 12.2187 14.5146 12.2422 14.2769 12.2429C14.2448 12.2432 14.2127 12.2435 14.1797 12.2438C14.0725 12.2446 13.9653 12.2444 13.8581 12.2442C13.7811 12.2445 13.7041 12.2449 13.6271 12.2454C13.4181 12.2465 13.2092 12.2466 13.0003 12.2465C12.8257 12.2465 12.6512 12.247 12.4767 12.2474C12.0648 12.2483 11.653 12.2484 11.2412 12.2481C10.8166 12.2478 10.392 12.2489 9.96742 12.2507C9.60265 12.2522 9.23788 12.2527 8.8731 12.2525C8.65535 12.2524 8.4376 12.2527 8.21985 12.2539C8.015 12.255 7.81019 12.2549 7.60534 12.2539C7.5303 12.2537 7.45525 12.254 7.3802 12.2547C6.74317 12.2602 6.74317 12.2602 6.52268 12.1086C6.31551 11.9028 6.24118 11.7389 6.22716 11.4497C6.23581 11.1994 6.29112 11.0632 6.44269 10.8638C6.65533 10.6948 6.79529 10.6452 7.06559 10.6445Z" fill="#424242"/>
<path d="M5.57752 16.6498C5.83417 16.8209 5.96631 16.9918 6.03548 17.2914C6.0737 17.5569 6.06836 17.8252 6.06678 18.0929C6.06626 18.1977 6.06678 18.3026 6.0674 18.4074C6.06855 19.2725 6.06855 19.2725 5.76269 19.6065C5.65261 19.6833 5.54557 19.7525 5.4301 19.8198C5.39837 19.8387 5.36665 19.8577 5.33397 19.8772C5.26727 19.9169 5.20044 19.9564 5.13349 19.9957C5.03099 20.0559 4.92889 20.1167 4.82685 20.1776C4.76183 20.2162 4.69678 20.2548 4.63171 20.2934C4.6012 20.3115 4.57069 20.3296 4.53926 20.3482C4.2576 20.5132 4.04491 20.5592 3.72272 20.5294C3.44709 20.434 3.27033 20.256 3.13987 19.9951C3.11299 19.7076 3.11068 19.4585 3.28558 19.218C3.45765 19.0547 3.63634 18.9375 3.85989 18.8588C4.07853 18.7721 4.26984 18.6913 4.40271 18.4894C4.48303 18.1437 4.46071 17.7921 4.4473 17.44C4.43848 17.1046 4.43848 17.1046 4.54007 16.9488C4.84432 16.6292 5.14758 16.498 5.57752 16.6498Z" fill="#424242"/>
</svg>
