<svg width="18" height="20" viewBox="0 0 18 20" fill="none" xmlns="http://www.w3.org/2000/svg">
<path d="M3.25701 0.107047L3.25687 0.107048C3.21349 0.107299 3.17081 0.107428 3.12878 0.107556C2.53364 0.10936 2.06791 0.110772 1.5713 0.452961L1.30151 0.677682L1.30072 0.678344L1.30071 0.678339L1.03372 0.89456C0.674707 1.28281 0.43854 1.63704 0.290258 2.02088C0.141498 2.40595 0.0793415 2.82559 0.0750044 3.3468L0.0810212 3.77196L0.0810386 3.77319C0.07995 4.25156 0.0798056 4.72955 0.0835863 5.2076L3.25701 0.107047ZM3.25701 0.107047L3.56319 0.10471C3.5632 0.10471 3.56321 0.10471 3.56322 0.10471C3.89684 0.102446 4.23048 0.101386 4.56425 0.100527L4.56435 0.100527L5.25996 0.0978441C5.25997 0.0978441 5.25997 0.0978441 5.25998 0.0978441C5.25999 0.097844 5.25999 0.097844 5.26 0.097844C5.7457 0.0962138 6.2314 0.0953053 6.71714 0.0947638L6.71716 0.0947638C7.3408 0.0939095 7.96434 0.0901715 8.58779 0.0857586L8.58726 0.0107605M3.25701 0.107047L10.7137 0.0780628C10.4836 0.0800987 10.2536 0.0813498 10.0235 0.0818212L10.0234 0.0818215C9.54472 0.0820596 9.0662 0.0828737 8.58771 0.0857592L8.58726 0.0107605M5.63577 2.04028C5.32703 2.04324 5.01828 2.04499 4.70953 2.04672M5.63577 2.04028C6.52086 2.03073 7.40594 2.02122 8.29106 2.01567C8.84508 2.01246 9.39906 2.00859 9.95305 2.00208L9.95217 1.92708L4.70953 2.04672M5.63577 2.04028L5.63496 1.96529C6.52002 1.95574 7.40527 1.94622 8.29059 1.94067L8.29062 1.94067C8.84458 1.93747 9.39836 1.93359 9.9521 1.92709M5.63577 2.04028L5.63506 1.96528C5.32649 1.96824 5.01788 1.96999 4.70911 1.97172L4.7089 1.97172L4.13754 1.97655L4.13736 1.97655L3.63561 1.9796L3.63561 1.97954L3.6325 1.97969C3.20183 2.00016 2.80942 2.06154 2.39167 2.15828L2.35073 2.16776L2.33744 2.20763C2.14923 2.77226 2.15308 3.31599 2.15708 3.88104C2.15756 3.94801 2.15803 4.01527 2.15819 4.0829C2.15819 4.08295 2.15819 4.083 2.15819 4.08305L2.15737 4.51215V4.51218C2.15668 4.98148 2.15714 5.45074 2.15766 5.91992L2.15721 6.89637V6.89639C2.15698 7.57897 2.15732 8.26155 2.15804 8.94412C2.15893 9.81987 2.15842 10.6956 2.15749 11.5714V11.5715C2.15693 12.2438 2.1571 12.9161 2.15751 13.5884L9.9521 1.92709M4.70953 2.04672L4.13799 2.05155L4.70953 2.04672ZM9.9521 1.92709C10.1622 1.92442 10.3724 1.92197 10.5826 1.91975L10.5832 1.91974L11.198 1.91822L11.1989 1.91822L11.7651 1.91043L11.7656 1.91042C12.0439 1.90831 12.1655 1.90743 12.2862 1.89657C12.3753 1.88855 12.4639 1.87509 12.6146 1.85169L12.8962 1.42933C12.9215 1.12246 12.9312 0.92233 12.8949 0.734986C12.8596 0.552825 12.7795 0.377489 12.615 0.126921L12.2246 0.0750154L11.6759 0.0767154L11.6754 0.0767168L9.9521 1.92709ZM2.15819 15.9103C2.15733 15.4593 2.15673 15.0083 2.15712 14.5572V14.5572C2.15748 14.2343 2.15761 13.9113 2.15751 13.5884L2.15819 15.9103ZM2.15819 15.9103C2.15819 15.9104 2.15819 15.9104 2.15819 15.9105L2.15724 16.3165L2.15724 16.317C2.1591 16.8379 2.16746 17.2756 2.33744 17.7856L2.35073 17.8254L2.39167 17.8349C2.98408 17.9721 3.53406 18.013 4.13754 18.0167L4.7089 18.0215L4.70911 18.0215L5.32167 18.0249C5.32169 18.0249 5.32171 18.0249 5.32173 18.0249C5.53222 18.0269 5.74272 18.0291 5.95322 18.0313C6.84539 18.0409 7.73763 18.0493 8.62996 18.0545C9.17645 18.0577 9.72293 18.0632 10.2695 18.0701H10.2696C10.5793 18.0734 10.889 18.0742 11.1983 18.075C11.1985 18.075 11.1987 18.075 11.1989 18.075L11.7651 18.0828L11.7656 18.0828L12.2609 18.0865L12.6145 18.1415C12.7794 18.3925 12.8596 18.568 12.8949 18.7504C12.9312 18.9377 12.9215 19.1378 12.8962 19.4447L12.615 19.8665C12.4506 19.8893 12.3537 19.9024 12.2564 19.9101C12.1236 19.9206 11.99 19.9208 11.6829 19.9214L11.6825 19.9214L11.3795 19.9239C11.0482 19.9259 10.717 19.9246 10.3853 19.923H10.3849C10.1542 19.9233 9.92363 19.9238 9.69301 19.9244C9.20906 19.925 8.72513 19.924 8.24114 19.9219C7.62178 19.9192 7.0026 19.9207 6.38349 19.9235C5.90701 19.9252 5.4305 19.9247 4.95386 19.9235H4.95377C4.72552 19.9232 4.49726 19.9235 4.269 19.9246C3.94941 19.9258 3.62987 19.924 3.30994 19.9214L3.30949 19.9214L2.76275 19.9203C1.90713 19.8191 1.33766 19.4573 0.786817 18.8008L0.786279 18.8002L0.513367 18.4821C0.191144 18.0407 0.134369 17.668 0.13116 17.1231L0.131158 17.1229L0.127793 16.7302L0.127791 16.7297L0.126528 16.3003L0.126526 16.3L0.123434 15.8462C0.123434 15.8461 0.123434 15.8461 0.123434 15.8461C0.123434 15.8461 0.123434 15.8461 0.123434 15.8461C0.12037 15.3498 0.118559 14.8535 0.117011 14.357L0.117011 14.357L0.115093 13.8432C0.115093 13.8432 0.115093 13.8432 0.115093 13.8432C0.111853 12.9458 0.109632 12.0484 0.108177 11.151L0.108177 11.1509C0.106458 10.2241 0.101115 9.29741 0.0949476 8.37077L0.0199493 8.37127C0.0158874 7.65847 0.0145882 6.94568 0.0140305 6.23286C0.0132743 5.89132 0.0114692 5.54977 0.00858893 5.20823L0.0835866 5.20764C0.086468 5.54932 0.0882738 5.89101 0.0890303 6.2327L0.0890306 6.2328C0.0895881 6.94558 0.0908872 7.65822 0.0949481 8.37085L2.15819 15.9103ZM8.58726 0.0107605C9.06595 0.0078738 9.54463 0.00705964 10.0233 0.00682138L8.58726 0.0107605Z" fill="#F15F56" stroke="white" stroke-width="0.15"/>
<path d="M13.6154 11.0049L13.9022 11.0087L14.0889 11.0112L13.9523 11.1386C13.619 11.4495 13.2881 11.7625 12.9595 12.0784L13.6154 11.0049ZM13.6154 11.0049C13.6154 11.0049 13.6154 11.0049 13.6154 11.0049C12.633 10.9916 11.6506 10.9762 10.6682 10.9595L10.6681 10.9595M13.6154 11.0049L10.6681 10.9595M11.2125 9.0245C12.109 9.00956 13.0056 8.99636 13.9022 8.98446L14.0889 8.98198L13.9523 8.85462L13.696 8.61548C13.6959 8.61545 13.6959 8.61542 13.6959 8.6154C13.313 8.25519 12.9345 7.8907 12.5555 7.52565L12.5555 7.52564L12.5546 7.52479L12.1511 7.1489C11.8807 6.886 11.6792 6.69006 11.5281 6.53322C11.3767 6.37597 11.2792 6.26128 11.2151 6.16114C11.0926 5.9698 11.0878 5.82787 11.0825 5.50475C11.131 5.2726 11.1543 5.16255 11.1859 5.07309C11.216 4.98802 11.2538 4.92112 11.335 4.78126C11.5537 4.65893 11.7128 4.60045 11.8759 4.58171C12.0416 4.56266 12.2175 4.5838 12.4733 4.63158C13.284 5.21101 13.9978 5.94845 14.7048 6.67885C14.9044 6.88505 15.1035 7.0907 15.3041 7.29206L15.3041 7.29208C15.5496 7.53844 15.7959 7.78393 16.0422 8.02926L16.5119 8.49957L16.512 8.49958L16.9382 8.92639C17.1168 9.11604 17.2261 9.24828 17.3037 9.39332C17.3797 9.53556 17.4275 9.69454 17.4748 9.93984C17.3762 10.5742 16.9373 11.168 16.3948 11.7249C16.1228 12.0042 15.8277 12.2714 15.541 12.5278C15.5107 12.555 15.4804 12.582 15.4503 12.6089C15.1965 12.8356 14.9519 13.0542 14.7421 13.2631L14.742 13.2632C14.4957 13.5087 14.2502 13.755 14.0049 14.0013L13.5345 14.471L13.5345 14.471L13.1077 14.8973C12.9014 15.0916 12.7721 15.2016 12.6279 15.2713C12.4857 15.34 12.3235 15.3721 12.0471 15.3958C11.8103 15.3765 11.7009 15.3671 11.6139 15.344C11.5327 15.3224 11.4705 15.2887 11.3352 15.2121C11.1461 14.8806 11.0819 14.6003 11.087 14.2141C11.1921 13.8585 11.4151 13.554 11.6851 13.272C11.8631 13.0859 12.0566 12.9144 12.248 12.7447C12.3518 12.6527 12.4549 12.5613 12.5546 12.4684L12.5546 12.4684L12.5555 12.4676L12.9594 12.0784L10.1156 8.96771C9.57597 8.97485 9.03636 8.98205 8.49675 8.99135M11.2125 9.0245L11.2112 8.94951L11.2125 9.0245C11.2125 9.0245 11.2125 9.0245 11.2125 9.0245ZM11.2125 9.0245C10.8473 9.0307 10.4821 9.03677 10.1168 9.0427L10.1166 9.0427C9.57695 9.04985 9.03748 9.05704 8.49805 9.06634M8.49805 9.06634L8.49809 9.06634L8.49675 8.99135M8.49805 9.06634L8.49675 8.99135M8.49805 9.06634L7.98757 9.07545L7.98705 9.07546L7.48819 9.08089L7.48667 9.0059L7.98623 9.00047L8.49675 8.99135M9.56697 10.9432C9.56698 10.9432 9.56698 10.9432 9.56698 10.9432L9.56598 11.0182L9.56697 10.9432ZM9.56697 10.9432C9.93403 10.9481 10.3011 10.9535 10.6681 10.9595M9.56697 10.9432L10.6681 10.9595" fill="#F15F56" stroke="white" stroke-width="0.15"/>
</svg>
