<svg width="20" height="24" viewBox="0 0 20 24" fill="none" xmlns="http://www.w3.org/2000/svg">
<path d="M3.84751 -0.0189056C3.94126 -0.0191732 4.03502 -0.0194997 4.12877 -0.0198805C4.38243 -0.0207191 4.63607 -0.0206666 4.88973 -0.0203988C5.10196 -0.0202536 5.31419 -0.0205398 5.52642 -0.0208225C6.02738 -0.0214802 6.52835 -0.0214082 7.02931 -0.020874C7.54502 -0.0203361 8.06072 -0.0209952 8.57643 -0.0222519C9.02019 -0.0232925 9.46395 -0.0236012 9.90772 -0.0233265C10.1723 -0.0231689 10.4369 -0.023279 10.7015 -0.0240882C10.9505 -0.0248164 11.1995 -0.0246245 11.4484 -0.0237458C11.5394 -0.0235739 11.6304 -0.0237162 11.7214 -0.0242092C12.7143 -0.0291751 13.3637 0.210391 14.0903 0.906681C14.18 0.992141 14.2705 1.07659 14.3612 1.16092C14.6512 1.43078 14.9391 1.70143 15.2168 1.98398C15.3002 2.06582 15.3868 2.14186 15.4756 2.21781C15.6344 2.35421 15.7827 2.49948 15.9297 2.64847C16.1026 2.8238 16.2801 2.98983 16.4674 3.14963C16.6243 3.28956 16.7695 3.44107 16.9172 3.59055C17.014 3.68615 17.1123 3.77605 17.2158 3.86429C17.3971 4.01924 17.5638 4.18734 17.731 4.3571C17.8547 4.482 17.9808 4.60064 18.1152 4.7139C18.6267 5.15736 19.0269 5.69145 19.1406 6.37503C19.1541 6.58577 19.1537 6.79604 19.1531 7.00716C19.1533 7.07127 19.1535 7.13539 19.1538 7.1995C19.1544 7.37501 19.1543 7.55051 19.1542 7.72601C19.1542 7.91557 19.1547 8.10511 19.1552 8.29467C19.156 8.66578 19.1562 9.0369 19.1563 9.40801C19.1563 9.70977 19.1565 10.0115 19.1568 10.3133C19.1576 11.1694 19.1581 12.0255 19.158 12.8817C19.158 12.9278 19.158 12.9739 19.158 13.0214C19.158 13.0676 19.158 13.1138 19.158 13.1614C19.1579 13.9097 19.1588 14.658 19.1601 15.4063C19.1615 16.1752 19.1621 16.9441 19.1621 17.713C19.162 18.1445 19.1623 18.576 19.1633 19.0074C19.1642 19.3748 19.1644 19.7422 19.1637 20.1095C19.1634 20.2968 19.1634 20.4841 19.1642 20.6714C19.165 20.8431 19.1648 21.0149 19.164 21.1866C19.1638 21.2775 19.1645 21.3685 19.1652 21.4594C19.1598 22.1509 18.9054 22.775 18.4346 23.2852C17.8806 23.8051 17.2377 24.0222 16.4881 24.0182C16.4303 24.0185 16.3725 24.0187 16.3129 24.019C16.1536 24.0195 15.9944 24.0195 15.8351 24.0191C15.6629 24.0189 15.4907 24.0195 15.3184 24.02C14.9815 24.0208 14.6445 24.0208 14.3076 24.0205C14.0336 24.0204 13.7596 24.0204 13.4856 24.0207C13.4465 24.0207 13.4075 24.0207 13.3672 24.0208C13.2878 24.0209 13.2085 24.0209 13.1291 24.021C12.3855 24.0216 11.642 24.0214 10.8984 24.0209C10.2189 24.0204 9.53943 24.021 8.85995 24.0221C8.16137 24.0233 7.46279 24.0237 6.76421 24.0234C6.37237 24.0232 5.98053 24.0233 5.58868 24.0242C5.25511 24.0248 4.92154 24.0249 4.58796 24.0241C4.41795 24.0237 4.24796 24.0236 4.07795 24.0243C3.89321 24.0251 3.7085 24.0244 3.52377 24.0235C3.47065 24.024 3.41753 24.0244 3.36279 24.0249C2.68917 24.0187 2.06926 23.7508 1.5742 23.294C0.982244 22.6633 0.837926 21.9676 0.841184 21.1304C0.840988 21.0484 0.840731 20.9664 0.840419 20.8845C0.839743 20.66 0.83994 20.4355 0.840286 20.2111C0.840508 19.9687 0.839921 19.7263 0.839441 19.4839C0.838636 19.0093 0.838596 18.5348 0.838842 18.0602C0.839032 17.6744 0.838964 17.2886 0.838713 16.9028C0.838678 16.8479 0.838643 16.793 0.838607 16.7364C0.838535 16.6248 0.838463 16.5132 0.838391 16.4016C0.837747 15.3553 0.838002 14.309 0.83854 13.2627C0.839005 12.3058 0.838399 11.349 0.837277 10.3922C0.836134 9.40926 0.835684 8.42634 0.835995 7.44342C0.836159 6.89176 0.836055 6.34011 0.835234 5.78845C0.834543 5.31883 0.834514 4.84922 0.835331 4.37961C0.83573 4.14011 0.83583 3.90062 0.835113 3.66112C0.834463 3.44165 0.834687 3.2222 0.835593 3.00274C0.835769 2.92357 0.835632 2.84439 0.835142 2.76522C0.830632 1.98052 1.02024 1.30565 1.56541 0.714878C2.23791 0.0836926 2.96336 -0.0211856 3.84751 -0.0189056ZM2.53221 1.84867C2.30315 2.19649 2.25982 2.49923 2.25958 2.91165C2.25949 2.94371 2.25941 2.97578 2.25933 3.00882C2.25911 3.11593 2.25922 3.22305 2.25934 3.33016C2.25925 3.40787 2.25914 3.48558 2.25902 3.56329C2.25873 3.77658 2.25874 3.98987 2.25879 4.20317C2.2588 4.4333 2.25854 4.66343 2.25832 4.89356C2.25793 5.34431 2.2578 5.79506 2.25778 6.24582C2.25775 6.61218 2.25766 6.97855 2.25751 7.34492C2.2571 8.38361 2.25688 9.4223 2.25691 10.461C2.25692 10.517 2.25692 10.573 2.25692 10.6307C2.25692 10.6867 2.25692 10.7428 2.25693 10.8005C2.25695 11.7093 2.2565 12.618 2.25584 13.5268C2.25516 14.4598 2.25484 15.3929 2.25488 16.326C2.25489 16.8498 2.25477 17.3737 2.25426 17.8975C2.25383 18.3435 2.25373 18.7895 2.25405 19.2354C2.2542 19.463 2.25421 19.6905 2.2538 19.918C2.25343 20.1263 2.2535 20.3347 2.25391 20.5431C2.25398 20.6184 2.25389 20.6936 2.25363 20.7689C2.25191 21.3023 2.25081 21.7827 2.59373 22.2188C3.00073 22.6049 3.44497 22.6008 3.97238 22.6001C4.02596 22.6002 4.07954 22.6003 4.13474 22.6004C4.31412 22.6007 4.49349 22.6006 4.67287 22.6006C4.80154 22.6007 4.93022 22.6009 5.05889 22.6011C5.37203 22.6015 5.68517 22.6016 5.99831 22.6016C6.2529 22.6016 6.50749 22.6017 6.76207 22.6019C7.4843 22.6023 8.20653 22.6025 8.92876 22.6025C8.96767 22.6025 9.00658 22.6025 9.04667 22.6025C9.08562 22.6025 9.12458 22.6025 9.16471 22.6025C9.79611 22.6024 10.4275 22.6029 11.0589 22.6036C11.7076 22.6042 12.3563 22.6046 13.0051 22.6045C13.3691 22.6045 13.7332 22.6046 14.0972 22.6051C14.4071 22.6056 14.7171 22.6057 15.027 22.6053C15.185 22.6052 15.343 22.6052 15.5011 22.6056C15.6726 22.606 15.8441 22.6057 16.0157 22.6054C16.0653 22.6056 16.1149 22.6059 16.166 22.6061C16.6393 22.6039 17.0461 22.5479 17.4062 22.2188C17.7494 21.7821 17.7413 21.3699 17.74 20.8361C17.74 20.7771 17.7401 20.718 17.7401 20.6572C17.7402 20.4939 17.74 20.3305 17.7398 20.1672C17.7396 19.9909 17.7397 19.8145 17.7397 19.6382C17.7397 19.3328 17.7396 19.0275 17.7393 18.7221C17.7389 18.2807 17.7388 17.8392 17.7388 17.3977C17.7386 16.6814 17.7383 15.9651 17.7379 15.2488C17.7375 14.5531 17.7371 13.8573 17.7369 13.1616C17.7369 13.1187 17.7369 13.0758 17.7369 13.0316C17.7368 12.8164 17.7368 12.6012 17.7367 12.386C17.7362 10.6011 17.7354 8.81618 17.7344 7.03128C17.6772 7.03101 17.62 7.03073 17.561 7.03045C17.021 7.02777 16.481 7.02435 15.941 7.02024C15.6634 7.01814 15.3858 7.0163 15.1082 7.01505C14.8402 7.01382 14.5721 7.01193 14.304 7.00957C14.2019 7.00879 14.0999 7.00825 13.9978 7.00796C13.8544 7.0075 13.711 7.00619 13.5676 7.00468C13.5257 7.00474 13.4839 7.00481 13.4407 7.00488C12.962 6.99778 12.594 6.85124 12.25 6.51566C11.9577 6.15659 11.8612 5.83279 11.86 5.37613C11.8593 5.3116 11.8593 5.3116 11.8586 5.24577C11.8572 5.10425 11.8564 4.96273 11.8556 4.8212C11.8547 4.72281 11.8538 4.62443 11.8528 4.52604C11.8504 4.26758 11.8486 4.00912 11.8468 3.75065C11.8449 3.48671 11.8425 3.22277 11.8402 2.95884C11.8357 2.44132 11.8317 1.92381 11.8281 1.40628C10.7414 1.40409 9.65468 1.40244 8.56796 1.40143C8.06336 1.40094 7.55877 1.40029 7.05417 1.39921C6.61429 1.39828 6.17441 1.39767 5.73453 1.39746C5.50168 1.39734 5.26884 1.39706 5.036 1.39637C4.81665 1.39573 4.59732 1.39554 4.37797 1.39568C4.29765 1.39565 4.21732 1.39547 4.137 1.39511C3.25517 1.38797 3.25517 1.38797 2.53221 1.84867ZM13.2344 2.15628C13.2322 2.57476 13.2305 2.99322 13.2295 3.4117C13.229 3.60602 13.2283 3.80033 13.2273 3.99464C13.2263 4.18217 13.2257 4.36969 13.2255 4.55722C13.2253 4.62876 13.2249 4.7003 13.2244 4.77184C13.2238 4.87206 13.2237 4.97225 13.2237 5.07247C13.2235 5.12951 13.2233 5.18655 13.2231 5.24532C13.2339 5.38541 13.2468 5.46461 13.3281 5.57816C13.4937 5.63334 13.624 5.63066 13.7988 5.63036C13.8322 5.63036 13.8656 5.63037 13.9 5.63038C14.0103 5.63034 14.1207 5.62998 14.231 5.62961C14.3075 5.62952 14.384 5.62946 14.4606 5.62941C14.6619 5.62923 14.8633 5.62877 15.0646 5.62825C15.2701 5.62777 15.4756 5.62756 15.6811 5.62732C16.0843 5.62682 16.4874 5.62602 16.8906 5.62503C16.7439 5.45062 16.599 5.27876 16.431 5.12424C16.4 5.09548 16.369 5.06672 16.337 5.03708C16.3051 5.00778 16.2731 4.97847 16.2402 4.94828C15.8361 4.57388 15.8361 4.57388 15.6484 4.38285C15.5373 4.26974 15.4231 4.16383 15.3027 4.06058C15.1531 3.93209 15.0136 3.79659 14.875 3.65628C14.7392 3.51889 14.603 3.3861 14.456 3.26078C14.2989 3.12652 14.1529 2.98299 14.0078 2.83597C13.7649 2.59069 13.5223 2.34827 13.2344 2.15628Z" fill="#424242"/>
</svg>
