<svg width="25" height="22" viewBox="0 0 25 22" fill="none" xmlns="http://www.w3.org/2000/svg">
<path d="M7.42319 0.781476C7.5873 0.781401 7.75141 0.781177 7.91552 0.780903C8.48922 0.779945 9.06292 0.779513 9.63662 0.779596C10.1699 0.779658 10.7032 0.778551 11.2365 0.776913C11.6965 0.775551 12.1565 0.774992 12.6166 0.775059C12.8904 0.775085 13.1643 0.774791 13.4382 0.773686C13.695 0.772676 13.9517 0.772669 14.2085 0.773427C14.3025 0.773536 14.3965 0.773291 14.4905 0.77266C14.6191 0.771853 14.7476 0.772341 14.8762 0.773142C14.9131 0.772607 14.95 0.772071 14.988 0.771518C15.2668 0.775342 15.4863 0.852148 15.7148 1.00728C15.932 1.28017 16.0038 1.49299 15.9753 1.84081C15.881 2.11548 15.7547 2.30682 15.5064 2.46596C15.3207 2.52787 15.1522 2.5257 14.9589 2.5256C14.8986 2.52587 14.8986 2.52587 14.8371 2.52616C14.7019 2.52671 14.5667 2.5269 14.4315 2.5271C14.3347 2.52743 14.238 2.52778 14.1412 2.52816C13.9323 2.52892 13.7235 2.52953 13.5146 2.53003C13.1834 2.53083 12.8522 2.53208 12.5211 2.53341C11.5791 2.53712 10.6371 2.54022 9.69516 2.5429C9.17521 2.54438 8.65525 2.54623 8.13529 2.54845C7.80714 2.54984 7.479 2.55078 7.15085 2.55137C6.94486 2.55185 6.73888 2.55276 6.5329 2.55378C6.4386 2.55416 6.3443 2.55438 6.25 2.5544C5.75185 2.55462 5.25903 2.57116 4.76282 2.61713C4.71828 2.62121 4.67374 2.62529 4.62784 2.6295C3.92526 2.70065 3.1417 2.86335 2.67317 3.43706C2.217 4.09705 2.16715 4.98567 2.11131 5.76101C2.10681 5.82031 2.10231 5.8796 2.09768 5.9407C2.08678 6.08483 2.07613 6.22897 2.06573 6.37313C2.13391 6.37299 2.20208 6.37284 2.27232 6.37269C3.89049 6.36931 5.50865 6.36673 7.12682 6.36515C7.32597 6.36495 7.52511 6.36475 7.72426 6.36455C7.7639 6.3645 7.80355 6.36446 7.8444 6.36442C8.48644 6.36374 9.12849 6.36251 9.77054 6.36107C10.4293 6.35961 11.088 6.35874 11.7468 6.35843C12.1533 6.35821 12.5598 6.35753 12.9663 6.35627C13.278 6.35534 13.5896 6.35524 13.9013 6.35545C14.0292 6.35541 14.1571 6.3551 14.285 6.3545C14.4594 6.35372 14.6338 6.35391 14.8082 6.35434C14.8844 6.35365 14.8844 6.35365 14.9621 6.35296C15.2352 6.35477 15.427 6.37555 15.6627 6.52942C15.865 6.74302 15.9617 6.93105 15.9948 7.22294C15.9705 7.46199 15.9061 7.63598 15.7669 7.83181C15.5414 8.01128 15.3591 8.09884 15.0721 8.0987C15.0025 8.09885 15.0025 8.09885 14.9315 8.09901C14.8805 8.09886 14.8294 8.09871 14.7769 8.09855C14.6956 8.09862 14.6956 8.09862 14.6127 8.09869C14.4303 8.09877 14.248 8.09848 14.0656 8.0982C13.9352 8.09819 13.8048 8.09819 13.6744 8.09822C13.3933 8.09824 13.1121 8.09809 12.8309 8.09779C12.4244 8.09737 12.0179 8.09723 11.6114 8.09717C10.9518 8.09706 10.2923 8.09671 9.63278 8.09622C8.99205 8.09574 8.35132 8.09537 7.71059 8.09515C7.6711 8.09513 7.63162 8.09512 7.59094 8.09511C7.39286 8.09504 7.19479 8.09497 6.99671 8.09491C5.35305 8.09437 3.70939 8.09345 2.06573 8.09229C2.07012 9.16018 2.07508 10.2281 2.08071 11.296C2.08331 11.7919 2.08573 12.2879 2.08771 12.7838C2.08943 13.2166 2.09152 13.6494 2.09401 14.0822C2.09531 14.3109 2.09645 14.5396 2.09716 14.7683C1.9897 17.0518 1.9897 17.0518 2.89926 19.0324C3.97677 19.7928 5.48566 19.6654 6.73735 19.6651C6.87221 19.6652 7.00707 19.6654 7.14193 19.6656C7.46883 19.666 7.79572 19.6662 8.12262 19.6662C8.38876 19.6662 8.6549 19.6663 8.92104 19.6665C9.67803 19.667 10.435 19.6672 11.192 19.6672C11.2327 19.6672 11.2734 19.6672 11.3153 19.6672C11.356 19.6672 11.3968 19.6672 11.4388 19.6672C12.0983 19.6671 12.7578 19.6676 13.4173 19.6684C14.0968 19.6691 14.7763 19.6695 15.4559 19.6694C15.8365 19.6694 16.217 19.6696 16.5976 19.6701C16.9558 19.6706 17.3141 19.6706 17.6724 19.6702C17.8031 19.6702 17.9338 19.6703 18.0645 19.6706C20.1253 19.734 20.1253 19.734 21.9142 18.8761C22.6053 18.0297 22.5452 16.6649 22.5485 15.638C22.5493 15.5276 22.5503 15.4173 22.5512 15.3069C22.5536 15.0384 22.5556 14.77 22.5563 14.5015C22.5568 14.3128 22.5583 14.1242 22.5605 13.9355C22.5612 13.8642 22.5614 13.793 22.5613 13.7217C22.5605 13.0354 22.5605 13.0354 22.7998 12.7809C23.0617 12.5501 23.2104 12.5048 23.5531 12.5092C23.8015 12.5302 23.9466 12.6225 24.1152 12.8004C24.2744 13.0392 24.3236 13.2288 24.324 13.5151C24.3245 13.6096 24.3245 13.6096 24.325 13.7061C24.3247 13.8081 24.3247 13.8081 24.3244 13.9121C24.3245 13.9838 24.3246 14.0554 24.3247 14.127C24.3248 14.2776 24.3246 14.4282 24.3241 14.5788C24.3235 14.7683 24.3239 14.9577 24.3245 15.1471C24.3347 18.885 24.3347 18.885 23.0914 20.2072C21.7137 21.5061 19.6739 21.4454 17.9056 21.4422C17.7699 21.4424 17.6342 21.4426 17.4985 21.4428C17.1715 21.4433 16.8445 21.4432 16.5175 21.4429C16.2512 21.4426 15.9849 21.4426 15.7186 21.4427C15.6803 21.4427 15.6421 21.4427 15.6027 21.4428C15.5251 21.4428 15.4474 21.4428 15.3697 21.4429C14.6449 21.4431 13.9201 21.4428 13.1953 21.4422C12.5763 21.4418 11.9574 21.4419 11.3384 21.4423C10.6159 21.4429 9.89326 21.4431 9.17068 21.4428C9.0933 21.4428 9.01593 21.4427 8.93856 21.4427C8.88149 21.4427 8.88149 21.4427 8.82327 21.4427C8.55797 21.4426 8.29267 21.4427 8.02737 21.443C7.66885 21.4433 7.31035 21.443 6.95183 21.4424C6.82131 21.4423 6.69078 21.4424 6.56025 21.4426C5.92859 21.4436 5.30097 21.4339 4.67109 21.3831C4.62171 21.3792 4.57232 21.3753 4.52144 21.3712C3.29351 21.2605 2.11326 20.8769 1.28938 19.9139C0.366188 18.628 0.338552 16.9926 0.339007 15.4725C0.338851 15.3675 0.338674 15.2625 0.338477 15.1574C0.33802 14.8741 0.337894 14.5908 0.337861 14.3075C0.337824 14.1299 0.337712 13.9522 0.337575 13.7746C0.337094 13.1531 0.33688 12.5316 0.336921 11.9101C0.336953 11.3337 0.336404 10.7573 0.33558 10.1809C0.334896 9.68372 0.33462 9.1865 0.334653 8.68927C0.334666 8.39336 0.334523 8.09745 0.333966 7.80154C0.333456 7.52273 0.333462 7.24394 0.333837 6.96513C0.333891 6.8638 0.333772 6.76246 0.333453 6.66113C0.3319 6.13308 0.346599 5.61056 0.39356 5.08439C0.397681 5.03819 0.401801 4.99199 0.406047 4.94439C0.5241 3.73801 0.892675 2.59401 1.83293 1.77854C3.37445 0.586127 5.58847 0.781946 7.42319 0.781476Z" fill="white"/>
<path d="M21.6898 0.929584C21.9427 1.093 22.147 1.31458 22.358 1.52757C22.4095 1.57899 22.4611 1.63038 22.5128 1.68174C22.6203 1.78899 22.7275 1.89661 22.8344 2.00451C22.9709 2.1422 23.1083 2.27893 23.2461 2.4154C23.3526 2.52117 23.4586 2.62743 23.5645 2.73385C23.6149 2.78445 23.6656 2.8349 23.7163 2.88519C24.2754 3.44007 24.2754 3.44007 24.3333 3.89528C24.2945 4.21133 24.1931 4.42524 23.9426 4.62462C23.7055 4.75074 23.5364 4.78005 23.2686 4.75811C22.9317 4.64015 22.7026 4.42698 22.4612 4.17203C22.4283 4.13819 22.3954 4.10434 22.3614 4.06947C22.2813 3.9869 22.2017 3.90389 22.1225 3.82039C22.1224 3.87974 22.1222 3.93909 22.122 4.00024C22.12 4.5598 22.117 5.11935 22.113 5.6789C22.1109 5.96657 22.1092 6.25423 22.1084 6.5419C22.1076 6.81957 22.1058 7.09721 22.1034 7.37487C22.1026 7.48076 22.1022 7.58664 22.1021 7.69253C22.102 7.84096 22.1006 7.98932 22.0989 8.13774C22.0993 8.20327 22.0993 8.20327 22.0997 8.27014C22.0947 8.54765 22.0448 8.7049 21.8621 8.92576C21.6001 9.15653 21.4515 9.20187 21.1087 9.19743C20.8603 9.17641 20.7152 9.08415 20.5467 8.90622C20.3555 8.6195 20.3356 8.38451 20.3347 8.04902C20.3342 8.00325 20.3336 7.95749 20.3331 7.91033C20.3315 7.75953 20.3306 7.60873 20.3297 7.45792C20.3287 7.35318 20.3277 7.24843 20.3267 7.14368C20.324 6.86834 20.3219 6.593 20.32 6.31765C20.3179 6.03654 20.3152 5.75543 20.3126 5.47432C20.3076 4.92302 20.3032 4.37171 20.2992 3.82039C20.2753 3.84509 20.2514 3.8698 20.2268 3.89525C20.1179 4.00746 20.0083 4.11905 19.8987 4.23064C19.8424 4.28897 19.8424 4.28897 19.7849 4.34847C19.7481 4.38574 19.7113 4.42301 19.6734 4.46141C19.6231 4.51297 19.6231 4.51297 19.5718 4.56558C19.3639 4.73871 19.1609 4.77953 18.8918 4.77093C18.6455 4.74038 18.4862 4.62557 18.3293 4.44228C18.1798 4.2415 18.1508 4.13998 18.1405 3.89202C18.1373 3.83977 18.1342 3.78753 18.1309 3.7337C18.214 3.28765 18.6646 2.93768 18.9722 2.62931C19.0194 2.58171 19.0667 2.5341 19.1154 2.48506C19.2148 2.38501 19.3145 2.28518 19.4142 2.18547C19.5414 2.05825 19.6679 1.93033 19.7943 1.80222C19.9159 1.67913 20.0383 1.5568 20.1606 1.43437C20.2056 1.38862 20.2506 1.34288 20.297 1.29575C20.7148 0.881088 21.108 0.627091 21.6898 0.929584Z" fill="white"/>
<path d="M10.8433 15.2545C10.8922 15.2542 10.941 15.2538 10.9913 15.2534C11.1522 15.2525 11.313 15.2531 11.4739 15.2538C11.586 15.2537 11.6981 15.2535 11.8102 15.2532C12.0449 15.2529 12.2796 15.2534 12.5143 15.2543C12.815 15.2555 13.1155 15.2548 13.4161 15.2536C13.6476 15.2528 13.879 15.2531 14.1104 15.2536C14.2212 15.2538 14.332 15.2536 14.4429 15.2531C14.5979 15.2526 14.7528 15.2534 14.9078 15.2545C14.9535 15.2541 14.9991 15.2537 15.0461 15.2533C15.3291 15.2572 15.4899 15.3024 15.7148 15.4899C15.9274 15.7255 15.9921 15.8958 15.9863 16.2164C15.9608 16.4648 15.8434 16.6251 15.6594 16.7825C15.4129 16.9661 15.2307 16.9569 14.9315 16.9578C14.8827 16.9581 14.8339 16.9585 14.7836 16.9588C14.6216 16.9598 14.4596 16.9605 14.2976 16.961C14.2147 16.9613 14.2147 16.9613 14.1302 16.9616C13.8376 16.9627 13.5451 16.9634 13.2525 16.9639C12.9503 16.9645 12.6481 16.9663 12.3458 16.9684C12.1135 16.9697 11.8812 16.9702 11.6489 16.9704C11.5375 16.9706 11.4261 16.9712 11.3147 16.9722C11.1586 16.9734 11.0027 16.9734 10.8467 16.973C10.8007 16.9737 10.7547 16.9744 10.7074 16.9751C10.4229 16.9727 10.2625 16.9287 10.0364 16.7402C9.84735 16.5412 9.81184 16.3816 9.80194 16.115C9.81184 15.8484 9.84735 15.6888 10.0364 15.4899C10.3059 15.2659 10.5081 15.2514 10.8433 15.2545Z" fill="white"/>
<path d="M5.99223 15.2519C6.05452 15.2516 6.11681 15.2513 6.18099 15.251C6.31249 15.2506 6.44398 15.2507 6.57547 15.2514C6.77627 15.2521 6.97693 15.2504 7.17771 15.2484C7.30568 15.2483 7.43365 15.2484 7.56161 15.2487C7.65133 15.2476 7.65133 15.2476 7.74286 15.2466C8.10935 15.2508 8.30593 15.2904 8.57768 15.5419C8.73852 15.765 8.76426 15.9746 8.75574 16.2434C8.71979 16.4614 8.6238 16.6315 8.47349 16.7922C8.28426 16.9249 8.15569 16.9682 7.92538 16.9695C7.86904 16.9702 7.81271 16.9709 7.75466 16.9715C7.69432 16.9714 7.63397 16.9712 7.57179 16.9711C7.5093 16.9714 7.44681 16.9716 7.38243 16.9719C7.25041 16.9722 7.11838 16.9722 6.98636 16.9717C6.78455 16.9713 6.58282 16.9728 6.38102 16.9744C6.25264 16.9745 6.12427 16.9745 5.9959 16.9743C5.90553 16.9752 5.90553 16.9752 5.81334 16.9761C5.4856 16.9733 5.2831 16.9623 5.03518 16.7401C4.84616 16.5411 4.81065 16.3816 4.80075 16.115C4.81065 15.8484 4.84616 15.6888 5.03518 15.4898C5.32704 15.2292 5.61354 15.2503 5.99223 15.2519Z" fill="white"/>
</svg>
