<svg width="24" height="24" viewBox="0 0 24 24" fill="none" xmlns="http://www.w3.org/2000/svg">
<path d="M6.42798 0.851272C6.47274 0.851117 6.5175 0.850962 6.56362 0.850803C6.71203 0.850355 6.86044 0.850272 7.00885 0.850194C7.11593 0.849953 7.22301 0.849691 7.33009 0.84941C7.62001 0.84873 7.90992 0.848392 8.19984 0.84816C8.38147 0.848007 8.5631 0.847793 8.74472 0.847561C9.31441 0.846849 9.88411 0.846346 10.4538 0.846144C11.1087 0.845911 11.7637 0.844999 12.4186 0.843488C12.9265 0.842357 13.4345 0.841837 13.9424 0.841767C14.245 0.841713 14.5475 0.841413 14.8501 0.840475C15.1353 0.839608 15.4204 0.839508 15.7056 0.839961C15.8094 0.840001 15.9131 0.839781 16.0169 0.83926C17.6984 0.831324 19.4615 1.13831 20.7443 2.31683C20.7866 2.35181 20.8288 2.38679 20.8723 2.42282C22.0299 3.40257 22.6513 4.89859 22.8275 6.37909C22.8339 6.52774 22.8337 6.67606 22.8326 6.82482C22.8325 6.88647 22.8325 6.88647 22.8324 6.94936C22.8321 7.07935 22.8315 7.20933 22.8308 7.33932C22.8305 7.42798 22.8303 7.51665 22.8301 7.60531C22.8295 7.82154 22.8286 8.03775 22.8275 8.25397C22.8683 8.26965 22.9091 8.28532 22.9511 8.30147C23.3439 8.46417 23.6232 8.82433 23.8171 9.19142C23.967 9.59532 23.997 9.98423 23.9959 10.4116C23.9962 10.4716 23.9964 10.5317 23.9967 10.5935C23.997 10.7196 23.997 10.8458 23.9965 10.9719C23.9961 11.1631 23.9976 11.3542 23.9992 11.5454C24.0039 13.095 24.0039 13.095 23.4525 13.6703C23.0906 14.0288 23.0906 14.0288 22.8275 14.087C22.8284 14.1391 22.8292 14.1913 22.83 14.245C22.8329 14.4431 22.8347 14.6412 22.8361 14.8394C22.8369 14.9242 22.838 15.0091 22.8393 15.094C22.8671 16.8601 22.2868 18.4944 21.0523 19.7733C20.2956 20.5241 19.3474 20.9818 18.3291 21.261C18.2924 21.2714 18.2557 21.2817 18.2178 21.2924C17.2979 21.5307 16.3445 21.5003 15.402 21.4988C15.2006 21.4985 14.9992 21.4994 14.7978 21.5006C14.6413 21.5013 14.4847 21.5014 14.3282 21.5012C14.2539 21.5013 14.1796 21.5015 14.1053 21.5021C14.0018 21.5027 13.8983 21.5022 13.7948 21.5017C13.7362 21.5018 13.6776 21.5018 13.6172 21.5018C13.3953 21.4755 13.2191 21.3993 13.055 21.2462C12.8081 20.9233 12.7826 20.6893 12.8281 20.2845C12.9434 19.9994 13.1235 19.8844 13.401 19.7637C13.5644 19.744 13.5644 19.744 13.7411 19.7437C13.8078 19.7431 13.8744 19.7426 13.9431 19.7421C13.9784 19.7421 14.0137 19.7422 14.05 19.7423C14.1621 19.7425 14.2742 19.7418 14.3863 19.7408C14.6253 19.7389 14.8644 19.7382 15.1034 19.7377C16.869 19.7336 18.5524 19.7151 19.9111 18.4096C20.9641 17.2369 21.0961 15.8011 21.161 14.2953C21.1093 14.2961 21.0576 14.2969 21.0044 14.2978C20.8094 14.3006 20.6144 14.3024 20.4194 14.3039C20.3356 14.3046 20.2518 14.3057 20.168 14.3071C19.1533 14.3232 18.2722 14.1408 17.5186 13.4198C16.831 12.7348 16.5356 11.9859 16.5258 11.0142C16.5792 10.1525 16.9421 9.39911 17.5697 8.80692C18.1725 8.3088 18.8623 8.03558 19.6403 8.04057C19.7056 8.04068 19.7056 8.04068 19.7723 8.04079C19.9108 8.04108 20.0492 8.04174 20.1877 8.0424C20.2819 8.04266 20.376 8.0429 20.4702 8.04311C20.7005 8.04368 20.9307 8.04458 21.161 8.04565C21.0915 6.61733 21.0018 5.29475 20.0673 4.13964C20.0286 4.08593 19.99 4.03222 19.9501 3.97689C19.1022 3.09041 17.8604 2.65724 16.6533 2.61959C16.3767 2.61419 16.1 2.61461 15.8233 2.61501C15.7175 2.61478 15.6117 2.61451 15.5058 2.6142C15.2204 2.61351 14.9349 2.61347 14.6494 2.61361C14.4101 2.61366 14.1708 2.61341 13.9316 2.61316C13.3665 2.61258 12.8015 2.61256 12.2364 2.61287C11.6557 2.61319 11.075 2.61255 10.4943 2.61144C9.99368 2.61052 9.49311 2.61021 8.99254 2.61038C8.69445 2.61047 8.39637 2.61034 8.09828 2.60961C7.81768 2.60895 7.53708 2.60906 7.25648 2.60974C7.15425 2.60986 7.05201 2.60972 6.94978 2.60929C5.48674 2.60353 4.06072 2.86795 2.97725 3.93762C2.05999 4.92341 1.78095 6.15881 1.77981 7.47114C1.77886 7.60318 1.77784 7.73521 1.77676 7.86724C1.77525 8.07398 1.77412 8.2807 1.77409 8.48745C1.77392 8.68795 1.77212 8.88839 1.77005 9.08889C1.77042 9.15036 1.77078 9.21184 1.77116 9.27518C1.76576 9.6419 1.72169 9.90027 1.47466 10.1809C1.24062 10.37 1.03013 10.3633 0.739226 10.3555C0.467437 10.3223 0.333665 10.1919 0.156375 9.99541C0.0255908 9.8065 0.00964048 9.66338 0.00801754 9.43933C0.00751717 9.38344 0.00701681 9.32755 0.00650129 9.26997C0.00627995 9.20927 0.00605862 9.14857 0.00583058 9.08604C0.00553371 9.02296 0.00523685 8.95989 0.004931 8.8949C0.00443811 8.76067 0.00409826 8.62643 0.00389791 8.4922C0.00339935 8.29058 0.00178729 8.08899 0.000134303 7.88738C-0.00859882 5.83965 0.406516 4.07069 1.84898 2.54794C3.05775 1.37681 4.77095 0.849434 6.42798 0.851272ZM18.557 10.2851C18.312 10.6574 18.2008 11.0121 18.2738 11.4569C18.3736 11.8456 18.6493 12.1438 18.9736 12.3683C19.3519 12.5631 19.6881 12.6076 20.1094 12.6043C20.1661 12.6045 20.2228 12.6047 20.2812 12.6049C20.4 12.605 20.5188 12.6047 20.6377 12.6038C20.82 12.6027 21.0022 12.6038 21.1845 12.6051C21.3003 12.605 21.4161 12.6047 21.5318 12.6043C21.5864 12.6047 21.6409 12.6051 21.6971 12.6056C21.7475 12.6049 21.7979 12.6043 21.8499 12.6036C21.8942 12.6034 21.9386 12.6033 21.9843 12.6031C22.1055 12.5854 22.1055 12.5854 22.1908 12.4858C22.2624 12.3541 22.2744 12.277 22.2749 12.1281C22.2756 12.0571 22.2756 12.0571 22.2764 11.9848C22.2761 11.9341 22.2757 11.8834 22.2754 11.8312C22.2756 11.7788 22.2757 11.7265 22.2759 11.6725C22.276 11.5618 22.2757 11.4512 22.275 11.3405C22.2742 11.1711 22.275 11.0018 22.276 10.8324C22.2759 10.7248 22.2757 10.6172 22.2754 10.5097C22.2757 10.459 22.276 10.4084 22.2764 10.3561C22.2759 10.3089 22.2754 10.2616 22.2749 10.2129C22.2747 10.1507 22.2747 10.1507 22.2745 10.0872C22.2488 9.93894 22.2061 9.86928 22.0984 9.7643C21.977 9.73316 21.977 9.73316 21.8387 9.73817C21.7858 9.73768 21.733 9.7372 21.6785 9.73669C21.5928 9.73757 21.5928 9.73757 21.5054 9.73846C21.4465 9.73839 21.3876 9.73831 21.3269 9.73823C21.2021 9.73832 21.0773 9.73892 20.9525 9.74C20.7623 9.7415 20.5721 9.74108 20.3819 9.7404C20.2606 9.74072 20.1392 9.74116 20.0179 9.74172C19.9613 9.74157 19.9047 9.74141 19.8463 9.74126C19.3133 9.74782 18.9165 9.87486 18.557 10.2851Z" fill="#424242"/>
<path d="M9.81725 10.2232C9.90179 10.2947 9.98533 10.3675 10.0679 10.4413C10.1113 10.4798 10.1546 10.5182 10.1993 10.5579C11.0147 11.3243 11.4483 12.3362 11.4887 13.4515C11.4966 13.8087 11.4958 14.1658 11.4948 14.5231C11.4949 14.6553 11.4951 14.7876 11.4953 14.9199C11.4955 15.1958 11.4952 15.4717 11.4944 15.7477C11.4936 16.0643 11.4938 16.381 11.4947 16.6977C11.4955 17.0053 11.4954 17.313 11.495 17.6206C11.4949 17.7502 11.495 17.8798 11.4953 18.0093C11.4987 19.5182 11.2799 20.6488 10.2144 21.7785C9.2111 22.7496 7.81862 23.182 6.44221 23.1601C5.17867 23.1143 4.02448 22.6418 3.08914 21.7948C3.0399 21.7528 3.0399 21.7528 2.98966 21.7099C2.27222 21.0579 1.86473 20.0342 1.78714 19.0866C1.77971 18.8897 1.77896 18.693 1.77874 18.496C1.77836 18.4102 1.77836 18.4102 1.77796 18.3226C1.7772 18.1344 1.77685 17.9463 1.77656 17.7582C1.77641 17.6935 1.77626 17.6288 1.77611 17.5622C1.77541 17.255 1.7749 16.9479 1.7747 16.6408C1.77446 16.2887 1.77355 15.9366 1.77204 15.5845C1.77077 15.2776 1.77038 14.9706 1.77029 14.6636C1.77013 14.534 1.76971 14.4044 1.76903 14.2748C1.76194 12.8387 1.97812 11.6571 3.02079 10.5845C4.79264 8.84241 7.86519 8.71438 9.81725 10.2232ZM4.21517 11.8558C3.75304 12.339 3.55049 12.9033 3.48625 13.5563C3.50661 14.1172 3.75353 14.6193 4.13075 15.0244C4.31142 15.1823 4.49959 15.3149 4.70363 15.441C4.74424 15.4661 4.78486 15.4912 4.82671 15.5171C5.66311 15.981 6.73373 16.0509 7.65267 15.8251C8.4327 15.598 9.08625 15.2116 9.50457 14.5033C9.77965 13.9885 9.82957 13.4818 9.67403 12.9184C9.39791 12.0977 8.8389 11.5928 8.07956 11.2142C6.78546 10.6166 5.25422 10.9123 4.21517 11.8558ZM3.55786 16.743C3.58844 17.375 3.87404 17.8311 4.33907 18.2533C5.17435 18.8935 6.22063 19.0862 7.25312 18.9566C8.15932 18.7916 8.87527 18.4153 9.44293 17.6804C9.63669 17.3901 9.7022 17.0846 9.75541 16.743C9.57011 16.8117 9.3997 16.8973 9.22605 16.9913C7.92869 17.6828 6.31489 17.7816 4.91195 17.368C4.43443 17.215 3.98998 16.9963 3.55786 16.743ZM3.92243 20.0241C4.20302 20.6236 4.81147 21.0101 5.41322 21.2447C6.38269 21.5551 7.39965 21.5011 8.30764 21.0382C8.74349 20.7988 9.15147 20.4654 9.39085 20.0241C9.18772 20.0889 8.99567 20.1638 8.80169 20.2519C8.53767 20.3633 8.27589 20.4408 7.9977 20.5058C7.96143 20.5143 7.92515 20.5228 7.88778 20.5315C6.53171 20.8338 5.17381 20.5907 3.92243 20.0241Z" fill="#424242"/>
</svg>
