<svg width="22" height="14" viewBox="0 0 22 14" fill="none" xmlns="http://www.w3.org/2000/svg">
<path opacity="0.69" fill-rule="evenodd" clip-rule="evenodd" d="M0.5 0.875C0.5 0.391751 0.891751 0 1.375 0H20.625C21.1082 0 21.5 0.391751 21.5 0.875C21.5 1.35825 21.1082 1.75 20.625 1.75H1.375C0.891751 1.75 0.5 1.35825 0.5 0.875ZM4 7C4 6.51675 4.39175 6.125 4.875 6.125H17.125C17.6082 6.125 18 6.51675 18 7C18 7.48325 17.6082 7.875 17.125 7.875H4.875C4.39175 7.875 4 7.48325 4 7ZM7.5 13.125C7.5 12.6418 7.89175 12.25 8.375 12.25H13.625C14.1082 12.25 14.5 12.6418 14.5 13.125C14.5 13.6082 14.1082 14 13.625 14H8.375C7.89175 14 7.5 13.6082 7.5 13.125Z" fill="#666666"/>
</svg>
