<svg width="327" height="196" viewBox="0 0 327 196" fill="none" xmlns="http://www.w3.org/2000/svg">
<g clip-path="url(#clip0_105_554)">
<path d="M0 0C107.91 0 215.82 0 327 0C327 64.68 327 129.36 327 196C219.09 196 111.18 196 0 196C0 131.32 0 66.64 0 0Z" fill="#1D1671"/>
<path d="M138 0C200.37 0 262.74 0 327 0C327 64.68 327 129.36 327 196C289.71 196 252.42 196 214 196C215.106 190.47 216.209 185.013 217.497 179.535C227.487 136.624 219.973 94.379 197.132 56.7915C182.605 33.8073 162.007 13.8409 138 1C138 0.67 138 0.34 138 0Z" fill="#1572FE"/>
<path d="M236.275 -0.124427C237.633 -0.11903 237.633 -0.11903 239.018 -0.113524C239.979 -0.113645 240.941 -0.113765 241.932 -0.113889C245.06 -0.11314 248.188 -0.105511 251.316 -0.0976549C253.241 -0.0961856 255.167 -0.0951648 257.092 -0.0946032C264.249 -0.0893494 271.406 -0.0753883 278.562 -0.0624987C294.547 -0.0418737 310.531 -0.0212487 327 1.3411e-06C327 40.59 327 81.18 327 123C308.309 123 308.309 123 301.938 121.812C300.82 121.612 300.82 121.612 299.681 121.407C282.688 118.161 268.202 111.143 255 100C254.349 99.4934 253.698 98.9868 253.027 98.4648C238.3 86.5484 226.62 66.0227 224.194 47.2029C222.816 31.5588 222.38 15.5205 229 1C230.91 -0.910046 233.734 -0.120137 236.275 -0.124427Z" fill="#4DB3FF"/>
<path d="M326 188C326.33 188 326.66 188 327 188C327 190.64 327 193.28 327 196C324.03 196 321.06 196 318 196C318.763 195.423 319.526 194.845 320.312 194.25C322.666 192.28 324.235 190.471 326 188Z" fill="black"/>
<path d="M0 188C1.12588 188.957 2.25067 189.916 3.375 190.875C4.00148 191.409 4.62797 191.942 5.27344 192.492C6.55837 193.614 7.79372 194.794 9 196C6.03 196 3.06 196 0 196C0 193.36 0 190.72 0 188Z" fill="black"/>
<path d="M318 0C320.97 0 323.94 0 327 0C327 2.64 327 5.28 327 8C325.874 7.0427 324.749 6.08412 323.625 5.125C322.999 4.59133 322.372 4.05766 321.727 3.50781C320.442 2.38568 319.206 1.20628 318 0Z" fill="black"/>
<path d="M0 0C2.97 0 5.94 0 9 0C8.2575 0.5775 7.515 1.155 6.75 1.75C4.33912 3.72254 2.15957 5.76044 0 8C0 5.36 0 2.72 0 0Z" fill="black"/>
</g>
<defs>
<clipPath id="clip0_105_554">
<rect width="327" height="196" rx="36" fill="white"/>
</clipPath>
</defs>
</svg>
