<svg width="22" height="22" viewBox="0 0 22 22" fill="none" xmlns="http://www.w3.org/2000/svg">
<path d="M19.4825 2.48597C19.841 2.83633 20.1396 3.21093 20.4083 3.63372C20.428 3.66473 20.4478 3.69574 20.4681 3.7277C21.4324 5.27188 21.7575 7.16275 21.8909 8.95197C21.8938 8.99062 21.8968 9.02927 21.8998 9.0691C22.1319 12.2913 22.137 16.4589 19.9072 19.0425C19.7716 19.1945 19.6303 19.3404 19.488 19.4862C19.4546 19.5228 19.4212 19.5594 19.3868 19.5971C17.807 21.2851 15.1864 21.7296 12.9954 21.8896C12.9576 21.8926 12.9198 21.8956 12.8808 21.8986C9.69414 22.1394 5.63413 22.1101 3.04216 19.9777C2.85996 19.8203 2.68721 19.6544 2.51502 19.4862C2.47845 19.4528 2.44187 19.4194 2.40419 19.3849C0.730381 17.8176 0.27821 15.2182 0.112217 13.0429C0.109259 13.0065 0.106302 12.97 0.103255 12.9325C-0.150711 9.65794 -0.0917952 5.55147 2.1276 2.9124C2.5388 2.45062 2.96406 2.02651 3.48637 1.69051C3.51691 1.67069 3.54745 1.65087 3.57891 1.63046C5.19295 0.595211 7.12009 0.234966 9.00772 0.105259C9.04513 0.102375 9.08255 0.0994913 9.1211 0.09652C12.5913 -0.166186 16.8221 -0.0488664 19.4825 2.48597ZM3.52012 3.8862C1.53321 6.1069 1.62496 9.79455 1.77443 12.5849C1.9101 14.7139 2.29671 17.0526 3.96845 18.5491C6.33727 20.548 10.2384 20.4252 13.1491 20.1863C15.1323 20.0015 17.2705 19.551 18.6189 17.9521C20.6012 15.4306 20.485 11.3392 20.1319 8.3136C19.8964 6.4727 19.4006 4.51558 17.8685 3.31049C14.7773 1.00953 8.36315 1.08181 3.52012 3.8862Z" fill="#C9C9C9"/>
<path d="M9.7279 9.09929C9.86205 9.21717 9.98941 9.33853 10.1147 9.46579C10.146 9.49722 10.1774 9.52864 10.2097 9.56102C10.4941 9.86785 10.6796 10.2317 10.7562 10.6419C10.7909 10.6417 10.8256 10.6416 10.8613 10.6413C11.706 10.6366 12.5507 10.6331 13.3953 10.6309C13.8038 10.6298 14.2123 10.6283 14.6208 10.6258C14.9768 10.6237 15.3329 10.6223 15.689 10.6218C15.8775 10.6215 16.066 10.6209 16.2545 10.6193C16.465 10.6176 16.6756 10.6176 16.8861 10.6177C16.9796 10.6165 16.9796 10.6165 17.075 10.6153C17.4095 10.617 17.6136 10.6289 17.8666 10.8558C18.1307 11.1411 18.1116 11.4245 18.1088 11.793C18.109 11.8523 18.1092 11.9116 18.1094 11.9727C18.1096 12.0978 18.1092 12.2229 18.1083 12.348C18.1072 12.5392 18.1083 12.7302 18.1097 12.9214C18.1095 13.0431 18.1092 13.1649 18.1088 13.2866C18.1093 13.3436 18.1097 13.4006 18.1101 13.4593C18.106 13.7849 18.0839 13.9761 17.8666 14.2239C17.6294 14.4378 17.4518 14.5114 17.1283 14.506C16.8372 14.4692 16.6359 14.3418 16.4532 14.1169C16.3272 13.8751 16.3096 13.6899 16.311 13.4178C16.3111 13.3619 16.3112 13.3059 16.3114 13.2483C16.3119 13.1777 16.3123 13.1071 16.3128 13.0343C16.3139 12.8094 16.3151 12.5845 16.3162 12.3527C15.8398 12.3527 15.3635 12.3527 14.8727 12.3527C14.8746 12.457 14.8765 12.5614 14.8784 12.6689C14.8799 12.8063 14.8813 12.9437 14.8828 13.0811C14.8841 13.1498 14.8854 13.2185 14.8868 13.2893C14.8876 13.3891 14.8876 13.3891 14.8884 13.4909C14.8897 13.5824 14.8897 13.5824 14.8909 13.6758C14.8667 13.9069 14.7893 14.0861 14.6322 14.2583C14.3421 14.4842 14.1101 14.5343 13.75 14.4912C13.4914 14.3984 13.3136 14.2374 13.162 14.01C13.1021 13.8305 13.1024 13.6956 13.1033 13.5065C13.1034 13.4461 13.1035 13.3858 13.1037 13.3235C13.1042 13.2469 13.1047 13.1702 13.1052 13.0911C13.1063 12.8475 13.1074 12.6038 13.1085 12.3527C12.3322 12.3527 11.556 12.3527 10.7562 12.3527C10.7033 12.5115 10.6503 12.6703 10.5958 12.8339C10.2691 13.5413 9.67433 14.0385 8.96252 14.3339C8.15587 14.6173 7.29265 14.5483 6.51896 14.1986C5.74043 13.7775 5.26476 13.1247 4.98236 12.2993C4.80156 11.6747 4.86269 10.8472 5.14274 10.2677C5.16149 10.226 5.18023 10.1843 5.19955 10.1414C5.57291 9.39076 6.23571 8.87926 7.0139 8.61041C7.918 8.30746 8.9814 8.52044 9.7279 9.09929ZM6.87544 10.7971C6.65869 11.1195 6.65478 11.4405 6.69313 11.8181C6.7888 12.1766 7.03792 12.4112 7.33466 12.62C7.62796 12.7635 7.94709 12.7771 8.26126 12.6939C8.62326 12.5546 8.88245 12.3074 9.0542 11.9593C9.15045 11.6552 9.16143 11.2956 9.05211 10.994C8.87435 10.6911 8.61996 10.4524 8.30365 10.3011C7.70346 10.1811 7.27119 10.3265 6.87544 10.7971Z" fill="#C9C9C9"/>
</svg>
