<svg width="20" height="26" viewBox="0 0 20 26" fill="none" xmlns="http://www.w3.org/2000/svg">
<mask id="path-1-outside-1_277_1151" maskUnits="userSpaceOnUse" x="0" y="0" width="15" height="26" fill="black">
<rect fill="white" width="15" height="26"/>
<path d="M3.30045 1.00579C3.33076 1.0057 3.36107 1.00561 3.39229 1.00551C3.42562 1.00553 3.45895 1.00555 3.49228 1.00558C3.52793 1.00552 3.56357 1.00544 3.59922 1.00536C3.69699 1.00517 3.79476 1.00512 3.89253 1.00511C3.99805 1.00506 4.10358 1.00488 4.20911 1.00472C4.43983 1.00439 4.67054 1.00425 4.90125 1.00414C5.04544 1.00408 5.18964 1.00398 5.33383 1.00387C5.73341 1.00358 6.133 1.00333 6.53258 1.00325C6.55814 1.00324 6.58371 1.00324 6.61005 1.00323C6.64848 1.00322 6.64848 1.00322 6.6877 1.00322C6.73962 1.00321 6.79154 1.00319 6.84346 1.00318C6.86922 1.00318 6.89497 1.00317 6.92151 1.00317C7.33837 1.00307 7.75522 1.00266 8.17208 1.0021C8.60054 1.00153 9.02899 1.00123 9.45744 1.0012C9.69781 1.00118 9.93818 1.00104 10.1785 1.00061C10.3833 1.00023 10.5881 1.00011 10.7929 1.00031C10.8972 1.0004 11.0016 1.00039 11.1059 1.00005C12.003 0.997303 12.8178 1.11502 13.5026 1.74704C13.603 1.85226 13.6869 1.9686 13.7693 2.08812C13.7889 2.11613 13.7889 2.11613 13.809 2.14471C14.2865 2.87943 14.2324 3.82098 14.2298 4.65834C14.2295 4.77657 14.2295 4.8948 14.2295 5.01303C14.2293 5.23605 14.2289 5.45907 14.2284 5.68209C14.2279 5.93636 14.2276 6.19062 14.2274 6.44489C14.2269 6.96713 14.226 7.48937 14.225 8.01162C13.8451 8.01162 13.4652 8.01162 13.0739 8.01162C13.0734 7.88674 13.0729 7.76187 13.0724 7.63321C13.0708 7.21961 13.069 6.806 13.067 6.3924C13.0658 6.14175 13.0647 5.8911 13.0637 5.64044C13.063 5.4218 13.062 5.20315 13.0608 4.9845C13.0602 4.8689 13.0597 4.75329 13.0594 4.63768C13.0591 4.52851 13.0585 4.41935 13.0579 4.31018C13.0576 4.27045 13.0575 4.23073 13.0575 4.191C13.0572 3.98755 13.0504 3.78669 13.0287 3.58429C13.0269 3.56705 13.0251 3.5498 13.0232 3.53203C12.9794 3.16142 12.8305 2.74781 12.5463 2.49581C12.1549 2.19861 11.7115 2.15627 11.2363 2.15686C11.2037 2.15682 11.1712 2.15676 11.1386 2.1567C11.0496 2.15655 10.9607 2.15655 10.8717 2.15658C10.7756 2.15659 10.6794 2.15646 10.5833 2.15634C10.3951 2.15614 10.2069 2.15608 10.0187 2.15606C9.86559 2.15605 9.71251 2.156 9.55944 2.15593C9.12486 2.15572 8.69028 2.1556 8.2557 2.15562C8.2206 2.15562 8.2206 2.15562 8.18478 2.15563C8.14964 2.15563 8.14963 2.15563 8.11378 2.15563C7.73426 2.15564 7.35475 2.15541 6.97524 2.15507C6.58499 2.15473 6.19475 2.15456 5.8045 2.15458C5.58564 2.15459 5.36678 2.15452 5.14791 2.15427C4.96153 2.15405 4.77514 2.154 4.58876 2.15416C4.4938 2.15424 4.39885 2.15424 4.30389 2.15403C3.3458 2.13809 3.3458 2.13809 2.53688 2.60008C2.25673 2.92639 2.17476 3.32452 2.17703 3.74359C2.17694 3.77651 2.17683 3.80943 2.17669 3.84235C2.17639 3.9323 2.17654 4.02224 2.17676 4.11219C2.17692 4.21025 2.17666 4.3083 2.17646 4.40636C2.17616 4.57804 2.17613 4.74973 2.17628 4.92142C2.1765 5.17673 2.17631 5.43205 2.17603 5.68736C2.17556 6.14341 2.17551 6.59946 2.17563 7.05551C2.17574 7.45467 2.17573 7.85383 2.17559 8.25299C2.17557 8.30654 2.17555 8.3601 2.17553 8.41366C2.1755 8.49436 2.17548 8.57507 2.17545 8.65577C2.17519 9.40605 2.17508 10.1563 2.17527 10.9066C2.17528 10.9349 2.17528 10.9632 2.17529 10.9923C2.17535 11.222 2.17541 11.4516 2.17547 11.6813C2.17572 12.5769 2.17552 13.4726 2.17496 14.3683C2.17433 15.3748 2.17403 16.3813 2.1742 17.3878C2.17421 17.4951 2.17423 17.6025 2.17425 17.7098C2.17425 17.7363 2.17425 17.7627 2.17426 17.7899C2.17431 18.1887 2.17412 18.5875 2.17381 18.9863C2.17345 19.44 2.17343 19.8936 2.17386 20.3472C2.17409 20.601 2.17405 20.8547 2.17363 21.1085C2.17338 21.2781 2.17348 21.4478 2.17386 21.6174C2.17407 21.714 2.17413 21.8105 2.17376 21.9071C2.16822 22.731 2.16822 22.731 2.56517 23.4341C2.84258 23.675 3.16587 23.8162 3.53532 23.8204C3.5527 23.8207 3.57008 23.8209 3.58799 23.8211C3.64648 23.8219 3.70497 23.8225 3.76347 23.823C3.80588 23.8235 3.84829 23.824 3.8907 23.8245C4.00769 23.8258 4.12469 23.827 4.24169 23.8281C4.31664 23.8288 4.39159 23.8296 4.46654 23.8303C5.76437 23.8433 7.06224 23.8441 8.36013 23.844C8.62862 23.844 8.89712 23.8442 9.16562 23.8446C9.44655 23.8449 9.72749 23.8451 10.0084 23.8451C10.1641 23.8451 10.3198 23.8451 10.4755 23.8454C10.6202 23.8456 10.7649 23.8456 10.9096 23.8454C10.9622 23.8454 11.0148 23.8455 11.0675 23.8456C11.6297 23.8471 12.2037 23.8269 12.639 23.4189C13.0251 22.9741 13.0521 22.3923 13.0548 21.8321C13.055 21.8012 13.0553 21.7703 13.0555 21.7384C13.0562 21.6548 13.0567 21.5712 13.0572 21.4876C13.0577 21.3998 13.0583 21.3119 13.059 21.2241C13.0602 21.0583 13.0612 20.8925 13.0623 20.7268C13.0635 20.5378 13.0648 20.3489 13.0661 20.1599C13.0688 19.7717 13.0714 19.3835 13.0739 18.9953C13.4537 18.9953 13.8336 18.9953 14.225 18.9953C14.2266 19.4368 14.2279 19.8784 14.2287 20.32C14.2291 20.525 14.2296 20.7301 14.2304 20.9352C14.2311 21.1142 14.2316 21.2932 14.2318 21.4722C14.2318 21.5667 14.2321 21.6613 14.2326 21.7558C14.237 22.5676 14.1776 23.3582 13.6734 24.0314C13.6578 24.0532 13.6421 24.075 13.626 24.0975C13.2328 24.6151 12.6226 24.8922 11.9921 24.9804C11.8401 24.9972 11.6888 24.9974 11.5361 24.9969C11.5008 24.997 11.4655 24.9971 11.4302 24.9972C11.3341 24.9975 11.238 24.9974 11.142 24.9973C11.038 24.9973 10.934 24.9975 10.83 24.9977C10.6266 24.998 10.4233 24.998 10.2199 24.9979C10.0545 24.9979 9.88912 24.9979 9.72372 24.998C9.70013 24.9981 9.67653 24.9981 9.65222 24.9981C9.60427 24.9981 9.55632 24.9981 9.50837 24.9982C9.05934 24.9984 8.6103 24.9984 8.16127 24.9982C7.75115 24.9981 7.34104 24.9984 6.93092 24.9988C6.50904 24.9993 6.08717 24.9995 5.6653 24.9994C5.42875 24.9994 5.19221 24.9994 4.95567 24.9998C4.75429 25.0001 4.55292 25.0001 4.35155 24.9998C4.24897 24.9997 4.14638 24.9996 4.0438 24.9999C3.21795 25.0021 2.50939 24.9034 1.8504 24.3672C1.83535 24.356 1.82029 24.3449 1.80478 24.3334C1.33792 23.9731 1.10588 23.3465 1.02588 22.7834C0.991452 22.4943 1.00102 22.2002 1.0018 21.9094C1.00198 21.8101 1.00175 21.7108 1.00157 21.6115C1.00131 21.4378 1.00131 21.2642 1.0015 21.0905C1.00177 20.8322 1.00163 20.5739 1.00141 20.3157C1.00103 19.8543 1.00106 19.393 1.00127 18.9316C1.00145 18.5279 1.0015 18.1242 1.00141 17.7205C1.00141 17.6937 1.0014 17.6669 1.0014 17.6393C1.00138 17.5304 1.00135 17.4216 1.00133 17.3128C1.00111 16.2925 1.00131 15.2723 1.0017 14.2521C1.00204 13.3461 1.00201 12.4401 1.00166 11.5341C1.00128 10.5156 1.00112 9.49712 1.00135 8.47865C1.00137 8.37004 1.00139 8.26143 1.00141 8.15283C1.00142 8.12609 1.00143 8.09935 1.00143 8.0718C1.00151 7.66835 1.00142 7.2649 1.00124 6.86146C1.00103 6.40266 1.00108 5.94387 1.00147 5.48508C1.00168 5.22845 1.0017 4.97182 1.00143 4.71518C1.00126 4.54362 1.00137 4.37205 1.00168 4.20048C1.00185 4.10283 1.00191 4.00519 1.00165 3.90754C0.999545 3.05431 1.12429 2.39386 1.73049 1.75238C1.75419 1.72678 1.75419 1.72678 1.77836 1.70067C2.14957 1.31228 2.75889 1.00641 3.30045 1.00579Z"/>
</mask>
<path d="M3.30045 1.00579C3.33076 1.0057 3.36107 1.00561 3.39229 1.00551C3.42562 1.00553 3.45895 1.00555 3.49228 1.00558C3.52793 1.00552 3.56357 1.00544 3.59922 1.00536C3.69699 1.00517 3.79476 1.00512 3.89253 1.00511C3.99805 1.00506 4.10358 1.00488 4.20911 1.00472C4.43983 1.00439 4.67054 1.00425 4.90125 1.00414C5.04544 1.00408 5.18964 1.00398 5.33383 1.00387C5.73341 1.00358 6.133 1.00333 6.53258 1.00325C6.55814 1.00324 6.58371 1.00324 6.61005 1.00323C6.64848 1.00322 6.64848 1.00322 6.6877 1.00322C6.73962 1.00321 6.79154 1.00319 6.84346 1.00318C6.86922 1.00318 6.89497 1.00317 6.92151 1.00317C7.33837 1.00307 7.75522 1.00266 8.17208 1.0021C8.60054 1.00153 9.02899 1.00123 9.45744 1.0012C9.69781 1.00118 9.93818 1.00104 10.1785 1.00061C10.3833 1.00023 10.5881 1.00011 10.7929 1.00031C10.8972 1.0004 11.0016 1.00039 11.1059 1.00005C12.003 0.997303 12.8178 1.11502 13.5026 1.74704C13.603 1.85226 13.6869 1.9686 13.7693 2.08812C13.7889 2.11613 13.7889 2.11613 13.809 2.14471C14.2865 2.87943 14.2324 3.82098 14.2298 4.65834C14.2295 4.77657 14.2295 4.8948 14.2295 5.01303C14.2293 5.23605 14.2289 5.45907 14.2284 5.68209C14.2279 5.93636 14.2276 6.19062 14.2274 6.44489C14.2269 6.96713 14.226 7.48937 14.225 8.01162C13.8451 8.01162 13.4652 8.01162 13.0739 8.01162C13.0734 7.88674 13.0729 7.76187 13.0724 7.63321C13.0708 7.21961 13.069 6.806 13.067 6.3924C13.0658 6.14175 13.0647 5.8911 13.0637 5.64044C13.063 5.4218 13.062 5.20315 13.0608 4.9845C13.0602 4.8689 13.0597 4.75329 13.0594 4.63768C13.0591 4.52851 13.0585 4.41935 13.0579 4.31018C13.0576 4.27045 13.0575 4.23073 13.0575 4.191C13.0572 3.98755 13.0504 3.78669 13.0287 3.58429C13.0269 3.56705 13.0251 3.5498 13.0232 3.53203C12.9794 3.16142 12.8305 2.74781 12.5463 2.49581C12.1549 2.19861 11.7115 2.15627 11.2363 2.15686C11.2037 2.15682 11.1712 2.15676 11.1386 2.1567C11.0496 2.15655 10.9607 2.15655 10.8717 2.15658C10.7756 2.15659 10.6794 2.15646 10.5833 2.15634C10.3951 2.15614 10.2069 2.15608 10.0187 2.15606C9.86559 2.15605 9.71251 2.156 9.55944 2.15593C9.12486 2.15572 8.69028 2.1556 8.2557 2.15562C8.2206 2.15562 8.2206 2.15562 8.18478 2.15563C8.14964 2.15563 8.14963 2.15563 8.11378 2.15563C7.73426 2.15564 7.35475 2.15541 6.97524 2.15507C6.58499 2.15473 6.19475 2.15456 5.8045 2.15458C5.58564 2.15459 5.36678 2.15452 5.14791 2.15427C4.96153 2.15405 4.77514 2.154 4.58876 2.15416C4.4938 2.15424 4.39885 2.15424 4.30389 2.15403C3.3458 2.13809 3.3458 2.13809 2.53688 2.60008C2.25673 2.92639 2.17476 3.32452 2.17703 3.74359C2.17694 3.77651 2.17683 3.80943 2.17669 3.84235C2.17639 3.9323 2.17654 4.02224 2.17676 4.11219C2.17692 4.21025 2.17666 4.3083 2.17646 4.40636C2.17616 4.57804 2.17613 4.74973 2.17628 4.92142C2.1765 5.17673 2.17631 5.43205 2.17603 5.68736C2.17556 6.14341 2.17551 6.59946 2.17563 7.05551C2.17574 7.45467 2.17573 7.85383 2.17559 8.25299C2.17557 8.30654 2.17555 8.3601 2.17553 8.41366C2.1755 8.49436 2.17548 8.57507 2.17545 8.65577C2.17519 9.40605 2.17508 10.1563 2.17527 10.9066C2.17528 10.9349 2.17528 10.9632 2.17529 10.9923C2.17535 11.222 2.17541 11.4516 2.17547 11.6813C2.17572 12.5769 2.17552 13.4726 2.17496 14.3683C2.17433 15.3748 2.17403 16.3813 2.1742 17.3878C2.17421 17.4951 2.17423 17.6025 2.17425 17.7098C2.17425 17.7363 2.17425 17.7627 2.17426 17.7899C2.17431 18.1887 2.17412 18.5875 2.17381 18.9863C2.17345 19.44 2.17343 19.8936 2.17386 20.3472C2.17409 20.601 2.17405 20.8547 2.17363 21.1085C2.17338 21.2781 2.17348 21.4478 2.17386 21.6174C2.17407 21.714 2.17413 21.8105 2.17376 21.9071C2.16822 22.731 2.16822 22.731 2.56517 23.4341C2.84258 23.675 3.16587 23.8162 3.53532 23.8204C3.5527 23.8207 3.57008 23.8209 3.58799 23.8211C3.64648 23.8219 3.70497 23.8225 3.76347 23.823C3.80588 23.8235 3.84829 23.824 3.8907 23.8245C4.00769 23.8258 4.12469 23.827 4.24169 23.8281C4.31664 23.8288 4.39159 23.8296 4.46654 23.8303C5.76437 23.8433 7.06224 23.8441 8.36013 23.844C8.62862 23.844 8.89712 23.8442 9.16562 23.8446C9.44655 23.8449 9.72749 23.8451 10.0084 23.8451C10.1641 23.8451 10.3198 23.8451 10.4755 23.8454C10.6202 23.8456 10.7649 23.8456 10.9096 23.8454C10.9622 23.8454 11.0148 23.8455 11.0675 23.8456C11.6297 23.8471 12.2037 23.8269 12.639 23.4189C13.0251 22.9741 13.0521 22.3923 13.0548 21.8321C13.055 21.8012 13.0553 21.7703 13.0555 21.7384C13.0562 21.6548 13.0567 21.5712 13.0572 21.4876C13.0577 21.3998 13.0583 21.3119 13.059 21.2241C13.0602 21.0583 13.0612 20.8925 13.0623 20.7268C13.0635 20.5378 13.0648 20.3489 13.0661 20.1599C13.0688 19.7717 13.0714 19.3835 13.0739 18.9953C13.4537 18.9953 13.8336 18.9953 14.225 18.9953C14.2266 19.4368 14.2279 19.8784 14.2287 20.32C14.2291 20.525 14.2296 20.7301 14.2304 20.9352C14.2311 21.1142 14.2316 21.2932 14.2318 21.4722C14.2318 21.5667 14.2321 21.6613 14.2326 21.7558C14.237 22.5676 14.1776 23.3582 13.6734 24.0314C13.6578 24.0532 13.6421 24.075 13.626 24.0975C13.2328 24.6151 12.6226 24.8922 11.9921 24.9804C11.8401 24.9972 11.6888 24.9974 11.5361 24.9969C11.5008 24.997 11.4655 24.9971 11.4302 24.9972C11.3341 24.9975 11.238 24.9974 11.142 24.9973C11.038 24.9973 10.934 24.9975 10.83 24.9977C10.6266 24.998 10.4233 24.998 10.2199 24.9979C10.0545 24.9979 9.88912 24.9979 9.72372 24.998C9.70013 24.9981 9.67653 24.9981 9.65222 24.9981C9.60427 24.9981 9.55632 24.9981 9.50837 24.9982C9.05934 24.9984 8.6103 24.9984 8.16127 24.9982C7.75115 24.9981 7.34104 24.9984 6.93092 24.9988C6.50904 24.9993 6.08717 24.9995 5.6653 24.9994C5.42875 24.9994 5.19221 24.9994 4.95567 24.9998C4.75429 25.0001 4.55292 25.0001 4.35155 24.9998C4.24897 24.9997 4.14638 24.9996 4.0438 24.9999C3.21795 25.0021 2.50939 24.9034 1.8504 24.3672C1.83535 24.356 1.82029 24.3449 1.80478 24.3334C1.33792 23.9731 1.10588 23.3465 1.02588 22.7834C0.991452 22.4943 1.00102 22.2002 1.0018 21.9094C1.00198 21.8101 1.00175 21.7108 1.00157 21.6115C1.00131 21.4378 1.00131 21.2642 1.0015 21.0905C1.00177 20.8322 1.00163 20.5739 1.00141 20.3157C1.00103 19.8543 1.00106 19.393 1.00127 18.9316C1.00145 18.5279 1.0015 18.1242 1.00141 17.7205C1.00141 17.6937 1.0014 17.6669 1.0014 17.6393C1.00138 17.5304 1.00135 17.4216 1.00133 17.3128C1.00111 16.2925 1.00131 15.2723 1.0017 14.2521C1.00204 13.3461 1.00201 12.4401 1.00166 11.5341C1.00128 10.5156 1.00112 9.49712 1.00135 8.47865C1.00137 8.37004 1.00139 8.26143 1.00141 8.15283C1.00142 8.12609 1.00143 8.09935 1.00143 8.0718C1.00151 7.66835 1.00142 7.2649 1.00124 6.86146C1.00103 6.40266 1.00108 5.94387 1.00147 5.48508C1.00168 5.22845 1.0017 4.97182 1.00143 4.71518C1.00126 4.54362 1.00137 4.37205 1.00168 4.20048C1.00185 4.10283 1.00191 4.00519 1.00165 3.90754C0.999545 3.05431 1.12429 2.39386 1.73049 1.75238C1.75419 1.72678 1.75419 1.72678 1.77836 1.70067C2.14957 1.31228 2.75889 1.00641 3.30045 1.00579Z" fill="#424242"/>
<path d="M3.30045 1.00579C3.33076 1.0057 3.36107 1.00561 3.39229 1.00551C3.42562 1.00553 3.45895 1.00555 3.49228 1.00558C3.52793 1.00552 3.56357 1.00544 3.59922 1.00536C3.69699 1.00517 3.79476 1.00512 3.89253 1.00511C3.99805 1.00506 4.10358 1.00488 4.20911 1.00472C4.43983 1.00439 4.67054 1.00425 4.90125 1.00414C5.04544 1.00408 5.18964 1.00398 5.33383 1.00387C5.73341 1.00358 6.133 1.00333 6.53258 1.00325C6.55814 1.00324 6.58371 1.00324 6.61005 1.00323C6.64848 1.00322 6.64848 1.00322 6.6877 1.00322C6.73962 1.00321 6.79154 1.00319 6.84346 1.00318C6.86922 1.00318 6.89497 1.00317 6.92151 1.00317C7.33837 1.00307 7.75522 1.00266 8.17208 1.0021C8.60054 1.00153 9.02899 1.00123 9.45744 1.0012C9.69781 1.00118 9.93818 1.00104 10.1785 1.00061C10.3833 1.00023 10.5881 1.00011 10.7929 1.00031C10.8972 1.0004 11.0016 1.00039 11.1059 1.00005C12.003 0.997303 12.8178 1.11502 13.5026 1.74704C13.603 1.85226 13.6869 1.9686 13.7693 2.08812C13.7889 2.11613 13.7889 2.11613 13.809 2.14471C14.2865 2.87943 14.2324 3.82098 14.2298 4.65834C14.2295 4.77657 14.2295 4.8948 14.2295 5.01303C14.2293 5.23605 14.2289 5.45907 14.2284 5.68209C14.2279 5.93636 14.2276 6.19062 14.2274 6.44489C14.2269 6.96713 14.226 7.48937 14.225 8.01162C13.8451 8.01162 13.4652 8.01162 13.0739 8.01162C13.0734 7.88674 13.0729 7.76187 13.0724 7.63321C13.0708 7.21961 13.069 6.806 13.067 6.3924C13.0658 6.14175 13.0647 5.8911 13.0637 5.64044C13.063 5.4218 13.062 5.20315 13.0608 4.9845C13.0602 4.8689 13.0597 4.75329 13.0594 4.63768C13.0591 4.52851 13.0585 4.41935 13.0579 4.31018C13.0576 4.27045 13.0575 4.23073 13.0575 4.191C13.0572 3.98755 13.0504 3.78669 13.0287 3.58429C13.0269 3.56705 13.0251 3.5498 13.0232 3.53203C12.9794 3.16142 12.8305 2.74781 12.5463 2.49581C12.1549 2.19861 11.7115 2.15627 11.2363 2.15686C11.2037 2.15682 11.1712 2.15676 11.1386 2.1567C11.0496 2.15655 10.9607 2.15655 10.8717 2.15658C10.7756 2.15659 10.6794 2.15646 10.5833 2.15634C10.3951 2.15614 10.2069 2.15608 10.0187 2.15606C9.86559 2.15605 9.71251 2.156 9.55944 2.15593C9.12486 2.15572 8.69028 2.1556 8.2557 2.15562C8.2206 2.15562 8.2206 2.15562 8.18478 2.15563C8.14964 2.15563 8.14963 2.15563 8.11378 2.15563C7.73426 2.15564 7.35475 2.15541 6.97524 2.15507C6.58499 2.15473 6.19475 2.15456 5.8045 2.15458C5.58564 2.15459 5.36678 2.15452 5.14791 2.15427C4.96153 2.15405 4.77514 2.154 4.58876 2.15416C4.4938 2.15424 4.39885 2.15424 4.30389 2.15403C3.3458 2.13809 3.3458 2.13809 2.53688 2.60008C2.25673 2.92639 2.17476 3.32452 2.17703 3.74359C2.17694 3.77651 2.17683 3.80943 2.17669 3.84235C2.17639 3.9323 2.17654 4.02224 2.17676 4.11219C2.17692 4.21025 2.17666 4.3083 2.17646 4.40636C2.17616 4.57804 2.17613 4.74973 2.17628 4.92142C2.1765 5.17673 2.17631 5.43205 2.17603 5.68736C2.17556 6.14341 2.17551 6.59946 2.17563 7.05551C2.17574 7.45467 2.17573 7.85383 2.17559 8.25299C2.17557 8.30654 2.17555 8.3601 2.17553 8.41366C2.1755 8.49436 2.17548 8.57507 2.17545 8.65577C2.17519 9.40605 2.17508 10.1563 2.17527 10.9066C2.17528 10.9349 2.17528 10.9632 2.17529 10.9923C2.17535 11.222 2.17541 11.4516 2.17547 11.6813C2.17572 12.5769 2.17552 13.4726 2.17496 14.3683C2.17433 15.3748 2.17403 16.3813 2.1742 17.3878C2.17421 17.4951 2.17423 17.6025 2.17425 17.7098C2.17425 17.7363 2.17425 17.7627 2.17426 17.7899C2.17431 18.1887 2.17412 18.5875 2.17381 18.9863C2.17345 19.44 2.17343 19.8936 2.17386 20.3472C2.17409 20.601 2.17405 20.8547 2.17363 21.1085C2.17338 21.2781 2.17348 21.4478 2.17386 21.6174C2.17407 21.714 2.17413 21.8105 2.17376 21.9071C2.16822 22.731 2.16822 22.731 2.56517 23.4341C2.84258 23.675 3.16587 23.8162 3.53532 23.8204C3.5527 23.8207 3.57008 23.8209 3.58799 23.8211C3.64648 23.8219 3.70497 23.8225 3.76347 23.823C3.80588 23.8235 3.84829 23.824 3.8907 23.8245C4.00769 23.8258 4.12469 23.827 4.24169 23.8281C4.31664 23.8288 4.39159 23.8296 4.46654 23.8303C5.76437 23.8433 7.06224 23.8441 8.36013 23.844C8.62862 23.844 8.89712 23.8442 9.16562 23.8446C9.44655 23.8449 9.72749 23.8451 10.0084 23.8451C10.1641 23.8451 10.3198 23.8451 10.4755 23.8454C10.6202 23.8456 10.7649 23.8456 10.9096 23.8454C10.9622 23.8454 11.0148 23.8455 11.0675 23.8456C11.6297 23.8471 12.2037 23.8269 12.639 23.4189C13.0251 22.9741 13.0521 22.3923 13.0548 21.8321C13.055 21.8012 13.0553 21.7703 13.0555 21.7384C13.0562 21.6548 13.0567 21.5712 13.0572 21.4876C13.0577 21.3998 13.0583 21.3119 13.059 21.2241C13.0602 21.0583 13.0612 20.8925 13.0623 20.7268C13.0635 20.5378 13.0648 20.3489 13.0661 20.1599C13.0688 19.7717 13.0714 19.3835 13.0739 18.9953C13.4537 18.9953 13.8336 18.9953 14.225 18.9953C14.2266 19.4368 14.2279 19.8784 14.2287 20.32C14.2291 20.525 14.2296 20.7301 14.2304 20.9352C14.2311 21.1142 14.2316 21.2932 14.2318 21.4722C14.2318 21.5667 14.2321 21.6613 14.2326 21.7558C14.237 22.5676 14.1776 23.3582 13.6734 24.0314C13.6578 24.0532 13.6421 24.075 13.626 24.0975C13.2328 24.6151 12.6226 24.8922 11.9921 24.9804C11.8401 24.9972 11.6888 24.9974 11.5361 24.9969C11.5008 24.997 11.4655 24.9971 11.4302 24.9972C11.3341 24.9975 11.238 24.9974 11.142 24.9973C11.038 24.9973 10.934 24.9975 10.83 24.9977C10.6266 24.998 10.4233 24.998 10.2199 24.9979C10.0545 24.9979 9.88912 24.9979 9.72372 24.998C9.70013 24.9981 9.67653 24.9981 9.65222 24.9981C9.60427 24.9981 9.55632 24.9981 9.50837 24.9982C9.05934 24.9984 8.6103 24.9984 8.16127 24.9982C7.75115 24.9981 7.34104 24.9984 6.93092 24.9988C6.50904 24.9993 6.08717 24.9995 5.6653 24.9994C5.42875 24.9994 5.19221 24.9994 4.95567 24.9998C4.75429 25.0001 4.55292 25.0001 4.35155 24.9998C4.24897 24.9997 4.14638 24.9996 4.0438 24.9999C3.21795 25.0021 2.50939 24.9034 1.8504 24.3672C1.83535 24.356 1.82029 24.3449 1.80478 24.3334C1.33792 23.9731 1.10588 23.3465 1.02588 22.7834C0.991452 22.4943 1.00102 22.2002 1.0018 21.9094C1.00198 21.8101 1.00175 21.7108 1.00157 21.6115C1.00131 21.4378 1.00131 21.2642 1.0015 21.0905C1.00177 20.8322 1.00163 20.5739 1.00141 20.3157C1.00103 19.8543 1.00106 19.393 1.00127 18.9316C1.00145 18.5279 1.0015 18.1242 1.00141 17.7205C1.00141 17.6937 1.0014 17.6669 1.0014 17.6393C1.00138 17.5304 1.00135 17.4216 1.00133 17.3128C1.00111 16.2925 1.00131 15.2723 1.0017 14.2521C1.00204 13.3461 1.00201 12.4401 1.00166 11.5341C1.00128 10.5156 1.00112 9.49712 1.00135 8.47865C1.00137 8.37004 1.00139 8.26143 1.00141 8.15283C1.00142 8.12609 1.00143 8.09935 1.00143 8.0718C1.00151 7.66835 1.00142 7.2649 1.00124 6.86146C1.00103 6.40266 1.00108 5.94387 1.00147 5.48508C1.00168 5.22845 1.0017 4.97182 1.00143 4.71518C1.00126 4.54362 1.00137 4.37205 1.00168 4.20048C1.00185 4.10283 1.00191 4.00519 1.00165 3.90754C0.999545 3.05431 1.12429 2.39386 1.73049 1.75238C1.75419 1.72678 1.75419 1.72678 1.77836 1.70067C2.14957 1.31228 2.75889 1.00641 3.30045 1.00579Z" stroke="#424242" stroke-width="0.2" mask="url(#path-1-outside-1_277_1151)"/>
<path d="M9.0929 13.2396C12.3376 13.2396 15.5824 13.2396 18.9254 13.2396M18.6288 17.2294C18.2879 17.5704 17.7494 17.6062 17.2911 17.6076C17.2649 17.6076 17.2386 17.6075 17.2115 17.6075C17.1829 17.6076 17.1542 17.6076 17.1246 17.6077C17.0458 17.6078 16.9671 17.6078 16.8883 17.6078C16.803 17.6078 16.7177 17.6079 16.6324 17.608C16.4657 17.6082 16.2989 17.6083 16.1322 17.6083C15.9965 17.6083 15.8609 17.6084 15.7252 17.6084C15.3399 17.6087 14.9546 17.6088 14.5693 17.6087C14.5485 17.6087 14.5278 17.6087 14.5064 17.6087C14.4857 17.6087 14.4649 17.6087 14.4435 17.6087C14.1072 17.6087 13.7709 17.609 13.4345 17.6093C13.0885 17.6096 12.7424 17.6098 12.3964 17.6098C12.2024 17.6098 12.0084 17.6098 11.8144 17.6101C11.6492 17.6103 11.4841 17.6104 11.3189 17.6102C11.2348 17.6101 11.1507 17.6101 11.0665 17.6103C10.4271 17.6116 10.4271 17.6116 10.1241 17.5563C10.1054 17.5535 10.0868 17.5506 10.0675 17.5477C9.79392 17.5055 9.53186 17.4272 9.34958 17.207" stroke="#424242" stroke-width="0.1"/>
<path d="M8.7911 3.09149L8.79128 3.09149L8.86627 3.09082C8.86627 3.09082 8.86627 3.09082 8.86628 3.09082C8.91211 3.0904 8.95793 3.08981 9.00372 3.08898L9.00428 3.08897C9.25828 3.0872 9.48977 3.12718 9.6998 3.29618L9.70687 3.30187L9.70625 3.3024C9.84252 3.45973 9.89291 3.6363 9.8863 3.83888L9.88618 3.84267L9.88604 3.84265C9.87736 3.92253 9.85982 3.98639 9.8293 4.04524C9.79924 4.10317 9.75795 4.15359 9.70555 4.20807L9.67318 4.24612L9.67001 4.24985L9.66984 4.24967C9.57479 4.34156 9.45855 4.37554 9.34251 4.38734C9.26253 4.39547 9.17747 4.39323 9.09809 4.39114C9.0652 4.39028 9.03328 4.38944 9.00311 4.38937C9.00303 4.38937 9.00295 4.38937 9.00286 4.38937L8.85021 4.39061L8.85014 4.39061C8.72777 4.39151 8.60544 4.39185 8.48315 4.39191L8.7911 3.09149ZM8.7911 3.09149C8.68856 3.09276 8.58606 3.09357 8.48356 3.09374L8.7911 3.09149ZM6.43251 4.35243C6.38336 4.35253 6.33421 4.3528 6.28506 4.35324C6.2169 4.35382 6.14876 4.3538 6.0806 4.35364M6.43251 4.35243L6.02081 4.35457L6.0806 4.35364M6.43251 4.35243L6.43254 4.40243C6.43256 4.40243 6.43259 4.40243 6.43262 4.40243M6.43251 4.35243L6.43262 4.40243M6.0806 4.35364L6.08048 4.40364C6.08063 4.40364 6.08078 4.40364 6.08093 4.40364M6.0806 4.35364L6.08138 4.40363L6.08093 4.40364M6.08093 4.40364C6.149 4.4038 6.2172 4.40382 6.28549 4.40324L6.28551 4.40324C6.33454 4.40279 6.38358 4.40253 6.43262 4.40243M6.08093 4.40364L6.02159 4.40457L6.02037 4.40458C5.81043 4.4027 5.625 4.32324 5.47216 4.18103L5.46733 4.17653L5.46766 4.17626C5.32651 4.00527 5.33537 3.7821 5.34986 3.59507L5.35022 3.59037L5.35044 3.59041C5.37803 3.43098 5.47188 3.3214 5.58282 3.22538L5.59202 3.21743L5.59268 3.21872C5.77736 3.12378 5.95625 3.1032 6.15359 3.10417C6.15371 3.10417 6.15383 3.10417 6.15396 3.10417L6.1537 3.15417L6.43262 4.40243M6.43262 4.40243C6.56418 4.40236 6.69575 4.40194 6.82734 4.40101L6.82735 4.40101C6.93702 4.40022 7.04669 4.39957 7.15636 4.39911C7.42588 4.39799 7.6954 4.3965 7.96495 4.39442C8.13775 4.39308 8.31046 4.39204 8.48315 4.39191L6.43262 4.40243ZM6.48883 3.10265L6.4887 3.10265L6.489 3.15265L6.48899 3.10265M6.48883 3.10265L7.09547 3.14967L7.09536 3.09967M6.48883 3.10265C6.48888 3.10265 6.48893 3.10265 6.48899 3.10265M6.48883 3.10265L6.48899 3.10265M6.48899 3.10265L6.66904 3.10145L6.66908 3.10145C6.81119 3.10051 6.95329 3.09999 7.09536 3.09967C7.09536 3.09967 7.09536 3.09967 7.09536 3.09967M7.09536 3.09967C7.26466 3.09927 7.43397 3.09825 7.60338 3.09723L7.621 3.09712L7.62101 3.09712C7.90848 3.09549 8.196 3.09413 8.48355 3.09374L7.09536 3.09967Z" fill="#424242" stroke="#424242" stroke-width="0.1"/>
<path d="M8.25466 20.6981L8.25477 20.698L8.2512 20.6958C7.74523 20.3853 7.06106 20.4948 6.65824 20.9245L6.6581 20.9244L6.65541 20.9278C6.46927 21.1647 6.36333 21.4635 6.3759 21.7677L6.37585 21.7677L6.37604 21.7698L6.38109 21.8292C6.38109 21.8292 6.38109 21.8292 6.38109 21.8292C6.40161 22.0794 6.49842 22.3092 6.64656 22.5081L6.64631 22.5083L6.65011 22.5123C6.9092 22.7898 7.26309 22.8869 7.61889 22.9067L7.61888 22.9068L7.62196 22.9068C7.93262 22.905 8.24132 22.7435 8.46114 22.5425L8.46124 22.5426L8.46378 22.5399C8.71493 22.2735 8.76912 21.9541 8.7618 21.6141L8.76178 21.6135L8.75919 21.5366C8.75941 21.5039 8.75904 21.4709 8.75764 21.4378L8.75795 21.4377L8.7571 21.4322C8.71157 21.1376 8.47896 20.863 8.25466 20.6981Z" fill="#424242" stroke="#424242" stroke-width="0.1"/>
<path d="M9 12.5647H19" stroke="#424242" stroke-width="1.2" stroke-miterlimit="10" stroke-linecap="round" stroke-linejoin="round"/>
<path d="M19 11.1941V15.4C18.9824 17.0765 18.5235 17.5 16.7765 17.5H11.2235C9.44708 17.5 9 17.0588 9 15.3059V11.1941C9 9.60588 9.37059 9.09412 10.7647 9.01176C10.9059 9.00588 11.0588 9 11.2235 9H16.7765C18.5529 9 19 9.44118 19 11.1941Z" stroke="#424242" stroke-width="1.2" stroke-linecap="round" stroke-linejoin="round"/>
<path d="M10.9118 15.6237H11.9235" stroke="#424242" stroke-width="1.2" stroke-miterlimit="10" stroke-linecap="round" stroke-linejoin="round"/>
<path d="M13.1823 15.6237H15.2059" stroke="#424242" stroke-width="1.2" stroke-miterlimit="10" stroke-linecap="round" stroke-linejoin="round"/>
</svg>
