<svg width="24" height="24" viewBox="0 0 24 24" fill="none" xmlns="http://www.w3.org/2000/svg">
<path d="M7.00696 12C7.00696 11.801 7.08598 11.6103 7.22663 11.4696C7.36728 11.329 7.55805 11.25 7.75696 11.25H11.25V7.75696C11.25 7.55805 11.329 7.36728 11.4696 7.22663C11.6103 7.08598 11.801 7.00696 12 7.00696C12.1989 7.00696 12.3896 7.08598 12.5303 7.22663C12.6709 7.36728 12.75 7.55805 12.75 7.75696V11.25H16.243C16.4419 11.25 16.6326 11.329 16.7733 11.4696C16.9139 11.6103 16.993 11.801 16.993 12C16.993 12.1989 16.9139 12.3896 16.7733 12.5303C16.6326 12.6709 16.4419 12.75 16.243 12.75H12.75V16.243C12.75 16.4419 12.6709 16.6326 12.5303 16.7733C12.3896 16.9139 12.1989 16.993 12 16.993C11.801 16.993 11.6103 16.9139 11.4696 16.7733C11.329 16.6326 11.25 16.4419 11.25 16.243V12.75H7.75696C7.55805 12.75 7.36728 12.6709 7.22663 12.5303C7.08598 12.3896 7.00696 12.1989 7.00696 12Z" fill="white"/>
<path fill-rule="evenodd" clip-rule="evenodd" d="M7.31696 3.76904C10.4294 3.42399 13.5705 3.42399 16.683 3.76904C18.51 3.97304 19.985 5.41204 20.199 7.24904C20.569 10.406 20.569 13.595 20.199 16.752C19.984 18.589 18.509 20.027 16.683 20.232C13.5705 20.5771 10.4294 20.5771 7.31696 20.232C5.48996 20.027 4.01496 18.589 3.80096 16.752C3.43174 13.5951 3.43174 10.4059 3.80096 7.24904C4.01496 5.41204 5.49096 3.97304 7.31696 3.76904ZM16.517 5.25904C13.5148 4.92627 10.4851 4.92627 7.48296 5.25904C6.92721 5.32069 6.40847 5.56791 6.01054 5.96075C5.61262 6.35359 5.35876 6.86912 5.28996 7.42404C4.93431 10.465 4.93431 13.5371 5.28996 16.578C5.35897 17.1328 5.61292 17.6481 6.01083 18.0407C6.40873 18.4333 6.92736 18.6804 7.48296 18.742C10.46 19.074 13.54 19.074 16.517 18.742C17.0724 18.6802 17.5908 18.433 17.9885 18.0404C18.3862 17.6478 18.64 17.1326 18.709 16.578C19.0646 13.5371 19.0646 10.465 18.709 7.42404C18.6398 6.86963 18.3859 6.35468 17.9882 5.96226C17.5905 5.56983 17.0722 5.32281 16.517 5.26104" fill="white"/>
</svg>
