<svg width="24" height="22" viewBox="0 0 24 22" fill="none" xmlns="http://www.w3.org/2000/svg">
<path d="M7.09153 0.882553C7.25568 0.882478 7.41983 0.882254 7.58398 0.88198C8.15782 0.881022 8.73165 0.88059 9.30549 0.880672C9.83892 0.880735 10.3723 0.879628 10.9058 0.877989C11.3659 0.876627 11.826 0.876067 12.2861 0.876134C12.5601 0.876161 12.834 0.875867 13.1079 0.874761C13.3648 0.873751 13.6216 0.873744 13.8785 0.874502C13.9725 0.874611 14.0665 0.874366 14.1605 0.873735C14.2892 0.872928 14.4177 0.873416 14.5463 0.874217C14.5832 0.873681 14.6201 0.873145 14.6581 0.872593C14.937 0.876417 15.1566 0.953242 15.3851 1.10842C15.6023 1.38137 15.6741 1.59423 15.6456 1.94214C15.5513 2.21688 15.425 2.40826 15.1767 2.56744C14.9909 2.62936 14.8224 2.62719 14.6291 2.62709C14.5688 2.62737 14.5688 2.62737 14.5072 2.62765C14.372 2.6282 14.2368 2.6284 14.1015 2.62859C14.0047 2.62892 13.9079 2.62927 13.8111 2.62965C13.6022 2.63041 13.3933 2.63102 13.1844 2.63152C12.8531 2.63233 12.5219 2.63358 12.1906 2.6349C11.2484 2.63861 10.3062 2.64171 9.36405 2.64439C8.84396 2.64588 8.32388 2.64772 7.8038 2.64995C7.47558 2.65133 7.14736 2.65227 6.81913 2.65287C6.61309 2.65335 6.40706 2.65426 6.20103 2.65528C6.10671 2.65566 6.01238 2.65588 5.91806 2.6559C5.41979 2.65612 4.92686 2.67266 4.43053 2.71864C4.38598 2.72273 4.34142 2.72681 4.29552 2.73102C3.59277 2.80218 2.80902 2.96492 2.34038 3.53876C1.88411 4.19891 1.83424 5.08774 1.77839 5.86327C1.77389 5.92258 1.76939 5.98189 1.76475 6.043C1.75385 6.18716 1.7432 6.33134 1.7328 6.47554C1.80099 6.47539 1.86918 6.47525 1.93944 6.4751C3.55799 6.47171 5.17654 6.46914 6.79509 6.46755C6.99429 6.46736 7.19348 6.46716 7.39267 6.46695C7.43233 6.46691 7.47198 6.46687 7.51284 6.46683C8.15504 6.46615 8.79724 6.46491 9.43944 6.46348C10.0983 6.46201 10.7572 6.46115 11.4161 6.46083C11.8227 6.46061 12.2294 6.45994 12.636 6.45867C12.9477 6.45774 13.2594 6.45764 13.5712 6.45786C13.6991 6.45781 13.827 6.4575 13.9549 6.4569C14.1294 6.45613 14.3038 6.45631 14.4783 6.45674C14.5545 6.45605 14.5545 6.45606 14.6322 6.45536C14.9054 6.45717 15.0972 6.47795 15.333 6.63186C15.5354 6.84552 15.6321 7.03359 15.6652 7.32555C15.6409 7.56466 15.5764 7.73869 15.4372 7.93456C15.2116 8.11408 15.0294 8.20165 14.7423 8.20151C14.6727 8.20167 14.6727 8.20167 14.6016 8.20183C14.5506 8.20167 14.4995 8.20152 14.447 8.20137C14.3657 8.20143 14.3657 8.20143 14.2828 8.2015C14.1004 8.20159 13.9179 8.2013 13.7355 8.20102C13.6051 8.201 13.4747 8.20101 13.3442 8.20104C13.063 8.20105 12.7818 8.2009 12.5005 8.20061C12.0939 8.20019 11.6873 8.20005 11.2807 8.19998C10.621 8.19987 9.96133 8.19952 9.30165 8.19903C8.66076 8.19855 8.01988 8.19818 7.379 8.19796C7.3395 8.19795 7.30001 8.19794 7.25932 8.19792C7.0612 8.19785 6.86307 8.19779 6.66495 8.19772C5.0209 8.19718 3.37685 8.19626 1.7328 8.1951C1.73719 9.26325 1.74215 10.3314 1.74778 11.3995C1.75038 11.8956 1.7528 12.3917 1.75478 12.8878C1.75651 13.3206 1.75859 13.7535 1.76108 14.1864C1.76239 14.4152 1.76352 14.6439 1.76424 14.8727C1.65675 17.1568 1.65675 17.1568 2.56653 19.1378C3.64429 19.8984 5.15354 19.7709 6.40553 19.7706C6.54042 19.7708 6.67531 19.771 6.8102 19.7712C7.13718 19.7716 7.46416 19.7717 7.79113 19.7718C8.05733 19.7718 8.32354 19.7719 8.58974 19.7721C9.3469 19.7725 10.1041 19.7728 10.8612 19.7727C10.9019 19.7727 10.9426 19.7727 10.9846 19.7727C11.0253 19.7727 11.0661 19.7727 11.1081 19.7727C11.7677 19.7727 12.4274 19.7732 13.087 19.7739C13.7667 19.7747 14.4464 19.775 15.1262 19.775C15.5068 19.775 15.8874 19.7751 16.2681 19.7757C16.6265 19.7762 16.9848 19.7762 17.3432 19.7758C17.4739 19.7758 17.6046 19.7759 17.7353 19.7762C19.7967 19.8396 19.7967 19.8396 21.5859 18.9815C22.2773 18.1349 22.2171 16.7697 22.2204 15.7426C22.2212 15.6322 22.2222 15.5218 22.2232 15.4115C22.2255 15.1429 22.2275 14.8744 22.2282 14.6058C22.2287 14.4171 22.2303 14.2284 22.2325 14.0397C22.2331 13.9684 22.2334 13.8971 22.2332 13.8258C22.2324 13.1394 22.2324 13.1394 22.4718 12.8848C22.7338 12.654 22.8825 12.6086 23.2253 12.6131C23.4738 12.6341 23.6189 12.7264 23.7875 12.9044C23.9467 13.1432 23.996 13.3328 23.9964 13.6192C23.9969 13.7138 23.9969 13.7138 23.9974 13.8103C23.9971 13.9123 23.9971 13.9123 23.9967 14.0163C23.9968 14.088 23.9969 14.1596 23.997 14.2313C23.9972 14.3819 23.997 14.5326 23.9965 14.6832C23.9959 14.8727 23.9962 15.0621 23.9968 15.2516C24.007 18.9904 24.007 18.9904 22.7635 20.3129C21.3854 21.6121 19.3451 21.5514 17.5765 21.5482C17.4407 21.5484 17.305 21.5486 17.1693 21.5488C16.8422 21.5492 16.5151 21.5491 16.188 21.5488C15.9216 21.5486 15.6552 21.5486 15.3889 21.5487C15.3506 21.5487 15.3124 21.5487 15.273 21.5487C15.1953 21.5488 15.1176 21.5488 15.0399 21.5488C14.3149 21.5491 13.59 21.5488 12.865 21.5482C12.2459 21.5478 11.6268 21.5478 11.0077 21.5483C10.285 21.5489 9.56219 21.5491 8.83943 21.5488C8.76204 21.5488 8.68465 21.5487 8.60726 21.5487C8.55018 21.5487 8.55018 21.5487 8.49194 21.5486C8.22658 21.5485 7.96122 21.5487 7.69585 21.5489C7.33725 21.5493 6.97866 21.549 6.62006 21.5484C6.48951 21.5483 6.35895 21.5483 6.22839 21.5486C5.59657 21.5496 4.96881 21.5399 4.33878 21.4891C4.28938 21.4852 4.23998 21.4813 4.18909 21.4772C2.96087 21.3665 1.78034 20.9827 0.956266 20.0195C0.0328521 18.7333 0.00520991 17.0975 0.00566508 15.577C0.00550885 15.472 0.00533147 15.367 0.00513475 15.2619C0.00467738 14.9786 0.00455191 14.6952 0.00451854 14.4118C0.00448132 14.2341 0.00436995 14.0564 0.00423231 13.8788C0.00375115 13.2571 0.00353761 12.6355 0.00357873 12.0138C0.00360998 11.4373 0.00306104 10.8608 0.00223739 10.2843C0.00155256 9.78691 0.00127633 9.28957 0.0013095 8.79223C0.00132269 8.49624 0.00117935 8.20026 0.00062253 7.90428C0.000112167 7.62541 0.000118518 7.34655 0.000493723 7.06768C0.000547501 6.96632 0.00042898 6.86496 0.000109688 6.7636C-0.00144406 6.23543 0.0132588 5.71279 0.0602307 5.18649C0.0643526 5.14028 0.0684743 5.09407 0.072721 5.04646C0.190802 3.83979 0.559464 2.69552 1.49994 1.87986C3.04183 0.687157 5.25638 0.883023 7.09153 0.882553Z" fill="white"/>
<path d="M21.2831 0.75903C21.5191 0.888024 21.6565 1.03898 21.7423 1.29639C21.7485 1.44777 21.7519 1.59799 21.753 1.74943C21.7535 1.7957 21.754 1.84197 21.7545 1.88964C21.7562 2.04274 21.7575 2.19584 21.7588 2.34893C21.7598 2.45502 21.7609 2.56111 21.762 2.6672C21.7649 2.94655 21.7675 3.2259 21.77 3.50526C21.7726 3.79027 21.7755 4.07527 21.7784 4.36028C21.784 4.91959 21.7893 5.4789 21.7944 6.03822C21.8151 6.01694 21.8358 5.99566 21.8572 5.97373C21.9521 5.87662 22.0475 5.77993 22.1428 5.68323C22.1755 5.64975 22.2081 5.61626 22.2417 5.58177C22.6462 5.17304 22.6462 5.17304 22.9357 5.12979C23.258 5.12937 23.4745 5.13155 23.7224 5.36082C23.9359 5.59742 23.9873 5.76021 24 6.07832C23.9578 6.3653 23.7865 6.56686 23.5873 6.76585C23.539 6.81452 23.4906 6.86319 23.4408 6.91334C23.3882 6.96551 23.3356 7.01766 23.2829 7.06979C23.2287 7.12398 23.1745 7.17819 23.1204 7.23243C23.0071 7.34567 22.8936 7.45864 22.7799 7.57141C22.6343 7.71581 22.4893 7.86078 22.3445 8.00595C22.2328 8.11781 22.1208 8.22942 22.0088 8.34094C21.9552 8.3943 21.9017 8.44774 21.8483 8.50124C21.7736 8.57595 21.6986 8.65027 21.6235 8.72458C21.5809 8.76691 21.5384 8.80925 21.4945 8.85286C21.306 9.01943 21.1654 9.07559 20.915 9.07677C20.8722 9.07764 20.8293 9.07851 20.7852 9.07941C20.4897 9.03863 20.2871 8.87544 20.0815 8.66968C20.0338 8.62238 19.9862 8.57508 19.9371 8.52634C19.8861 8.47487 19.8351 8.42338 19.7841 8.37188C19.7311 8.31884 19.6781 8.26582 19.625 8.21283C19.5142 8.10204 19.4037 7.99098 19.2934 7.87972C19.1521 7.73729 19.0103 7.59545 18.8683 7.45379C18.7589 7.34451 18.6497 7.23497 18.5406 7.12535C18.4884 7.07295 18.4361 7.02062 18.3838 6.96836C18.3107 6.8953 18.238 6.82186 18.1653 6.74841C18.1032 6.68594 18.1032 6.68594 18.0398 6.6222C17.8163 6.36879 17.8115 6.15488 17.8179 5.82531C17.8475 5.54906 17.979 5.42128 18.1729 5.23706C18.4364 5.1147 18.6948 5.10179 18.9805 5.15238C19.2417 5.30495 19.4416 5.49649 19.6514 5.71254C19.6823 5.74391 19.7132 5.77528 19.7451 5.8076C19.8205 5.88424 19.8956 5.96119 19.9706 6.03822C19.9708 5.98039 19.971 5.92256 19.9712 5.86298C19.9731 5.31712 19.9761 4.77128 19.9802 4.22543C19.9822 3.94482 19.9839 3.66423 19.9847 3.38361C19.9855 3.11264 19.9873 2.84168 19.9898 2.57071C19.9906 2.46751 19.991 2.3643 19.991 2.26109C19.9911 2.11615 19.9925 1.97126 19.9943 1.82633C19.9939 1.7628 19.9939 1.7628 19.9935 1.69798C19.9988 1.40583 20.0631 1.174 20.2311 0.931638C20.5605 0.669473 20.8887 0.576551 21.2831 0.75903Z" fill="white"/>
<path d="M10.5125 15.1301C10.5613 15.1298 10.6102 15.1294 10.6605 15.129C10.8214 15.1281 10.9823 15.1287 11.1432 15.1294C11.2553 15.1293 11.3674 15.1291 11.4795 15.1288C11.7143 15.1285 11.9491 15.129 12.1839 15.1299C12.4846 15.1311 12.7852 15.1304 13.0859 15.1292C13.3174 15.1284 13.5488 15.1287 13.7803 15.1292C13.8912 15.1294 14.002 15.1292 14.1129 15.1287C14.2679 15.1282 14.4229 15.129 14.5779 15.1301C14.6236 15.1297 14.6692 15.1293 14.7162 15.1289C14.9993 15.1328 15.1602 15.178 15.3851 15.3655C15.5978 15.6012 15.6625 15.7715 15.6566 16.0922C15.6311 16.3407 15.5137 16.501 15.3297 16.6585C15.0831 16.8421 14.9009 16.8329 14.6016 16.8338C14.5528 16.8341 14.504 16.8345 14.4537 16.8348C14.2916 16.8359 14.1296 16.8365 13.9676 16.837C13.8847 16.8373 13.8847 16.8373 13.8001 16.8376C13.5075 16.8387 13.2149 16.8395 12.9222 16.84C12.6199 16.8405 12.3176 16.8423 12.0153 16.8444C11.7829 16.8458 11.5506 16.8462 11.3182 16.8464C11.2068 16.8466 11.0953 16.8472 10.9839 16.8482C10.8278 16.8495 10.6718 16.8494 10.5158 16.8491C10.4698 16.8497 10.4238 16.8504 10.3765 16.8511C10.0919 16.8487 9.93149 16.8047 9.70531 16.6161C9.51625 16.4171 9.48073 16.2575 9.47083 15.9908C9.48073 15.7242 9.51625 15.5646 9.70531 15.3655C9.97489 15.1415 10.1772 15.127 10.5125 15.1301Z" fill="white"/>
<path d="M5.66023 15.1275C5.72253 15.1272 5.78484 15.1269 5.84903 15.1266C5.98055 15.1262 6.11208 15.1264 6.2436 15.127C6.44444 15.1277 6.64516 15.126 6.84599 15.124C6.97399 15.1239 7.10198 15.124 7.22998 15.1243C7.31972 15.1232 7.31972 15.1232 7.41127 15.1222C7.77784 15.1264 7.97447 15.166 8.24629 15.4176C8.40716 15.6407 8.43291 15.8504 8.42439 16.1192C8.38843 16.3373 8.29242 16.5074 8.14207 16.6682C7.9528 16.8009 7.8242 16.8443 7.59383 16.8456C7.53748 16.8462 7.48113 16.8469 7.42308 16.8476C7.36271 16.8474 7.30235 16.8473 7.24016 16.8471C7.17765 16.8474 7.11515 16.8477 7.05076 16.8479C6.9187 16.8483 6.78664 16.8482 6.65459 16.8478C6.45273 16.8473 6.25095 16.8488 6.0491 16.8505C5.9207 16.8505 5.79229 16.8505 5.66389 16.8504C5.5735 16.8512 5.5735 16.8512 5.48129 16.8521C5.15347 16.8493 4.95092 16.8384 4.70295 16.6161C4.51388 16.4171 4.47836 16.2574 4.46846 15.9908C4.47836 15.7241 4.51388 15.5645 4.70295 15.3655C4.99487 15.1048 5.28145 15.1259 5.66023 15.1275Z" fill="white"/>
</svg>
