<svg width="23" height="23" viewBox="0 0 23 23" fill="none" xmlns="http://www.w3.org/2000/svg">
<path d="M18.375 2.13333H17.2V0.958333C17.2 0.594876 16.9051 0.3 16.5417 0.3C16.1782 0.3 15.8833 0.594876 15.8833 0.958333V2.13333H7.11667V0.958333C7.11667 0.594876 6.82179 0.3 6.45833 0.3C6.09488 0.3 5.8 0.594876 5.8 0.958333V2.13333H4.625C2.24029 2.13333 0.3 4.07363 0.3 6.45833V18.375C0.3 20.7597 2.24029 22.7 4.625 22.7H18.375C20.7597 22.7 22.7 20.7597 22.7 18.375V6.45833C22.7 4.07363 20.7597 2.13333 18.375 2.13333ZM4.625 3.45H18.375C20.0337 3.45 21.3833 4.79962 21.3833 6.45833V7.63333H1.61667V6.45833C1.61667 4.79962 2.96629 3.45 4.625 3.45ZM4.625 21.3833C2.96629 21.3833 1.61667 20.0337 1.61667 18.375V8.95H21.3833V18.375C21.3833 20.0337 20.0337 21.3833 18.375 21.3833H4.625ZM17.4583 13.5333C17.8218 13.5333 18.1167 13.2385 18.1167 12.875C18.1167 12.5115 17.8218 12.2167 17.4583 12.2167H5.54167C5.17821 12.2167 4.88333 12.5115 4.88333 12.875C4.88333 13.2385 5.17821 13.5333 5.54167 13.5333H17.4583ZM11.0417 18.1167C11.4051 18.1167 11.7 17.8218 11.7 17.4583C11.7 17.0949 11.4051 16.8 11.0417 16.8H5.54167C5.17821 16.8 4.88333 17.0949 4.88333 17.4583C4.88333 17.8218 5.17821 18.1167 5.54167 18.1167H11.0417Z" fill="#424242" stroke="#424242" stroke-width="0.4"/>
</svg>
