<svg width="25" height="25" viewBox="0 0 25 25" fill="none" xmlns="http://www.w3.org/2000/svg">
<path d="M21.5 21.5L17.157 17.157M17.157 17.157C17.8999 16.4141 18.4892 15.5322 18.8912 14.5616C19.2933 13.5909 19.5002 12.5506 19.5002 11.5C19.5002 10.4494 19.2933 9.40911 18.8912 8.43848C18.4892 7.46785 17.8999 6.58591 17.157 5.84302C16.4141 5.10014 15.5322 4.51084 14.5615 4.1088C13.5909 3.70675 12.5506 3.49982 11.5 3.49982C10.4494 3.49982 9.40908 3.70675 8.43845 4.1088C7.46782 4.51084 6.58588 5.10014 5.84299 5.84302C4.34266 7.34335 3.49979 9.37824 3.49979 11.5C3.49979 13.6218 4.34266 15.6567 5.84299 17.157C7.34332 18.6574 9.37821 19.5002 11.5 19.5002C13.6218 19.5002 15.6567 18.6574 17.157 17.157Z" stroke="#424242" stroke-width="1.5" stroke-linecap="round" stroke-linejoin="round"/>
</svg>
