<svg width="23" height="24" viewBox="0 0 23 24" fill="none" xmlns="http://www.w3.org/2000/svg">
<path d="M11.4144 0.0206021C11.6346 0.0160497 11.8548 0.0114972 12.0817 0.00680686C12.4005 0.00572865 12.4005 0.00572865 12.7257 0.00462867C12.9198 0.00310121 13.1138 0.00157375 13.3137 0C13.9908 0.113165 14.2993 0.355479 14.7834 0.833795C14.9439 1.36164 14.9439 1.36164 15.0274 1.93741C15.2032 2.74563 15.3334 3.20268 16.0264 3.67997C16.8171 4.07099 17.4754 4.0003 18.315 3.80776C18.6046 3.75626 18.8951 3.70981 19.1863 3.66835C19.3173 3.64631 19.4484 3.62427 19.5834 3.60156C20.1852 3.63181 20.4428 3.80288 20.9172 4.1795C21.2876 4.6659 21.5902 5.18254 21.893 5.71295C21.9759 5.85025 22.0588 5.98754 22.1442 6.12899C22.6307 6.96476 22.9177 7.65399 22.9618 8.64045C22.7035 9.43144 22.3799 9.78361 21.7188 10.2436C21.2591 10.6159 21.1186 10.8117 20.9666 11.3915C20.9131 12.2178 20.8913 12.8387 21.4262 13.5022C21.6887 13.7211 21.958 13.9322 22.2335 14.1346C22.7033 14.4876 22.8606 14.7534 22.9618 15.3319C22.9064 16.5432 22.4265 17.3511 21.7885 18.3639C21.698 18.5145 21.6076 18.6651 21.5144 18.8202C20.7504 20.0552 20.7504 20.0552 19.9878 20.3504C19.6016 20.3526 19.6016 20.3526 19.1979 20.2923C19.0515 20.2734 18.9051 20.2545 18.7542 20.235C18.4774 20.1906 18.2015 20.1388 17.928 20.0767C17.1965 19.9281 16.6842 19.967 16.0264 20.2923C15.3334 20.7696 15.2032 21.2267 15.0274 22.0349C14.9998 22.2249 14.9722 22.4149 14.9439 22.6107C14.733 23.3043 14.4543 23.4867 13.854 23.882C13.054 24.0305 12.25 23.9941 11.4377 23.9866C11.2192 23.991 11.0007 23.9954 10.7755 24C9.18209 23.9973 9.18209 23.9973 8.42088 23.4515C7.85432 22.5922 7.65825 21.7448 7.72023 20.7222C7.54772 20.6685 7.3752 20.6148 7.19746 20.5595C6.60499 20.3504 6.60499 20.3504 6.04737 19.9787C5.40887 20.0328 4.79427 20.1203 4.16541 20.2393C3.58393 20.3374 3.14899 20.3756 2.58549 20.1878C1.91771 19.5903 1.4909 18.882 1.02881 18.12C0.937283 17.9805 0.845755 17.8411 0.751454 17.6974C0.225644 16.8507 -0.0516026 16.1541 0.00796273 15.1467C0.161195 14.5228 0.53887 14.2346 1.02881 13.8449C1.52463 13.4328 1.7462 13.2164 1.89065 12.5801C1.93868 11.4717 1.93868 11.4717 1.49277 10.497C1.15353 10.2053 1.15353 10.2053 0.792113 9.97568C0.471192 9.75569 0.471192 9.75569 0.099447 9.19807C-0.120947 7.93892 0.240219 7.03736 0.889406 5.98015C0.962964 5.85208 1.03652 5.72401 1.11231 5.59206C2.09679 3.91844 2.09679 3.91844 3.1315 3.64512C3.87716 3.61984 4.41038 3.77086 5.11801 3.99363C6.05152 4.13366 6.57063 3.71979 7.34848 3.25014C7.47116 3.25014 7.59384 3.25014 7.72023 3.25014C7.72718 3.14232 7.73413 3.0345 7.74128 2.92341C7.81991 1.98913 7.95064 1.27114 8.46372 0.46205C9.36496 -0.138777 10.3551 0.0217474 11.4144 0.0206021ZM9.57896 1.94903C9.44481 2.61648 9.34122 3.28572 9.23916 3.95878C9.16728 4.1543 9.0954 4.34981 9.02134 4.55125C8.48768 4.78722 8.48768 4.78722 7.9061 4.923C7.66442 5.08147 7.42752 5.24761 7.19746 5.42253C6.47161 5.8935 5.99285 5.91689 5.15286 5.76523C4.57616 5.62518 4.01077 5.47526 3.44516 5.29474C2.49238 6.62605 2.49238 6.62605 1.7723 8.08283C1.99256 8.69049 2.31724 9.00144 2.80622 9.40863C3.47669 10.0627 3.61806 10.5546 3.64446 11.4792C3.64003 11.6388 3.6356 11.7985 3.63103 11.9629C3.62947 12.1274 3.62791 12.2918 3.62631 12.4612C3.5736 13.5244 3.38999 14.1398 2.60873 14.9137C2.13824 15.2825 2.13824 15.2825 1.7723 15.5177C2.01593 16.3471 2.34305 17.004 2.81784 17.725C2.93524 17.9047 3.05265 18.0844 3.17361 18.2695C3.26322 18.4042 3.35283 18.5388 3.44516 18.6776C3.56639 18.6373 3.68763 18.5971 3.81255 18.5556C5.63906 17.9737 5.63906 17.9737 6.41912 18.12C6.90885 18.3828 7.37374 18.6673 7.83785 18.9731C8.24448 19.2153 8.55957 19.337 9.02134 19.4211C9.05728 19.6046 9.09322 19.7881 9.13025 19.9772C9.20285 20.3345 9.20285 20.3345 9.27691 20.6989C9.32435 20.9361 9.3718 21.1734 9.42067 21.4177C9.52735 22.0343 9.52735 22.0343 9.9507 22.395C10.4915 22.422 11.0139 22.4297 11.5539 22.4183C11.7029 22.4166 11.8519 22.4149 12.0055 22.4132C12.3738 22.4088 12.7422 22.4021 13.1105 22.395C13.3679 21.7955 13.5327 21.2493 13.6333 20.606C13.8006 19.8365 13.8006 19.8365 14.2374 19.4792C14.4176 19.3986 14.5978 19.3181 14.7834 19.2352C15.0469 19.0341 15.3102 18.8327 15.5734 18.6311C16.3454 18.113 16.8239 18.024 17.729 18.2006C17.8611 18.2353 17.9931 18.27 18.1291 18.3058C18.3243 18.3551 18.3243 18.3551 18.5234 18.4053C18.8279 18.488 19.1295 18.5816 19.4302 18.6776C19.7081 18.2647 19.9848 17.8511 20.2594 17.436C20.4717 17.1159 20.6877 16.7983 20.9056 16.482C21.1365 16.0958 21.1365 16.0958 21.0697 15.7131C20.8703 15.2147 20.5977 15.0816 20.1621 14.7743C19.4335 14.076 19.3059 13.4675 19.2412 12.4966C19.2068 10.4684 19.2068 10.4684 19.815 9.54004C20.2783 9.10513 20.2783 9.10513 20.7553 8.76243C20.8701 8.66084 20.9848 8.55925 21.1031 8.45458C21.1001 7.76177 20.6196 7.14359 20.2783 6.561C20.1061 6.26377 20.1061 6.26377 19.9305 5.96054C19.6637 5.46543 19.6637 5.46543 19.2443 5.29474C18.8668 5.39703 18.8668 5.39703 18.4544 5.56193C17.1954 5.99095 17.1954 5.99095 16.4562 5.85236C16.0173 5.60355 15.6099 5.33082 15.2009 5.03554C14.7858 4.72089 14.7858 4.72089 14.2875 4.49825C13.6837 4.05429 13.6607 3.67354 13.5288 2.9481C13.447 2.20353 13.447 2.20353 13.1105 1.57729C12.5856 1.55375 12.0672 1.54286 11.5422 1.54244C11.3221 1.53902 11.3221 1.53902 11.0975 1.53554C10.2497 1.49571 10.2497 1.49571 9.57896 1.94903Z" fill="#424242"/>
<path d="M14.4116 7.71099C15.442 8.47437 16.1432 9.43658 16.4562 10.685C16.6637 12.3562 16.5431 13.768 15.5269 15.1459C14.5409 16.2559 13.5005 16.9009 12.0221 17.0627C10.2576 17.1343 8.93334 16.6549 7.62799 15.4646C6.60892 14.3026 6.35123 12.9559 6.36754 11.4539C6.49321 10.0325 7.23604 8.84955 8.27781 7.89686C10.1097 6.58951 12.4819 6.58059 14.4116 7.71099ZM8.76573 9.83691C8.1695 10.7771 7.92482 11.6093 8.09194 12.7296C8.48778 13.9085 9.09385 14.5873 10.183 15.1924C11.2452 15.4821 12.1782 15.5095 13.157 14.96C14.0598 14.3154 14.6581 13.5613 14.8719 12.4587C14.9306 11.454 14.7435 10.7148 14.1531 9.89717C13.4156 9.08978 12.6387 8.59503 11.5306 8.5358C10.4065 8.6057 9.54614 9.03597 8.76573 9.83691Z" fill="#424242"/>
</svg>
