<svg width="24" height="15" viewBox="0 0 24 15" fill="none" xmlns="http://www.w3.org/2000/svg">
<path d="M11.3762 0.00529443C11.4462 0.0048944 11.4462 0.0048944 11.5176 0.00448629C11.616 0.00404683 11.7144 0.00373953 11.8128 0.00355821C11.9595 0.00310895 12.1062 0.00165689 12.2528 0.00017716C13.0947 -0.0042504 13.9241 0.0740606 14.7458 0.263351C14.812 0.278306 14.812 0.278306 14.8795 0.293564C17.7796 0.965452 20.4861 2.67503 22.3866 4.97416C22.4075 4.99915 22.4285 5.02413 22.4501 5.04987C24.0087 6.91146 24.0087 6.91146 23.9985 7.62546C23.9602 7.90725 23.8095 8.11419 23.6498 8.34279C23.6293 8.37303 23.6087 8.40327 23.5875 8.43442C23.167 9.05259 22.7201 9.64612 22.211 10.1941C22.1235 10.2887 22.0397 10.3849 21.9567 10.4833C21.5753 10.9219 21.1513 11.3422 20.7023 11.7114C20.6658 11.7423 20.6658 11.7423 20.6285 11.7737C18.921 13.2157 16.9284 14.2457 14.7458 14.7379C14.7071 14.7468 14.6684 14.7557 14.6285 14.7649C13.7648 14.9503 12.8989 15.0125 12.0175 15.0069C11.9444 15.0067 11.9444 15.0067 11.8699 15.0065C8.06996 14.9887 4.78618 13.2678 2.14925 10.6151C1.96247 10.4254 1.78309 10.2324 1.6134 10.0271C1.59245 10.0021 1.5715 9.97714 1.54992 9.9514C-0.00870161 8.08981 -0.00870161 8.08981 0.0014621 7.37581C0.0397833 7.09402 0.190488 6.88708 0.350168 6.65848C0.370733 6.62824 0.391299 6.598 0.412489 6.56685C0.833002 5.94867 1.27993 5.35515 1.78903 4.80712C1.87646 4.71255 1.96026 4.61641 2.04325 4.518C2.42468 4.07935 2.84873 3.65905 3.29772 3.28985C3.32207 3.26929 3.34642 3.24872 3.3715 3.22753C5.58341 1.35954 8.43981 0.0187686 11.3762 0.00529443ZM5.26275 3.75772C5.23619 3.77718 5.20963 3.79665 5.18226 3.8167C5.00313 3.94907 4.82808 4.08601 4.65452 4.22558C4.60706 4.2634 4.55959 4.30121 4.51069 4.34017C4.12654 4.65415 3.77486 5.00181 3.42345 5.35138C3.3995 5.37509 3.37555 5.39879 3.35087 5.42322C3.03051 5.74103 2.73416 6.06872 2.45556 6.42455C2.42673 6.4612 2.39789 6.49786 2.36819 6.53563C2.28946 6.63654 2.21154 6.73802 2.1339 6.83977C2.095 6.89026 2.095 6.89026 2.05532 6.94175C1.98496 7.03376 1.9159 7.12657 1.84733 7.21992C1.81634 7.26153 1.78534 7.30314 1.7534 7.34602C1.69461 7.45311 1.69461 7.45311 1.73439 7.57027C1.95723 7.96609 2.26092 8.32058 2.54913 8.6703C2.58671 8.71661 2.62428 8.76293 2.66299 8.81066C2.95852 9.16893 3.27738 9.50191 3.60475 9.83119C3.64508 9.87194 3.68541 9.9127 3.72696 9.9547C4.00608 10.2325 4.29979 10.4838 4.60774 10.7289C4.67991 10.7883 4.75205 10.8478 4.82412 10.9073C6.41487 12.1655 8.26402 13.0193 10.2689 13.3489C10.3269 13.3589 10.3849 13.3688 10.4447 13.3791C13.3508 13.823 16.3833 12.9719 18.7373 11.2436C18.7638 11.2241 18.7904 11.2046 18.8177 11.1846C18.9969 11.0522 19.1719 10.9153 19.3455 10.7757C19.3929 10.7379 19.4404 10.7001 19.4893 10.6611C19.8735 10.3471 20.2251 9.99945 20.5765 9.64989C20.6005 9.62618 20.6245 9.60247 20.6491 9.57805C20.9695 9.26024 21.2658 8.93255 21.5444 8.57672C21.5733 8.54007 21.6021 8.50341 21.6318 8.46564C21.7105 8.36472 21.7885 8.26325 21.8661 8.16149C21.892 8.12784 21.918 8.09419 21.9447 8.05951C22.015 7.96751 22.0841 7.8747 22.1527 7.78135C22.1837 7.73974 22.2147 7.69812 22.2466 7.65525C22.3054 7.54816 22.3054 7.54816 22.2656 7.431C22.0428 7.03518 21.7391 6.68069 21.4509 6.33097C21.3945 6.26149 21.3945 6.26149 21.337 6.19061C21.0415 5.83234 20.7226 5.49936 20.3952 5.17008C20.3549 5.12932 20.3146 5.08857 20.273 5.04657C19.9939 4.76876 19.7007 4.51703 19.3923 4.27237C19.3359 4.22665 19.2797 4.1809 19.2234 4.13511C17.6205 2.84967 15.7571 2.00153 13.7311 1.65232C13.6984 1.6465 13.6656 1.64067 13.6319 1.63467C10.7235 1.13012 7.61611 2.02983 5.26275 3.75772Z" fill="#C2C2C2"/>
<path d="M14.7604 3.89806C15.6688 4.63871 16.3537 5.66097 16.4915 6.84561C16.5854 8.17356 16.3564 9.33653 15.5017 10.3847C14.7333 11.2654 13.692 11.9188 12.5045 12.0028C11.1657 12.0623 10.0256 11.796 8.9969 10.8985C8.12938 10.0851 7.54408 9.04482 7.4906 7.84165C7.4573 6.50822 7.77909 5.37534 8.70924 4.38329C10.3236 2.74459 12.9136 2.48594 14.7604 3.89806ZM9.85953 5.404C9.18853 6.12519 9.0116 6.93422 9.04387 7.89127C9.06201 8.15307 9.13518 8.3828 9.23961 8.62349C9.25655 8.66445 9.2735 8.7054 9.29096 8.74759C9.62013 9.47175 10.2447 10.0195 10.9736 10.3195C11.7701 10.5869 12.6136 10.5326 13.3681 10.1646C14.095 9.77662 14.6323 9.11119 14.8778 8.33036C15.0493 7.6981 15.0214 6.97926 14.7604 6.37774C14.735 6.31632 14.735 6.31632 14.7091 6.25365C14.3799 5.52948 13.7554 4.98171 13.0264 4.68173C11.8838 4.29819 10.7382 4.60426 9.85953 5.404Z" fill="#C2C2C2"/>
</svg>
