<svg width="20" height="19" viewBox="0 0 20 19" fill="none" xmlns="http://www.w3.org/2000/svg">
<path d="M19.5545 7.35828C19.4686 7.09405 19.3063 6.86116 19.0883 6.68896C18.8702 6.51677 18.606 6.41296 18.3291 6.39063L13.2587 5.98156L11.3011 1.24727C11.1952 0.989299 11.015 0.768638 10.7834 0.61334C10.5518 0.458042 10.2793 0.375122 10.0004 0.375122C9.72158 0.375122 9.44903 0.458042 9.21742 0.61334C8.98582 0.768638 8.80563 0.989299 8.69976 1.24727L6.74382 5.98071L1.67093 6.39063C1.39351 6.41409 1.12918 6.5189 0.911053 6.69193C0.692931 6.86496 0.53072 7.09851 0.444744 7.36332C0.358768 7.62813 0.352851 7.91242 0.427733 8.18058C0.502615 8.44873 0.654967 8.68883 0.8657 8.87078L4.73289 12.2077L3.55468 17.1973C3.48879 17.4683 3.50492 17.7529 3.60104 18.0148C3.69715 18.2766 3.86891 18.5041 4.09451 18.6681C4.32011 18.8322 4.58938 18.9256 4.86813 18.9364C5.14689 18.9472 5.42256 18.8749 5.66015 18.7287L10 16.0577L14.3424 18.7287C14.5801 18.8731 14.8552 18.944 15.1331 18.9324C15.411 18.9209 15.6792 18.8273 15.9041 18.6636C16.1289 18.4998 16.3003 18.2733 16.3966 18.0123C16.4929 17.7514 16.5098 17.4678 16.4453 17.1973L15.2628 12.2069L19.13 8.86992C19.3424 8.68827 19.4962 8.44766 19.5718 8.17856C19.6473 7.90945 19.6413 7.62398 19.5545 7.35828ZM18.2362 7.82836L14.0511 11.4377C13.9556 11.52 13.8847 11.6269 13.8459 11.7468C13.8071 11.8667 13.8019 11.9949 13.8311 12.1175L15.1098 17.5144C15.1131 17.5218 15.1135 17.5302 15.1108 17.5379C15.108 17.5456 15.1025 17.5519 15.0952 17.5556C15.0798 17.5677 15.0755 17.5651 15.0626 17.5556L10.3601 14.6638C10.2518 14.5972 10.1271 14.562 10 14.562C9.87286 14.562 9.74822 14.5972 9.63992 14.6638L4.93742 17.5573C4.92453 17.5651 4.92109 17.5677 4.90476 17.5573C4.89751 17.5536 4.89195 17.5473 4.88923 17.5396C4.88651 17.532 4.88684 17.5235 4.89015 17.5161L6.1689 12.1192C6.19805 11.9966 6.19294 11.8684 6.15414 11.7485C6.11534 11.6286 6.04434 11.5217 5.9489 11.4395L1.76375 7.83008C1.75343 7.82149 1.74398 7.81375 1.75258 7.78711C1.76117 7.76047 1.76804 7.76391 1.78093 7.76219L7.27406 7.31875C7.40005 7.30795 7.52062 7.2626 7.62251 7.1877C7.7244 7.1128 7.80365 7.01125 7.85156 6.89422L9.96734 1.77149C9.97422 1.75688 9.97679 1.75 9.99742 1.75C10.018 1.75 10.0206 1.75688 10.0275 1.77149L12.1484 6.89422C12.1968 7.0113 12.2765 7.11273 12.3789 7.18734C12.4813 7.26195 12.6023 7.30684 12.7285 7.31703L18.2216 7.76047C18.2345 7.76047 18.2423 7.76047 18.25 7.78539C18.2577 7.81032 18.25 7.81977 18.2362 7.82836Z" fill="#048BCE"/>
</svg>
