<svg width="26" height="25" viewBox="0 0 26 25" fill="none" xmlns="http://www.w3.org/2000/svg">
<path d="M15.8431 0.518404C16.4882 1.0227 16.9318 1.62949 17.0912 2.44259C17.0998 2.57747 17.1035 2.71272 17.103 2.84786C17.1031 2.88597 17.1031 2.92407 17.1031 2.96333C17.103 3.0877 17.1022 3.21206 17.1014 3.33643C17.1012 3.42328 17.101 3.51013 17.1009 3.59699C17.1005 3.8244 17.0995 4.05181 17.0984 4.27923C17.0973 4.51176 17.0968 4.74429 17.0963 4.97682C17.0952 5.43221 17.0934 5.88759 17.0912 6.34297C17.1263 6.34251 17.1614 6.34205 17.1975 6.34157C17.5671 6.33692 17.9367 6.33381 18.3063 6.33154C18.4437 6.33063 18.581 6.32909 18.7184 6.32728C20.3979 6.30565 21.7828 6.60014 23.0198 7.79911C23.0666 7.84014 23.0666 7.84014 23.1143 7.88199C23.8986 8.59531 24.3509 9.73427 24.476 10.7634C24.4781 10.8815 24.4781 10.9997 24.476 11.1179C24.476 11.1833 24.4761 11.2488 24.4762 11.3163C24.476 11.4528 24.4743 11.5893 24.4709 11.7258C24.4627 12.0822 24.4627 12.0822 24.6277 12.3802C24.7473 12.4581 24.8679 12.5211 24.996 12.5836C25.3832 12.9264 25.584 13.3262 25.6721 13.8317C25.6774 13.9238 25.6803 14.016 25.6813 14.1083C25.6819 14.1623 25.6826 14.2163 25.6833 14.272C25.6839 14.3589 25.6839 14.3589 25.6845 14.4476C25.6849 14.508 25.6853 14.5684 25.6857 14.6305C25.6865 14.7584 25.687 14.8862 25.6874 15.014C25.688 15.1438 25.6891 15.2736 25.6906 15.4034C25.6929 15.5919 25.6937 15.7803 25.6942 15.9688C25.6951 16.0259 25.696 16.083 25.697 16.1419C25.6954 16.7298 25.5685 17.2985 25.152 17.7321C24.9568 17.9221 24.7737 18.0812 24.528 18.2001C24.5272 18.2495 24.5272 18.2495 24.5265 18.2998C24.4982 19.8357 24.1701 21.1396 23.1238 22.3085C23.0818 22.357 23.0818 22.357 23.0389 22.4064C22.209 23.303 20.9317 23.8176 19.7279 23.8743C19.3961 23.8833 19.0643 23.881 18.7324 23.8795C18.6214 23.8794 18.5105 23.8793 18.3995 23.8793C18.162 23.8792 17.9244 23.8788 17.6868 23.8782C17.3109 23.8773 16.935 23.8775 16.559 23.8778C15.4905 23.8788 14.4219 23.8792 13.3534 23.8767C12.7622 23.8753 12.171 23.8753 11.5798 23.8767C11.2674 23.8773 10.9551 23.8773 10.6427 23.8757C10.3492 23.8742 10.0557 23.8744 9.76219 23.8759C9.65473 23.8761 9.54726 23.8757 9.43981 23.8747C8.64637 23.8665 8.64637 23.8665 7.99035 24.2847C7.54637 24.552 7.03387 24.7304 6.53421 24.8568C6.48842 24.8685 6.44263 24.8802 6.39546 24.8923C5.0709 25.1695 3.61742 24.9044 2.47781 24.1807C1.20725 23.3337 0.403797 22.1345 0.0855794 20.6444C-0.127925 19.4593 0.0626852 18.2763 0.60563 17.212C0.633451 17.1571 0.661271 17.1021 0.689935 17.0454C0.940928 16.5856 1.2757 16.1779 1.64573 15.8079C1.66159 15.6485 1.66159 15.6485 1.65881 15.4575C1.65897 15.421 1.65912 15.3845 1.65928 15.347C1.65968 15.2242 1.65934 15.1014 1.65901 14.9786C1.65915 14.8908 1.65935 14.803 1.65958 14.7152C1.66 14.5256 1.66012 14.3361 1.66 14.1465C1.65985 13.8461 1.6606 13.5457 1.66151 13.2453C1.66395 12.3909 1.6652 11.5366 1.66554 10.6822C1.66573 10.2106 1.66668 9.73907 1.6684 9.26752C1.66945 8.96965 1.66958 8.67181 1.66901 8.37394C1.66887 8.1873 1.66961 8.00067 1.67058 7.81404C1.67085 7.72834 1.67078 7.64265 1.67031 7.55696C1.66508 6.50777 1.91347 5.56062 2.58182 4.73081C2.61333 4.69012 2.64484 4.64943 2.6773 4.6075C3.26512 3.89195 4.13924 3.52785 4.98889 3.22087C5.18907 3.14851 5.38877 3.07485 5.58857 3.00144C5.65245 2.97803 5.65245 2.97803 5.71762 2.95415C6.23169 2.76554 6.74369 2.5715 7.25578 2.37758C7.35529 2.33994 7.45481 2.3023 7.55432 2.26466C7.75562 2.18852 7.9569 2.11236 8.15817 2.03617C8.4521 1.92492 8.74604 1.81371 9.04 1.70253C9.08779 1.68446 9.13558 1.66638 9.18483 1.64776C9.42519 1.55687 9.6656 1.46606 9.90605 1.37541C10.0028 1.33893 10.0996 1.30245 10.1963 1.26598C10.2446 1.24779 10.2928 1.22959 10.3425 1.21085C10.6644 1.0894 10.986 0.96713 11.3074 0.844458C11.5353 0.757552 11.7634 0.671045 11.9916 0.584602C12.1007 0.54313 12.2098 0.501487 12.3189 0.459658C12.4708 0.401386 12.623 0.343735 12.7752 0.286209C12.8194 0.269079 12.8637 0.251949 12.9092 0.234299C13.8879 -0.13241 14.9681 -0.0911244 15.8431 0.518404ZM13.5906 1.82828C13.5506 1.84206 13.5105 1.85584 13.4692 1.87004C12.9985 2.03481 12.5336 2.21562 12.0683 2.3949C11.4008 2.65204 10.7318 2.90502 10.0623 3.15703C9.82492 3.2464 9.58756 3.33587 9.35023 3.42539C9.21215 3.47747 9.07407 3.52955 8.93599 3.58162C8.90154 3.59461 8.8671 3.6076 8.83161 3.62099C8.40829 3.78062 7.98485 3.9399 7.56122 4.09871C7.28432 4.20252 7.00752 4.30661 6.7308 4.41089C6.56754 4.47239 6.40423 4.53371 6.2408 4.59477C4.69017 5.12305 4.69017 5.12305 3.62192 6.29096C3.47703 6.60879 3.40687 6.89175 3.41065 7.24006C3.41136 7.32412 3.41136 7.32412 3.41208 7.40989C3.41268 7.45252 3.41328 7.49516 3.4139 7.53909C3.46499 7.506 3.46499 7.506 3.5171 7.47225C3.67278 7.3722 3.82937 7.27367 3.98596 7.17505C4.03349 7.14395 4.08102 7.11284 4.12999 7.08079C4.43529 6.8895 4.7412 6.75309 5.08132 6.63875C5.11873 6.62614 5.15614 6.61353 5.19468 6.60054C5.80426 6.40619 6.39853 6.37917 7.03286 6.37839C7.12415 6.37791 7.21543 6.37738 7.30672 6.37681C7.55295 6.3754 7.79917 6.3746 8.04541 6.37393C8.30332 6.37311 8.56124 6.37172 8.81915 6.37039C9.30684 6.36796 9.79453 6.36605 10.2822 6.36432C10.8377 6.36233 11.3933 6.35976 11.9488 6.35715C13.0909 6.35178 14.233 6.34714 15.3751 6.34297C15.3799 5.86873 15.3836 5.39451 15.3858 4.92025C15.3869 4.70001 15.3884 4.47978 15.3908 4.25954C15.393 4.04677 15.3943 3.83401 15.3948 3.62123C15.3952 3.54029 15.3959 3.45934 15.3971 3.37841C15.4036 2.886 15.4008 2.51203 15.0703 2.11979C14.6018 1.72188 14.186 1.61803 13.5906 1.82828ZM5.22758 8.40367C5.19243 8.42157 5.15727 8.43946 5.12106 8.4579C4.80268 8.62697 4.54709 8.83864 4.29799 9.09924C4.25535 9.13946 4.25535 9.13946 4.21186 9.1805C4.01727 9.37922 3.89468 9.618 3.76819 9.86306C3.75085 9.89608 3.73351 9.9291 3.71565 9.96312C3.4209 10.5594 3.39196 11.1594 3.39867 11.8108C3.39896 11.895 3.39918 11.9793 3.39934 12.0635C3.39993 12.283 3.40145 12.5026 3.40319 12.7221C3.4048 12.947 3.4055 13.1719 3.40629 13.3968C3.40795 13.8364 3.4106 14.2761 3.4139 14.7158C3.47035 14.7014 3.52679 14.687 3.58495 14.6721C3.66011 14.6531 3.73528 14.634 3.81044 14.615C3.86605 14.6008 3.86605 14.6008 3.92278 14.5863C5.31948 14.2339 6.78112 14.4227 8.0261 15.1353C9.22567 15.8541 10.0762 17.0061 10.4346 18.3561C10.7084 19.5011 10.5809 20.6748 10.1668 21.7615C10.1525 21.7993 10.1382 21.8372 10.1234 21.8762C10.0886 21.9684 10.0536 22.0604 10.0185 22.1525C11.2789 22.1574 12.5393 22.161 13.7997 22.1633C14.385 22.1644 14.9703 22.1658 15.5556 22.1682C16.066 22.1703 16.5764 22.1716 17.0869 22.1721C17.3569 22.1723 17.6269 22.173 17.8969 22.1745C18.1516 22.1759 18.4063 22.1763 18.6611 22.176C18.754 22.1761 18.8469 22.1765 18.9398 22.1773C20.0434 22.1864 20.9999 21.9463 21.8237 21.1644C22.4988 20.462 22.7808 19.6157 22.7678 18.6572C22.7657 18.5569 22.7628 18.4565 22.7598 18.3561C22.7113 18.3554 22.6629 18.3546 22.613 18.3538C22.4299 18.3506 22.2468 18.3468 22.0637 18.3425C21.9851 18.3408 21.9065 18.3393 21.8278 18.3381C20.807 18.3222 19.8726 18.1134 19.1194 17.368C18.6447 16.8179 18.3449 16.1715 18.2873 15.4439C18.2845 15.4099 18.2817 15.3759 18.2788 15.3409C18.2451 14.5239 18.5374 13.7383 19.0804 13.1329C19.6094 12.5728 20.3363 12.189 21.1126 12.151C21.1893 12.1488 21.2661 12.1472 21.3429 12.146C21.3837 12.145 21.4246 12.144 21.4668 12.143C21.5955 12.1399 21.7242 12.1374 21.8529 12.135C21.941 12.133 22.0291 12.131 22.1171 12.1289C22.3313 12.124 22.5456 12.1196 22.7598 12.1155C22.7877 10.9906 22.6997 9.98908 21.9082 9.12199C21.3046 8.49251 20.4931 8.0726 19.6117 8.0395C19.5116 8.03866 19.4115 8.03864 19.3114 8.03933C19.2557 8.03908 19.1999 8.03884 19.1425 8.03859C18.9576 8.03797 18.7727 8.03846 18.5878 8.03895C18.4545 8.03874 18.3212 8.03846 18.1878 8.03812C17.8644 8.03749 17.541 8.03758 17.2176 8.03803C16.9546 8.03838 16.6916 8.03843 16.4285 8.03826C16.391 8.03824 16.3534 8.03821 16.3147 8.03819C16.2384 8.03814 16.1621 8.03809 16.0858 8.03804C15.3717 8.03759 14.6576 8.0381 13.9434 8.03894C13.3317 8.03964 12.72 8.03952 12.1083 8.0388C11.3966 8.03796 10.6849 8.03763 9.97318 8.03811C9.89717 8.03816 9.82116 8.03821 9.74515 8.03826C9.70776 8.03828 9.67037 8.03831 9.63185 8.03833C9.36938 8.03847 9.10691 8.03824 8.84444 8.03787C8.49066 8.03739 8.13689 8.03774 7.78311 8.03864C7.65355 8.03884 7.52399 8.03878 7.39444 8.03844C7.21705 8.03801 7.03969 8.03855 6.8623 8.03933C6.81153 8.03898 6.76075 8.03863 6.70844 8.03827C6.18581 8.04267 5.69218 8.16392 5.22758 8.40367ZM20.2115 14.4038C20.004 14.7259 19.9146 15.0905 19.9708 15.4703C20.076 15.8977 20.3184 16.186 20.6828 16.4254C21.0427 16.6431 21.3833 16.6566 21.7934 16.6574C21.8788 16.658 21.8788 16.658 21.9659 16.6585C22.0858 16.659 22.2057 16.6593 22.3256 16.6592C22.5094 16.6595 22.6932 16.6614 22.8771 16.6633C22.9937 16.6636 23.1102 16.6638 23.2268 16.6639C23.2819 16.6647 23.337 16.6654 23.3938 16.6662C23.4448 16.6659 23.4958 16.6656 23.5484 16.6652C23.6158 16.6655 23.6158 16.6655 23.6845 16.6657C23.8069 16.6491 23.8069 16.6491 23.8923 16.5494C23.9635 16.4178 23.9756 16.3407 23.9761 16.192C23.9768 16.1212 23.9768 16.1212 23.9776 16.049C23.9773 15.9984 23.9769 15.9478 23.9766 15.8956C23.9768 15.8433 23.9769 15.791 23.9771 15.7371C23.9772 15.6266 23.9769 15.5161 23.9762 15.4056C23.9754 15.2365 23.9762 15.0674 23.9772 14.8982C23.9771 14.7908 23.9769 14.6834 23.9766 14.576C23.9769 14.5254 23.9773 14.4748 23.9776 14.4227C23.9771 14.3755 23.9766 14.3283 23.9761 14.2796C23.9759 14.2175 23.9759 14.2175 23.9757 14.1542C23.9501 14.0061 23.9074 13.9365 23.7999 13.8317C23.6786 13.8006 23.6786 13.8006 23.5405 13.8056C23.4877 13.8051 23.435 13.8046 23.3806 13.8041C23.295 13.805 23.295 13.805 23.2077 13.8059C23.1489 13.8058 23.0901 13.8057 23.0295 13.8057C22.9049 13.8058 22.7802 13.8064 22.6556 13.8074C22.4657 13.8089 22.2758 13.8085 22.0859 13.8078C21.9647 13.8082 21.8435 13.8086 21.7223 13.8091C21.6658 13.809 21.6093 13.8088 21.5511 13.8087C20.9822 13.8157 20.5949 13.9713 20.2115 14.4038ZM2.83453 17.0684C2.14621 17.7332 1.76288 18.5948 1.72882 19.5482C1.71535 20.4879 2.00766 21.3384 2.63383 22.0485C2.66795 22.0875 2.70207 22.1265 2.73723 22.1667C3.3233 22.7946 4.15704 23.2038 5.01895 23.257C6.0215 23.2821 6.91145 23.0381 7.67832 22.3605C7.72116 22.3232 7.76399 22.2858 7.80813 22.2474C8.43923 21.6605 8.84533 20.851 8.89739 19.9872C8.93195 18.9289 8.67044 18.0054 7.93834 17.212C6.50244 15.7596 4.36504 15.7421 2.83453 17.0684Z" fill="#424242"/>
<path d="M7.5652 11.0487C7.61681 11.0482 7.61681 11.0482 7.66948 11.0476C7.7841 11.0467 7.89867 11.0472 8.0133 11.0477C8.09576 11.0474 8.17822 11.0469 8.26067 11.0464C8.48417 11.0452 8.70765 11.0453 8.93115 11.0458C9.1179 11.0461 9.30464 11.0457 9.49139 11.0453C9.93203 11.0444 10.3727 11.0446 10.8133 11.0455C11.2675 11.0464 11.7217 11.0455 12.176 11.0439C12.5663 11.0425 12.9566 11.0421 13.347 11.0425C13.58 11.0428 13.8129 11.0427 14.0459 11.0416C14.265 11.0407 14.4841 11.041 14.7032 11.0422C14.7835 11.0425 14.8638 11.0423 14.944 11.0417C15.6253 11.0365 15.6253 11.0365 15.8614 11.1988C16.0815 11.4172 16.1628 11.594 16.1812 11.901C16.1724 12.177 16.0838 12.3819 15.8951 12.5836C15.6876 12.7341 15.5409 12.7593 15.2864 12.7601C15.2521 12.7604 15.2177 12.7608 15.1823 12.7611C15.0675 12.762 14.9528 12.7617 14.838 12.7615C14.7555 12.7618 14.6731 12.7623 14.5906 12.7628C14.3669 12.7639 14.1432 12.7641 13.9195 12.764C13.7326 12.764 13.5458 12.7644 13.3589 12.7649C12.9179 12.7659 12.477 12.766 12.036 12.7657C11.5814 12.7653 11.1268 12.7665 10.6722 12.7684C10.2816 12.77 9.89108 12.7706 9.50051 12.7704C9.26736 12.7703 9.03422 12.7706 8.80107 12.7719C8.58174 12.773 8.36244 12.7729 8.14311 12.7719C8.06276 12.7717 7.9824 12.772 7.90205 12.7727C7.21998 12.7786 7.21998 12.7786 6.9839 12.6163C6.76209 12.396 6.6825 12.2205 6.66748 11.9108C6.67675 11.6428 6.73597 11.497 6.89825 11.2835C7.12592 11.1025 7.27578 11.0494 7.5652 11.0487Z" fill="#424242"/>
<path d="M5.97183 17.4786C6.24663 17.6618 6.38812 17.8447 6.46218 18.1656C6.50311 18.4498 6.49739 18.7371 6.49569 19.0237C6.49514 19.136 6.49569 19.2482 6.49635 19.3605C6.49758 20.2867 6.49758 20.2867 6.1701 20.6444C6.05224 20.7266 5.93763 20.8007 5.81399 20.8727C5.78003 20.893 5.74606 20.9133 5.71107 20.9342C5.63965 20.9767 5.5681 21.019 5.49641 21.0611C5.38666 21.1255 5.27735 21.1906 5.16809 21.2559C5.09847 21.2972 5.02883 21.3385 4.95916 21.3798C4.92649 21.3992 4.89382 21.4186 4.86016 21.4385C4.55859 21.6152 4.33086 21.6644 3.98589 21.6325C3.69078 21.5303 3.50152 21.3398 3.36183 21.0604C3.33305 20.7526 3.33058 20.4858 3.51785 20.2283C3.70208 20.0535 3.8934 19.928 4.13276 19.8438C4.36686 19.751 4.5717 19.6644 4.71396 19.4483C4.79996 19.0781 4.77606 18.7017 4.7617 18.3247C4.75226 17.9656 4.75226 17.9656 4.86104 17.7987C5.18679 17.4566 5.5115 17.3161 5.97183 17.4786Z" fill="#424242"/>
</svg>
