<svg width="23" height="22" viewBox="0 0 23 22" fill="none" xmlns="http://www.w3.org/2000/svg">
<path d="M6.16015 0.0116536C6.20304 0.0115053 6.24594 0.011357 6.29013 0.0112043C6.43236 0.0107751 6.57459 0.0106958 6.71682 0.0106209C6.81943 0.0103896 6.92205 0.0101388 7.02467 0.00987002C7.30251 0.00921782 7.58034 0.00889386 7.85818 0.00867165C8.03224 0.00852486 8.2063 0.00831989 8.38036 0.00809747C8.92631 0.00741557 9.47227 0.00693285 10.0182 0.00673982C10.6459 0.00651661 11.2735 0.00564249 11.9011 0.00419437C12.3879 0.0031107 12.8747 0.00261178 13.3615 0.00254531C13.6515 0.00249333 13.9414 0.00220544 14.2313 0.00130656C14.5046 0.000475753 14.7779 0.000380366 15.0512 0.000814395C15.1506 0.000852413 15.2501 0.000641916 15.3495 0.000142691C16.9609 -0.00746268 18.6506 0.286735 19.88 1.41615C19.9205 1.44967 19.9609 1.48319 20.0026 1.51772C21.1119 2.45665 21.7075 3.89034 21.8764 5.30914C21.8825 5.4516 21.8822 5.59374 21.8813 5.73631C21.8812 5.79539 21.8812 5.79539 21.8811 5.85566C21.8808 5.98023 21.8802 6.10479 21.8795 6.22936C21.8793 6.31433 21.879 6.3993 21.8788 6.48428C21.8783 6.69149 21.8774 6.8987 21.8764 7.10591C21.9155 7.12093 21.9546 7.13595 21.9948 7.15142C22.3713 7.30735 22.6389 7.6525 22.8247 8.00429C22.9684 8.39137 22.9972 8.76408 22.9961 9.17368C22.9963 9.23118 22.9966 9.28869 22.9969 9.34794C22.9972 9.46882 22.9971 9.5897 22.9967 9.71058C22.9963 9.89381 22.9977 10.077 22.9993 10.2602C23.0038 11.7452 23.0038 11.7452 22.4753 12.2966C22.1284 12.6401 22.1284 12.6401 21.8764 12.6959C21.8772 12.7458 21.878 12.7958 21.8788 12.8473C21.8815 13.0372 21.8832 13.227 21.8846 13.4169C21.8854 13.4983 21.8864 13.5796 21.8877 13.661C21.9143 15.3534 21.3582 16.9197 20.1752 18.1452C19.4499 18.8648 18.5412 19.3034 17.5654 19.571C17.5302 19.5809 17.495 19.5908 17.4587 19.601C16.5772 19.8295 15.6635 19.8003 14.7603 19.7989C14.5672 19.7986 14.3742 19.7994 14.1812 19.8006C14.0312 19.8013 13.8812 19.8014 13.7312 19.8012C13.66 19.8012 13.5888 19.8015 13.5176 19.802C13.4184 19.8026 13.3192 19.8022 13.2201 19.8017C13.1639 19.8017 13.1077 19.8017 13.0498 19.8018C12.8371 19.7765 12.6683 19.7036 12.511 19.5568C12.2744 19.2474 12.25 19.0231 12.2936 18.6352C12.4041 18.3619 12.5766 18.2517 12.8426 18.1361C12.9992 18.1172 12.9992 18.1172 13.1686 18.1169C13.2324 18.1164 13.2963 18.1159 13.3621 18.1153C13.3959 18.1154 13.4298 18.1155 13.4646 18.1156C13.572 18.1158 13.6794 18.1151 13.7869 18.1142C14.0159 18.1123 14.245 18.1116 14.4741 18.1111C16.1662 18.1072 17.7794 18.0895 19.0814 16.8384C20.0906 15.7145 20.2171 14.3385 20.2793 12.8955C20.2297 12.8963 20.1802 12.8971 20.1292 12.8979C19.9423 12.9006 19.7555 12.9023 19.5686 12.9037C19.4883 12.9045 19.408 12.9055 19.3277 12.9068C18.3552 12.9222 17.5108 12.7474 16.7886 12.0565C16.1297 11.4 15.8466 10.6823 15.8373 9.75115C15.8884 8.92531 16.2362 8.20333 16.8376 7.63582C17.4153 7.15846 18.0764 6.89662 18.8219 6.9014C18.8845 6.9015 18.8845 6.9015 18.9484 6.90161C19.0811 6.90189 19.2139 6.90252 19.3466 6.90315C19.4368 6.9034 19.527 6.90363 19.6173 6.90383C19.8379 6.90438 20.0586 6.90524 20.2793 6.90627C20.2127 5.53746 20.1267 4.26998 19.2312 3.16301C19.1941 3.11154 19.157 3.06007 19.1189 3.00704C18.3062 2.15749 17.1163 1.74238 15.9594 1.70629C15.6943 1.70112 15.4292 1.70152 15.164 1.7019C15.0626 1.70168 14.9612 1.70143 14.8598 1.70113C14.5862 1.70046 14.3126 1.70043 14.039 1.70056C13.8097 1.70061 13.5804 1.70037 13.3511 1.70013C12.8096 1.69958 12.2681 1.69955 11.7266 1.69985C11.17 1.70016 10.6135 1.69954 10.057 1.69848C9.57728 1.6976 9.09757 1.6973 8.61785 1.69746C8.33218 1.69755 8.04652 1.69743 7.76085 1.69673C7.49194 1.69609 7.22304 1.6962 6.95413 1.69685C6.85616 1.69697 6.75818 1.69683 6.66021 1.69642C5.25812 1.6909 3.89152 1.9443 2.8532 2.96941C1.97416 3.91412 1.70675 5.09805 1.70565 6.3557C1.70474 6.48223 1.70376 6.60876 1.70273 6.73529C1.70128 6.93342 1.70019 7.13152 1.70017 7.32965C1.7 7.52181 1.69828 7.71389 1.6963 7.90603C1.69665 7.96495 1.697 8.02386 1.69736 8.08456C1.69219 8.43601 1.64996 8.68361 1.41321 8.95259C1.18893 9.13381 0.987206 9.12739 0.708425 9.11987C0.44796 9.08806 0.319762 8.96305 0.149859 8.77478C0.0245245 8.59374 0.00923879 8.45659 0.00768347 8.24188C0.00720396 8.18832 0.00672445 8.13476 0.0062304 8.07957C0.00601829 8.0214 0.00580617 7.96323 0.00558764 7.9033C0.00530314 7.84286 0.00501865 7.78241 0.00472554 7.72013C0.00425319 7.59149 0.0039275 7.46285 0.0037355 7.33421C0.00325771 7.14099 0.00171282 6.9478 0.000128707 6.75459C-0.00824054 4.79218 0.389578 3.09693 1.77194 1.63763C2.93034 0.515296 4.57217 0.00989279 6.16015 0.0116536ZM17.7838 9.05241C17.549 9.40916 17.4424 9.74913 17.5124 10.1754C17.6081 10.5478 17.8723 10.8337 18.183 11.0488C18.5456 11.2355 18.8678 11.2781 19.2715 11.275C19.3258 11.2752 19.3802 11.2754 19.4361 11.2756C19.55 11.2757 19.6639 11.2753 19.7778 11.2745C19.9525 11.2734 20.1271 11.2745 20.3018 11.2758C20.4128 11.2756 20.5237 11.2754 20.6347 11.275C20.6869 11.2754 20.7392 11.2758 20.793 11.2762C20.8413 11.2756 20.8897 11.2749 20.9395 11.2743C20.982 11.2741 21.0245 11.274 21.0683 11.2738C21.1845 11.2569 21.1845 11.2569 21.2662 11.1614C21.3348 11.0352 21.3463 10.9613 21.3468 10.8186C21.3475 10.7506 21.3475 10.7506 21.3482 10.6813C21.3479 10.6327 21.3476 10.5842 21.3473 10.5341C21.3474 10.4839 21.3476 10.4337 21.3477 10.382C21.3478 10.2759 21.3475 10.1699 21.3469 10.0638C21.3461 9.90148 21.3469 9.7392 21.3479 9.57686C21.3478 9.47379 21.3476 9.37072 21.3473 9.26765C21.3476 9.21908 21.3479 9.17052 21.3482 9.12049C21.3477 9.07518 21.3472 9.02988 21.3468 8.9832C21.3466 8.92359 21.3466 8.92359 21.3464 8.86277C21.3218 8.72067 21.2808 8.65391 21.1777 8.55331C21.0612 8.52346 21.0612 8.52346 20.9287 8.52827C20.8781 8.5278 20.8274 8.52733 20.7752 8.52685C20.6931 8.52769 20.6931 8.52769 20.6093 8.52855C20.5529 8.52847 20.4964 8.5284 20.4383 8.52833C20.3187 8.52841 20.1991 8.52899 20.0794 8.53002C19.8972 8.53146 19.7149 8.53105 19.5327 8.5304C19.4164 8.53071 19.3001 8.53113 19.1838 8.53167C19.1295 8.53152 19.0753 8.53137 19.0194 8.53122C18.5086 8.53751 18.1283 8.65926 17.7838 9.05241Z" fill="#424242"/>
<path d="M9.40811 8.99319C9.48913 9.06175 9.56919 9.13145 9.64831 9.20219C9.68987 9.23905 9.73143 9.27592 9.77425 9.3139C10.5557 10.0484 10.9712 11.0181 11.0099 12.087C11.0175 12.4293 11.0167 12.7715 11.0158 13.1139C11.0159 13.2406 11.016 13.3674 11.0162 13.4941C11.0164 13.7586 11.0161 14.023 11.0154 14.2875C11.0146 14.5909 11.0149 14.8944 11.0157 15.1979C11.0164 15.4927 11.0164 15.7876 11.0159 16.0824C11.0158 16.2066 11.0159 16.3307 11.0163 16.4549C11.0195 17.9009 10.8098 18.9844 9.78868 20.067C8.82722 20.9976 7.49275 21.412 6.1737 21.391C4.9628 21.3472 3.85671 20.8943 2.96034 20.0826C2.91315 20.0424 2.91315 20.0424 2.865 20.0013C2.17746 19.3764 1.78694 18.3954 1.71258 17.4873C1.70547 17.2986 1.70475 17.1101 1.70454 16.9213C1.70417 16.839 1.70417 16.839 1.70379 16.7551C1.70307 16.5748 1.70272 16.3945 1.70245 16.2142C1.7023 16.1522 1.70216 16.0902 1.70202 16.0264C1.70135 15.732 1.70085 15.4377 1.70066 15.1434C1.70044 14.8059 1.69956 14.4685 1.69811 14.1311C1.6969 13.8369 1.69652 13.5428 1.69643 13.2486C1.69628 13.1244 1.69589 13.0002 1.69523 12.876C1.68844 11.4997 1.89561 10.3674 2.89483 9.33944C4.59285 7.66993 7.53738 7.54723 9.40811 8.99319ZM4.03945 10.5578C3.59657 11.0208 3.40246 11.5616 3.3409 12.1874C3.36041 12.7249 3.59705 13.2061 3.95854 13.5943C4.13169 13.7457 4.31202 13.8728 4.50755 13.9936C4.54648 14.0176 4.5854 14.0417 4.62551 14.0665C5.42705 14.511 6.45307 14.578 7.33372 14.3617C8.08124 14.144 8.70757 13.7737 9.10846 13.095C9.37207 12.6016 9.41992 12.116 9.27086 11.576C9.00624 10.7896 8.47053 10.3057 7.74282 9.94292C6.50264 9.37019 5.03521 9.65356 4.03945 10.5578ZM3.40953 15.2413C3.43884 15.847 3.71253 16.2841 4.15818 16.6887C4.95867 17.3022 5.96135 17.4869 6.95082 17.3627C7.81926 17.2046 8.50538 16.8439 9.04938 16.1397C9.23507 15.8614 9.29785 15.5687 9.34884 15.2413C9.17127 15.3072 9.00796 15.3892 8.84154 15.4793C7.59824 16.142 6.05168 16.2366 4.7072 15.8402C4.24957 15.6937 3.82364 15.4841 3.40953 15.2413ZM3.7589 18.3857C4.0278 18.9602 4.6109 19.3306 5.18758 19.5554C6.11665 19.8529 7.09124 19.8012 7.9614 19.3576C8.37909 19.1282 8.77007 18.8087 8.99947 18.3857C8.80481 18.4478 8.62076 18.5195 8.43486 18.604C8.18185 18.7108 7.93098 18.785 7.66437 18.8473C7.62961 18.8555 7.59485 18.8636 7.55903 18.872C6.25947 19.1617 4.95815 18.9287 3.7589 18.3857Z" fill="#424242"/>
</svg>
