<svg width="24" height="24" viewBox="0 0 24 24" fill="none" xmlns="http://www.w3.org/2000/svg">
<path d="M7.12755 2.97475C7.16671 2.97461 7.20586 2.97448 7.24621 2.97434C7.37604 2.97395 7.50587 2.97388 7.63571 2.97381C7.72938 2.9736 7.82306 2.97337 7.91674 2.97312C8.17036 2.97253 8.42399 2.97223 8.67762 2.97203C8.83651 2.97189 8.9954 2.97171 9.15429 2.9715C9.65267 2.97088 10.1511 2.97044 10.6494 2.97026C11.2224 2.97006 11.7953 2.96926 12.3683 2.96794C12.8126 2.96695 13.257 2.9665 13.7014 2.96643C13.9661 2.96639 14.2307 2.96612 14.4954 2.9653C14.7449 2.96455 14.9944 2.96446 15.2438 2.96485C15.3346 2.96489 15.4254 2.9647 15.5162 2.96424C16.9872 2.9573 18.5296 3.22586 19.6519 4.25686C19.6888 4.28746 19.7257 4.31806 19.7638 4.34958C20.7765 5.20669 21.3201 6.51545 21.4743 7.81063C21.4799 7.94067 21.4796 8.07042 21.4788 8.20056C21.4787 8.2545 21.4787 8.2545 21.4786 8.30952C21.4783 8.42323 21.4777 8.53694 21.4772 8.65066C21.4769 8.72822 21.4767 8.80579 21.4765 8.88336C21.476 9.07252 21.4752 9.26167 21.4743 9.45083C21.51 9.46454 21.5457 9.47825 21.5824 9.49237C21.926 9.63471 22.1704 9.94979 22.34 10.2709C22.4712 10.6243 22.4974 10.9645 22.4964 11.3384C22.4966 11.3909 22.4969 11.4434 22.4971 11.4975C22.4974 11.6078 22.4974 11.7182 22.497 11.8285C22.4966 11.9958 22.4979 12.163 22.4993 12.3303C22.5034 13.6859 22.5034 13.6859 22.021 14.1892C21.7044 14.5028 21.7044 14.5028 21.4743 14.5537C21.475 14.5993 21.4757 14.6449 21.4765 14.6919C21.479 14.8653 21.4805 15.0386 21.4818 15.2119C21.4825 15.2862 21.4834 15.3604 21.4846 15.4347C21.5089 16.9797 21.0013 18.4094 19.9213 19.5282C19.2593 20.1851 18.4298 20.5855 17.539 20.8297C17.5068 20.8388 17.4747 20.8478 17.4416 20.8571C16.7628 21.033 16.0639 21.0367 15.3678 21.0351C15.2742 21.0353 15.1806 21.0354 15.0871 21.0356C14.8353 21.036 14.5835 21.0359 14.3316 21.0356C14.0667 21.0354 13.8018 21.0356 13.5368 21.0357C13.0921 21.0359 12.6474 21.0357 12.2027 21.0352C11.6904 21.0347 11.178 21.0349 10.6657 21.0354C10.2238 21.0358 9.78202 21.0359 9.3402 21.0356C9.07716 21.0355 8.81412 21.0355 8.55109 21.0358C8.30366 21.036 8.05624 21.0358 7.80882 21.0353C7.71863 21.0352 7.62844 21.0352 7.53825 21.0354C6.84606 21.0368 6.15909 21.0092 5.4852 20.8354C5.44752 20.8257 5.40983 20.816 5.371 20.8061C4.43934 20.5531 3.65568 20.0613 2.9765 19.3831C2.9439 19.3511 2.9113 19.319 2.87772 19.286C1.80682 18.1616 1.50335 16.5942 1.50603 15.0964C1.50583 15.0215 1.50559 14.9466 1.50532 14.8718C1.50472 14.6707 1.50468 14.4696 1.5048 14.2685C1.50485 14.0995 1.50463 13.9305 1.50441 13.7615C1.50391 13.3621 1.50388 12.9627 1.50416 12.5633C1.50443 12.1539 1.50387 11.7446 1.5029 11.3352C1.50209 10.9814 1.50183 10.6275 1.50197 10.2737C1.50206 10.0634 1.50195 9.85313 1.5013 9.64285C1.49654 7.9325 1.49654 7.9325 1.65522 7.17277C1.66183 7.1411 1.66844 7.10942 1.67524 7.07679C1.95721 5.76127 2.76642 4.58914 3.89192 3.85542C4.85983 3.25218 5.9927 2.97349 7.12755 2.97475ZM3.99308 5.75183C3.20791 6.66142 3.0155 7.73165 3.01472 8.90121C3.01451 8.97482 3.01428 9.04843 3.01403 9.12204C3.01344 9.32136 3.01314 9.52067 3.01294 9.71998C3.0128 9.84491 3.01262 9.96984 3.01241 10.0948C3.01179 10.4868 3.01135 10.8788 3.01117 11.2708C3.01097 11.7212 3.01017 12.1715 3.00885 12.6218C3.00786 12.9713 3.0074 13.3207 3.00734 13.6702C3.0073 13.8782 3.00704 14.0863 3.00621 14.2943C2.9891 15.8227 2.9891 15.8227 3.38655 17.2873C3.40334 17.3273 3.42014 17.3673 3.43745 17.4085C3.82266 18.2467 4.53605 18.8994 5.39693 19.2208C5.97439 19.4257 6.5515 19.5269 7.16306 19.5262C7.22099 19.5264 7.22099 19.5264 7.2801 19.5266C7.4084 19.527 7.5367 19.5271 7.665 19.5272C7.75747 19.5274 7.84994 19.5276 7.94241 19.5279C8.19292 19.5285 8.44344 19.5287 8.69396 19.5289C8.85084 19.5291 9.00773 19.5293 9.16461 19.5295C9.65652 19.5301 10.1484 19.5305 10.6403 19.5307C11.2062 19.5309 11.772 19.5317 12.3378 19.533C12.7765 19.534 13.2151 19.5345 13.6538 19.5345C13.9151 19.5346 14.1765 19.5349 14.4379 19.5357C14.6842 19.5364 14.9304 19.5365 15.1767 19.5361C15.2665 19.5361 15.3562 19.5363 15.4459 19.5367C16.7836 19.5431 17.9724 19.2953 18.9684 18.3352C19.7998 17.4119 20.0189 16.2643 20.0169 15.0573C20.0168 15.0262 20.0168 14.9951 20.0168 14.963C20.0167 14.8873 20.0165 14.8116 20.0163 14.7359C19.9711 14.7352 19.9259 14.7346 19.8794 14.7339C19.7088 14.7312 19.5382 14.7277 19.3676 14.724C19.2943 14.7225 19.221 14.7212 19.1477 14.7201C18.219 14.7065 17.4362 14.5285 16.7614 13.8562C16.2244 13.2913 16.0147 12.6408 16.007 11.8656C16.0536 11.1133 16.3612 10.4915 16.8954 9.96624C17.087 9.80157 17.2893 9.68154 17.5133 9.56758C17.5429 9.55253 17.5724 9.53748 17.6029 9.52198C17.9576 9.35185 18.3134 9.30102 18.7038 9.29528C18.7416 9.29439 18.7795 9.29351 18.8185 9.2926C18.9378 9.28991 19.057 9.28778 19.1763 9.28567C19.2579 9.28392 19.3394 9.28214 19.4209 9.28033C19.6194 9.27598 19.8179 9.27214 20.0163 9.26858C20.0277 8.01188 19.9151 6.79409 19.0596 5.80594C19.0267 5.76083 18.9938 5.71573 18.9599 5.66925C18.3178 4.91942 17.2284 4.56652 16.2803 4.48466C15.9695 4.46872 15.658 4.47171 15.3468 4.47215C15.2542 4.47195 15.1617 4.47172 15.0691 4.47145C14.8193 4.47084 14.5696 4.47081 14.3198 4.47092C14.1105 4.47097 13.9012 4.47075 13.6919 4.47053C13.1976 4.47003 12.7032 4.47001 12.2089 4.47028C11.7009 4.47056 11.1929 4.47 10.6848 4.46903C10.2469 4.46822 9.809 4.46795 9.37109 4.4681C9.11032 4.46818 8.84954 4.46807 8.58877 4.46743C8.34329 4.46685 8.09782 4.46695 7.85234 4.46754C7.76291 4.46764 7.67347 4.46752 7.58403 4.46714C6.23748 4.46185 4.95284 4.72895 3.99308 5.75183ZM17.7383 11.2277C17.524 11.5534 17.4267 11.8637 17.4906 12.2528C17.5779 12.5928 17.8191 12.8537 18.1028 13.0502C18.4338 13.2206 18.7279 13.2595 19.0964 13.2566C19.146 13.2568 19.1956 13.2569 19.2467 13.2571C19.3506 13.2573 19.4546 13.2569 19.5585 13.2562C19.718 13.2552 19.8774 13.2562 20.0369 13.2573C20.1382 13.2572 20.2395 13.257 20.3408 13.2566C20.3885 13.257 20.4362 13.2573 20.4853 13.2577C20.5295 13.2571 20.5736 13.2566 20.619 13.256C20.6578 13.2558 20.6966 13.2557 20.7366 13.2555C20.8427 13.2401 20.8427 13.2401 20.9173 13.1529C20.9799 13.0377 20.9904 12.9703 20.9908 12.84C20.9915 12.7779 20.9915 12.7779 20.9921 12.7146C20.9918 12.6703 20.9916 12.626 20.9913 12.5803C20.9914 12.5345 20.9915 12.4886 20.9917 12.4414C20.9918 12.3446 20.9915 12.2478 20.991 12.151C20.9902 12.0028 20.9909 11.8547 20.9918 11.7065C20.9917 11.6124 20.9916 11.5183 20.9913 11.4242C20.9916 11.3799 20.9918 11.3355 20.9921 11.2899C20.9917 11.2485 20.9913 11.2071 20.9908 11.1645C20.9907 11.1101 20.9907 11.1101 20.9905 11.0546C20.968 10.9249 20.9306 10.8639 20.8364 10.7721C20.7302 10.7449 20.7302 10.7449 20.6092 10.7492C20.563 10.7488 20.5167 10.7484 20.4691 10.7479C20.3941 10.7487 20.3941 10.7487 20.3177 10.7495C20.2661 10.7494 20.2146 10.7494 20.1615 10.7493C20.0523 10.7494 19.9431 10.7499 19.8339 10.7508C19.6675 10.7522 19.5012 10.7518 19.3348 10.7512C19.2286 10.7515 19.1225 10.7519 19.0163 10.7523C18.9668 10.7522 18.9173 10.7521 18.8663 10.7519C18.3999 10.7577 18.0528 10.8688 17.7383 11.2277Z" fill="#424242"/>
<path d="M7.46142 8.33374C7.52386 8.3335 7.5863 8.33317 7.64874 8.33278C7.81781 8.33195 7.98686 8.33227 8.15593 8.33285C8.33311 8.33331 8.5103 8.33288 8.68748 8.33259C8.985 8.33226 9.2825 8.3327 9.58002 8.33357C9.92366 8.33456 10.2673 8.33424 10.6109 8.33323C10.9063 8.33241 11.2017 8.33229 11.4971 8.33277C11.6734 8.33305 11.8496 8.33309 12.0259 8.33249C12.1917 8.33196 12.3574 8.33233 12.5231 8.33338C12.6128 8.33373 12.7024 8.33319 12.792 8.33263C13.2821 8.33732 13.2821 8.33732 13.5011 8.53957C13.6871 8.74563 13.7437 8.89456 13.7385 9.17493C13.7162 9.39217 13.6136 9.5324 13.4527 9.67006C13.2734 9.8036 13.1971 9.82109 12.9768 9.82229C12.9234 9.82268 12.8701 9.82308 12.8152 9.82348C12.7563 9.82367 12.6975 9.82387 12.6369 9.82407C12.5746 9.82443 12.5123 9.82481 12.4499 9.8252C12.2449 9.82639 12.0398 9.82709 11.8348 9.82774C11.7642 9.82798 11.6936 9.82823 11.623 9.82847C11.3292 9.82946 11.0355 9.83031 10.7418 9.83083C10.321 9.83157 9.90016 9.83308 9.47933 9.83567C9.1834 9.83744 8.88747 9.83833 8.59154 9.83857C8.41482 9.83873 8.23813 9.83928 8.06141 9.84076C7.89503 9.84213 7.72868 9.84242 7.56229 9.84188C7.47241 9.84187 7.38253 9.84298 7.29266 9.84413C6.96106 9.8418 6.77422 9.81921 6.53027 9.58748C6.36772 9.362 6.35567 9.1273 6.39359 8.8585C6.45976 8.66148 6.57763 8.50643 6.7546 8.39446C6.97638 8.3074 7.22688 8.33226 7.46142 8.33374Z" fill="#424242"/>
</svg>
